G04 #@! TF.GenerationSoftware,KiCad,Pcbnew,5.1.4+dfsg1-1~bpo10+1*
G04 #@! TF.CreationDate,2019-10-25T23:34:54+10:00*
G04 #@! TF.ProjectId,interface,696e7465-7266-4616-9365-2e6b69636164,rev?*
G04 #@! TF.SameCoordinates,Original*
G04 #@! TF.FileFunction,Soldermask,Top*
G04 #@! TF.FilePolarity,Negative*
%FSLAX46Y46*%
G04 Gerber Fmt 4.6, Leading zero omitted, Abs format (unit mm)*
G04 Created by KiCad (PCBNEW 5.1.4+dfsg1-1~bpo10+1) date 2019-10-25 23:34:54*
%MOMM*%
%LPD*%
G04 APERTURE LIST*
%ADD10C,0.100000*%
G04 APERTURE END LIST*
D10*
G36*
X123610823Y-111302313D02*
G01*
X123771242Y-111350976D01*
X123874738Y-111406296D01*
X123919078Y-111429996D01*
X124048659Y-111536341D01*
X124155004Y-111665922D01*
X124155005Y-111665924D01*
X124234024Y-111813758D01*
X124282687Y-111974177D01*
X124299117Y-112141000D01*
X124282687Y-112307823D01*
X124234024Y-112468242D01*
X124163114Y-112600906D01*
X124155004Y-112616078D01*
X124048659Y-112745659D01*
X123919078Y-112852004D01*
X123919076Y-112852005D01*
X123771242Y-112931024D01*
X123610823Y-112979687D01*
X123485804Y-112992000D01*
X123402196Y-112992000D01*
X123277177Y-112979687D01*
X123116758Y-112931024D01*
X122968924Y-112852005D01*
X122968922Y-112852004D01*
X122839341Y-112745659D01*
X122732996Y-112616078D01*
X122724886Y-112600906D01*
X122653976Y-112468242D01*
X122605313Y-112307823D01*
X122588883Y-112141000D01*
X122605313Y-111974177D01*
X122653976Y-111813758D01*
X122732995Y-111665924D01*
X122732996Y-111665922D01*
X122839341Y-111536341D01*
X122968922Y-111429996D01*
X123013262Y-111406296D01*
X123116758Y-111350976D01*
X123277177Y-111302313D01*
X123402196Y-111290000D01*
X123485804Y-111290000D01*
X123610823Y-111302313D01*
X123610823Y-111302313D01*
G37*
G36*
X121070823Y-111302313D02*
G01*
X121231242Y-111350976D01*
X121334738Y-111406296D01*
X121379078Y-111429996D01*
X121508659Y-111536341D01*
X121615004Y-111665922D01*
X121615005Y-111665924D01*
X121694024Y-111813758D01*
X121742687Y-111974177D01*
X121759117Y-112141000D01*
X121742687Y-112307823D01*
X121694024Y-112468242D01*
X121623114Y-112600906D01*
X121615004Y-112616078D01*
X121508659Y-112745659D01*
X121379078Y-112852004D01*
X121379076Y-112852005D01*
X121231242Y-112931024D01*
X121070823Y-112979687D01*
X120945804Y-112992000D01*
X120862196Y-112992000D01*
X120737177Y-112979687D01*
X120576758Y-112931024D01*
X120428924Y-112852005D01*
X120428922Y-112852004D01*
X120299341Y-112745659D01*
X120192996Y-112616078D01*
X120184886Y-112600906D01*
X120113976Y-112468242D01*
X120065313Y-112307823D01*
X120048883Y-112141000D01*
X120065313Y-111974177D01*
X120113976Y-111813758D01*
X120192995Y-111665924D01*
X120192996Y-111665922D01*
X120299341Y-111536341D01*
X120428922Y-111429996D01*
X120473262Y-111406296D01*
X120576758Y-111350976D01*
X120737177Y-111302313D01*
X120862196Y-111290000D01*
X120945804Y-111290000D01*
X121070823Y-111302313D01*
X121070823Y-111302313D01*
G37*
G36*
X115990823Y-111302313D02*
G01*
X116151242Y-111350976D01*
X116254738Y-111406296D01*
X116299078Y-111429996D01*
X116428659Y-111536341D01*
X116535004Y-111665922D01*
X116535005Y-111665924D01*
X116614024Y-111813758D01*
X116662687Y-111974177D01*
X116679117Y-112141000D01*
X116662687Y-112307823D01*
X116614024Y-112468242D01*
X116543114Y-112600906D01*
X116535004Y-112616078D01*
X116428659Y-112745659D01*
X116299078Y-112852004D01*
X116299076Y-112852005D01*
X116151242Y-112931024D01*
X115990823Y-112979687D01*
X115865804Y-112992000D01*
X115782196Y-112992000D01*
X115657177Y-112979687D01*
X115496758Y-112931024D01*
X115348924Y-112852005D01*
X115348922Y-112852004D01*
X115219341Y-112745659D01*
X115112996Y-112616078D01*
X115104886Y-112600906D01*
X115033976Y-112468242D01*
X114985313Y-112307823D01*
X114968883Y-112141000D01*
X114985313Y-111974177D01*
X115033976Y-111813758D01*
X115112995Y-111665924D01*
X115112996Y-111665922D01*
X115219341Y-111536341D01*
X115348922Y-111429996D01*
X115393262Y-111406296D01*
X115496758Y-111350976D01*
X115657177Y-111302313D01*
X115782196Y-111290000D01*
X115865804Y-111290000D01*
X115990823Y-111302313D01*
X115990823Y-111302313D01*
G37*
G36*
X118530823Y-111302313D02*
G01*
X118691242Y-111350976D01*
X118794738Y-111406296D01*
X118839078Y-111429996D01*
X118968659Y-111536341D01*
X119075004Y-111665922D01*
X119075005Y-111665924D01*
X119154024Y-111813758D01*
X119202687Y-111974177D01*
X119219117Y-112141000D01*
X119202687Y-112307823D01*
X119154024Y-112468242D01*
X119083114Y-112600906D01*
X119075004Y-112616078D01*
X118968659Y-112745659D01*
X118839078Y-112852004D01*
X118839076Y-112852005D01*
X118691242Y-112931024D01*
X118530823Y-112979687D01*
X118405804Y-112992000D01*
X118322196Y-112992000D01*
X118197177Y-112979687D01*
X118036758Y-112931024D01*
X117888924Y-112852005D01*
X117888922Y-112852004D01*
X117759341Y-112745659D01*
X117652996Y-112616078D01*
X117644886Y-112600906D01*
X117573976Y-112468242D01*
X117525313Y-112307823D01*
X117508883Y-112141000D01*
X117525313Y-111974177D01*
X117573976Y-111813758D01*
X117652995Y-111665924D01*
X117652996Y-111665922D01*
X117759341Y-111536341D01*
X117888922Y-111429996D01*
X117933262Y-111406296D01*
X118036758Y-111350976D01*
X118197177Y-111302313D01*
X118322196Y-111290000D01*
X118405804Y-111290000D01*
X118530823Y-111302313D01*
X118530823Y-111302313D01*
G37*
G36*
X110178468Y-111394565D02*
G01*
X110217138Y-111406296D01*
X110252777Y-111425346D01*
X110284017Y-111450983D01*
X110309654Y-111482223D01*
X110328704Y-111517862D01*
X110340435Y-111556532D01*
X110345000Y-111602888D01*
X110345000Y-112679112D01*
X110340435Y-112725468D01*
X110328704Y-112764138D01*
X110309654Y-112799777D01*
X110284017Y-112831017D01*
X110252777Y-112856654D01*
X110217138Y-112875704D01*
X110178468Y-112887435D01*
X110132112Y-112892000D01*
X109480888Y-112892000D01*
X109434532Y-112887435D01*
X109395862Y-112875704D01*
X109360223Y-112856654D01*
X109328983Y-112831017D01*
X109303346Y-112799777D01*
X109284296Y-112764138D01*
X109272565Y-112725468D01*
X109268000Y-112679112D01*
X109268000Y-111602888D01*
X109272565Y-111556532D01*
X109284296Y-111517862D01*
X109303346Y-111482223D01*
X109328983Y-111450983D01*
X109360223Y-111425346D01*
X109395862Y-111406296D01*
X109434532Y-111394565D01*
X109480888Y-111390000D01*
X110132112Y-111390000D01*
X110178468Y-111394565D01*
X110178468Y-111394565D01*
G37*
G36*
X106368468Y-111394565D02*
G01*
X106407138Y-111406296D01*
X106442777Y-111425346D01*
X106474017Y-111450983D01*
X106499654Y-111482223D01*
X106518704Y-111517862D01*
X106530435Y-111556532D01*
X106535000Y-111602888D01*
X106535000Y-112679112D01*
X106530435Y-112725468D01*
X106518704Y-112764138D01*
X106499654Y-112799777D01*
X106474017Y-112831017D01*
X106442777Y-112856654D01*
X106407138Y-112875704D01*
X106368468Y-112887435D01*
X106322112Y-112892000D01*
X105670888Y-112892000D01*
X105624532Y-112887435D01*
X105585862Y-112875704D01*
X105550223Y-112856654D01*
X105518983Y-112831017D01*
X105493346Y-112799777D01*
X105474296Y-112764138D01*
X105462565Y-112725468D01*
X105458000Y-112679112D01*
X105458000Y-111602888D01*
X105462565Y-111556532D01*
X105474296Y-111517862D01*
X105493346Y-111482223D01*
X105518983Y-111450983D01*
X105550223Y-111425346D01*
X105585862Y-111406296D01*
X105624532Y-111394565D01*
X105670888Y-111390000D01*
X106322112Y-111390000D01*
X106368468Y-111394565D01*
X106368468Y-111394565D01*
G37*
G36*
X108243468Y-111394565D02*
G01*
X108282138Y-111406296D01*
X108317777Y-111425346D01*
X108349017Y-111450983D01*
X108374654Y-111482223D01*
X108393704Y-111517862D01*
X108405435Y-111556532D01*
X108410000Y-111602888D01*
X108410000Y-112679112D01*
X108405435Y-112725468D01*
X108393704Y-112764138D01*
X108374654Y-112799777D01*
X108349017Y-112831017D01*
X108317777Y-112856654D01*
X108282138Y-112875704D01*
X108243468Y-112887435D01*
X108197112Y-112892000D01*
X107545888Y-112892000D01*
X107499532Y-112887435D01*
X107460862Y-112875704D01*
X107425223Y-112856654D01*
X107393983Y-112831017D01*
X107368346Y-112799777D01*
X107349296Y-112764138D01*
X107337565Y-112725468D01*
X107333000Y-112679112D01*
X107333000Y-111602888D01*
X107337565Y-111556532D01*
X107349296Y-111517862D01*
X107368346Y-111482223D01*
X107393983Y-111450983D01*
X107425223Y-111425346D01*
X107460862Y-111406296D01*
X107499532Y-111394565D01*
X107545888Y-111390000D01*
X108197112Y-111390000D01*
X108243468Y-111394565D01*
X108243468Y-111394565D01*
G37*
G36*
X112053468Y-111394565D02*
G01*
X112092138Y-111406296D01*
X112127777Y-111425346D01*
X112159017Y-111450983D01*
X112184654Y-111482223D01*
X112203704Y-111517862D01*
X112215435Y-111556532D01*
X112220000Y-111602888D01*
X112220000Y-112679112D01*
X112215435Y-112725468D01*
X112203704Y-112764138D01*
X112184654Y-112799777D01*
X112159017Y-112831017D01*
X112127777Y-112856654D01*
X112092138Y-112875704D01*
X112053468Y-112887435D01*
X112007112Y-112892000D01*
X111355888Y-112892000D01*
X111309532Y-112887435D01*
X111270862Y-112875704D01*
X111235223Y-112856654D01*
X111203983Y-112831017D01*
X111178346Y-112799777D01*
X111159296Y-112764138D01*
X111147565Y-112725468D01*
X111143000Y-112679112D01*
X111143000Y-111602888D01*
X111147565Y-111556532D01*
X111159296Y-111517862D01*
X111178346Y-111482223D01*
X111203983Y-111450983D01*
X111235223Y-111425346D01*
X111270862Y-111406296D01*
X111309532Y-111394565D01*
X111355888Y-111390000D01*
X112007112Y-111390000D01*
X112053468Y-111394565D01*
X112053468Y-111394565D01*
G37*
G36*
X100124585Y-108587802D02*
G01*
X100274410Y-108617604D01*
X100556674Y-108734521D01*
X100810705Y-108904259D01*
X101026741Y-109120295D01*
X101196479Y-109374326D01*
X101313396Y-109656590D01*
X101373000Y-109956240D01*
X101373000Y-110261760D01*
X101313396Y-110561410D01*
X101196479Y-110843674D01*
X101026741Y-111097705D01*
X100810705Y-111313741D01*
X100556674Y-111483479D01*
X100274410Y-111600396D01*
X100124585Y-111630198D01*
X99974761Y-111660000D01*
X99669239Y-111660000D01*
X99519415Y-111630198D01*
X99369590Y-111600396D01*
X99087326Y-111483479D01*
X98833295Y-111313741D01*
X98617259Y-111097705D01*
X98447521Y-110843674D01*
X98330604Y-110561410D01*
X98271000Y-110261760D01*
X98271000Y-109956240D01*
X98330604Y-109656590D01*
X98447521Y-109374326D01*
X98617259Y-109120295D01*
X98833295Y-108904259D01*
X99087326Y-108734521D01*
X99369590Y-108617604D01*
X99519415Y-108587802D01*
X99669239Y-108558000D01*
X99974761Y-108558000D01*
X100124585Y-108587802D01*
X100124585Y-108587802D01*
G37*
G36*
X111984000Y-110079000D02*
G01*
X110332000Y-110079000D01*
X110332000Y-109377000D01*
X111984000Y-109377000D01*
X111984000Y-110079000D01*
X111984000Y-110079000D01*
G37*
G36*
X106584000Y-110079000D02*
G01*
X104932000Y-110079000D01*
X104932000Y-109377000D01*
X106584000Y-109377000D01*
X106584000Y-110079000D01*
X106584000Y-110079000D01*
G37*
G36*
X106584000Y-108809000D02*
G01*
X104932000Y-108809000D01*
X104932000Y-108107000D01*
X106584000Y-108107000D01*
X106584000Y-108809000D01*
X106584000Y-108809000D01*
G37*
G36*
X111984000Y-108809000D02*
G01*
X110332000Y-108809000D01*
X110332000Y-108107000D01*
X111984000Y-108107000D01*
X111984000Y-108809000D01*
X111984000Y-108809000D01*
G37*
G36*
X106584000Y-107539000D02*
G01*
X104932000Y-107539000D01*
X104932000Y-106837000D01*
X106584000Y-106837000D01*
X106584000Y-107539000D01*
X106584000Y-107539000D01*
G37*
G36*
X111984000Y-107539000D02*
G01*
X110332000Y-107539000D01*
X110332000Y-106837000D01*
X111984000Y-106837000D01*
X111984000Y-107539000D01*
X111984000Y-107539000D01*
G37*
G36*
X101373000Y-106580000D02*
G01*
X98271000Y-106580000D01*
X98271000Y-103478000D01*
X101373000Y-103478000D01*
X101373000Y-106580000D01*
X101373000Y-106580000D01*
G37*
G36*
X111984000Y-106269000D02*
G01*
X110332000Y-106269000D01*
X110332000Y-105567000D01*
X111984000Y-105567000D01*
X111984000Y-106269000D01*
X111984000Y-106269000D01*
G37*
G36*
X106584000Y-106269000D02*
G01*
X104932000Y-106269000D01*
X104932000Y-105567000D01*
X106584000Y-105567000D01*
X106584000Y-106269000D01*
X106584000Y-106269000D01*
G37*
G36*
X129108468Y-104670565D02*
G01*
X129147138Y-104682296D01*
X129182777Y-104701346D01*
X129214017Y-104726983D01*
X129239654Y-104758223D01*
X129258704Y-104793862D01*
X129270435Y-104832532D01*
X129275000Y-104878888D01*
X129275000Y-105530112D01*
X129270435Y-105576468D01*
X129258704Y-105615138D01*
X129239654Y-105650777D01*
X129214017Y-105682017D01*
X129182777Y-105707654D01*
X129147138Y-105726704D01*
X129108468Y-105738435D01*
X129062112Y-105743000D01*
X127985888Y-105743000D01*
X127939532Y-105738435D01*
X127900862Y-105726704D01*
X127865223Y-105707654D01*
X127833983Y-105682017D01*
X127808346Y-105650777D01*
X127789296Y-105615138D01*
X127777565Y-105576468D01*
X127773000Y-105530112D01*
X127773000Y-104878888D01*
X127777565Y-104832532D01*
X127789296Y-104793862D01*
X127808346Y-104758223D01*
X127833983Y-104726983D01*
X127865223Y-104701346D01*
X127900862Y-104682296D01*
X127939532Y-104670565D01*
X127985888Y-104666000D01*
X129062112Y-104666000D01*
X129108468Y-104670565D01*
X129108468Y-104670565D01*
G37*
G36*
X132156468Y-104670565D02*
G01*
X132195138Y-104682296D01*
X132230777Y-104701346D01*
X132262017Y-104726983D01*
X132287654Y-104758223D01*
X132306704Y-104793862D01*
X132318435Y-104832532D01*
X132323000Y-104878888D01*
X132323000Y-105530112D01*
X132318435Y-105576468D01*
X132306704Y-105615138D01*
X132287654Y-105650777D01*
X132262017Y-105682017D01*
X132230777Y-105707654D01*
X132195138Y-105726704D01*
X132156468Y-105738435D01*
X132110112Y-105743000D01*
X131033888Y-105743000D01*
X130987532Y-105738435D01*
X130948862Y-105726704D01*
X130913223Y-105707654D01*
X130881983Y-105682017D01*
X130856346Y-105650777D01*
X130837296Y-105615138D01*
X130825565Y-105576468D01*
X130821000Y-105530112D01*
X130821000Y-104878888D01*
X130825565Y-104832532D01*
X130837296Y-104793862D01*
X130856346Y-104758223D01*
X130881983Y-104726983D01*
X130913223Y-104701346D01*
X130948862Y-104682296D01*
X130987532Y-104670565D01*
X131033888Y-104666000D01*
X132110112Y-104666000D01*
X132156468Y-104670565D01*
X132156468Y-104670565D01*
G37*
G36*
X118530823Y-103682313D02*
G01*
X118691242Y-103730976D01*
X118800057Y-103789139D01*
X118839078Y-103809996D01*
X118968659Y-103916341D01*
X119075004Y-104045922D01*
X119075005Y-104045924D01*
X119154024Y-104193758D01*
X119202687Y-104354177D01*
X119219117Y-104521000D01*
X119202687Y-104687823D01*
X119154024Y-104848242D01*
X119137643Y-104878888D01*
X119075004Y-104996078D01*
X118968659Y-105125659D01*
X118839078Y-105232004D01*
X118839076Y-105232005D01*
X118691242Y-105311024D01*
X118530823Y-105359687D01*
X118405804Y-105372000D01*
X118322196Y-105372000D01*
X118197177Y-105359687D01*
X118036758Y-105311024D01*
X117888924Y-105232005D01*
X117888922Y-105232004D01*
X117759341Y-105125659D01*
X117652996Y-104996078D01*
X117590357Y-104878888D01*
X117573976Y-104848242D01*
X117525313Y-104687823D01*
X117508883Y-104521000D01*
X117525313Y-104354177D01*
X117573976Y-104193758D01*
X117652995Y-104045924D01*
X117652996Y-104045922D01*
X117759341Y-103916341D01*
X117888922Y-103809996D01*
X117927943Y-103789139D01*
X118036758Y-103730976D01*
X118197177Y-103682313D01*
X118322196Y-103670000D01*
X118405804Y-103670000D01*
X118530823Y-103682313D01*
X118530823Y-103682313D01*
G37*
G36*
X115990823Y-103682313D02*
G01*
X116151242Y-103730976D01*
X116260057Y-103789139D01*
X116299078Y-103809996D01*
X116428659Y-103916341D01*
X116535004Y-104045922D01*
X116535005Y-104045924D01*
X116614024Y-104193758D01*
X116662687Y-104354177D01*
X116679117Y-104521000D01*
X116662687Y-104687823D01*
X116614024Y-104848242D01*
X116597643Y-104878888D01*
X116535004Y-104996078D01*
X116428659Y-105125659D01*
X116299078Y-105232004D01*
X116299076Y-105232005D01*
X116151242Y-105311024D01*
X115990823Y-105359687D01*
X115865804Y-105372000D01*
X115782196Y-105372000D01*
X115657177Y-105359687D01*
X115496758Y-105311024D01*
X115348924Y-105232005D01*
X115348922Y-105232004D01*
X115219341Y-105125659D01*
X115112996Y-104996078D01*
X115050357Y-104878888D01*
X115033976Y-104848242D01*
X114985313Y-104687823D01*
X114968883Y-104521000D01*
X114985313Y-104354177D01*
X115033976Y-104193758D01*
X115112995Y-104045924D01*
X115112996Y-104045922D01*
X115219341Y-103916341D01*
X115348922Y-103809996D01*
X115387943Y-103789139D01*
X115496758Y-103730976D01*
X115657177Y-103682313D01*
X115782196Y-103670000D01*
X115865804Y-103670000D01*
X115990823Y-103682313D01*
X115990823Y-103682313D01*
G37*
G36*
X124295000Y-105372000D02*
G01*
X122593000Y-105372000D01*
X122593000Y-103670000D01*
X124295000Y-103670000D01*
X124295000Y-105372000D01*
X124295000Y-105372000D01*
G37*
G36*
X121070823Y-103682313D02*
G01*
X121231242Y-103730976D01*
X121340057Y-103789139D01*
X121379078Y-103809996D01*
X121508659Y-103916341D01*
X121615004Y-104045922D01*
X121615005Y-104045924D01*
X121694024Y-104193758D01*
X121742687Y-104354177D01*
X121759117Y-104521000D01*
X121742687Y-104687823D01*
X121694024Y-104848242D01*
X121677643Y-104878888D01*
X121615004Y-104996078D01*
X121508659Y-105125659D01*
X121379078Y-105232004D01*
X121379076Y-105232005D01*
X121231242Y-105311024D01*
X121070823Y-105359687D01*
X120945804Y-105372000D01*
X120862196Y-105372000D01*
X120737177Y-105359687D01*
X120576758Y-105311024D01*
X120428924Y-105232005D01*
X120428922Y-105232004D01*
X120299341Y-105125659D01*
X120192996Y-104996078D01*
X120130357Y-104878888D01*
X120113976Y-104848242D01*
X120065313Y-104687823D01*
X120048883Y-104521000D01*
X120065313Y-104354177D01*
X120113976Y-104193758D01*
X120192995Y-104045924D01*
X120192996Y-104045922D01*
X120299341Y-103916341D01*
X120428922Y-103809996D01*
X120467943Y-103789139D01*
X120576758Y-103730976D01*
X120737177Y-103682313D01*
X120862196Y-103670000D01*
X120945804Y-103670000D01*
X121070823Y-103682313D01*
X121070823Y-103682313D01*
G37*
G36*
X132156468Y-102795565D02*
G01*
X132195138Y-102807296D01*
X132230777Y-102826346D01*
X132262017Y-102851983D01*
X132287654Y-102883223D01*
X132306704Y-102918862D01*
X132318435Y-102957532D01*
X132323000Y-103003888D01*
X132323000Y-103655112D01*
X132318435Y-103701468D01*
X132306704Y-103740138D01*
X132287654Y-103775777D01*
X132262017Y-103807017D01*
X132230777Y-103832654D01*
X132195138Y-103851704D01*
X132156468Y-103863435D01*
X132110112Y-103868000D01*
X131033888Y-103868000D01*
X130987532Y-103863435D01*
X130948862Y-103851704D01*
X130913223Y-103832654D01*
X130881983Y-103807017D01*
X130856346Y-103775777D01*
X130837296Y-103740138D01*
X130825565Y-103701468D01*
X130821000Y-103655112D01*
X130821000Y-103003888D01*
X130825565Y-102957532D01*
X130837296Y-102918862D01*
X130856346Y-102883223D01*
X130881983Y-102851983D01*
X130913223Y-102826346D01*
X130948862Y-102807296D01*
X130987532Y-102795565D01*
X131033888Y-102791000D01*
X132110112Y-102791000D01*
X132156468Y-102795565D01*
X132156468Y-102795565D01*
G37*
G36*
X129108468Y-102795565D02*
G01*
X129147138Y-102807296D01*
X129182777Y-102826346D01*
X129214017Y-102851983D01*
X129239654Y-102883223D01*
X129258704Y-102918862D01*
X129270435Y-102957532D01*
X129275000Y-103003888D01*
X129275000Y-103655112D01*
X129270435Y-103701468D01*
X129258704Y-103740138D01*
X129239654Y-103775777D01*
X129214017Y-103807017D01*
X129182777Y-103832654D01*
X129147138Y-103851704D01*
X129108468Y-103863435D01*
X129062112Y-103868000D01*
X127985888Y-103868000D01*
X127939532Y-103863435D01*
X127900862Y-103851704D01*
X127865223Y-103832654D01*
X127833983Y-103807017D01*
X127808346Y-103775777D01*
X127789296Y-103740138D01*
X127777565Y-103701468D01*
X127773000Y-103655112D01*
X127773000Y-103003888D01*
X127777565Y-102957532D01*
X127789296Y-102918862D01*
X127808346Y-102883223D01*
X127833983Y-102851983D01*
X127865223Y-102826346D01*
X127900862Y-102807296D01*
X127939532Y-102795565D01*
X127985888Y-102791000D01*
X129062112Y-102791000D01*
X129108468Y-102795565D01*
X129108468Y-102795565D01*
G37*
G36*
X129292604Y-100423347D02*
G01*
X129329144Y-100434432D01*
X129362821Y-100452433D01*
X129392341Y-100476659D01*
X129416567Y-100506179D01*
X129434568Y-100539856D01*
X129445653Y-100576396D01*
X129450000Y-100620538D01*
X129450000Y-101569462D01*
X129445653Y-101613604D01*
X129434568Y-101650144D01*
X129416567Y-101683821D01*
X129392341Y-101713341D01*
X129362821Y-101737567D01*
X129329144Y-101755568D01*
X129292604Y-101766653D01*
X129248462Y-101771000D01*
X127799538Y-101771000D01*
X127755396Y-101766653D01*
X127718856Y-101755568D01*
X127685179Y-101737567D01*
X127655659Y-101713341D01*
X127631433Y-101683821D01*
X127613432Y-101650144D01*
X127602347Y-101613604D01*
X127598000Y-101569462D01*
X127598000Y-100620538D01*
X127602347Y-100576396D01*
X127613432Y-100539856D01*
X127631433Y-100506179D01*
X127655659Y-100476659D01*
X127685179Y-100452433D01*
X127718856Y-100434432D01*
X127755396Y-100423347D01*
X127799538Y-100419000D01*
X129248462Y-100419000D01*
X129292604Y-100423347D01*
X129292604Y-100423347D01*
G37*
G36*
X132340604Y-100423347D02*
G01*
X132377144Y-100434432D01*
X132410821Y-100452433D01*
X132440341Y-100476659D01*
X132464567Y-100506179D01*
X132482568Y-100539856D01*
X132493653Y-100576396D01*
X132498000Y-100620538D01*
X132498000Y-101569462D01*
X132493653Y-101613604D01*
X132482568Y-101650144D01*
X132464567Y-101683821D01*
X132440341Y-101713341D01*
X132410821Y-101737567D01*
X132377144Y-101755568D01*
X132340604Y-101766653D01*
X132296462Y-101771000D01*
X130847538Y-101771000D01*
X130803396Y-101766653D01*
X130766856Y-101755568D01*
X130733179Y-101737567D01*
X130703659Y-101713341D01*
X130679433Y-101683821D01*
X130661432Y-101650144D01*
X130650347Y-101613604D01*
X130646000Y-101569462D01*
X130646000Y-100620538D01*
X130650347Y-100576396D01*
X130661432Y-100539856D01*
X130679433Y-100506179D01*
X130703659Y-100476659D01*
X130733179Y-100452433D01*
X130766856Y-100434432D01*
X130803396Y-100423347D01*
X130847538Y-100419000D01*
X132296462Y-100419000D01*
X132340604Y-100423347D01*
X132340604Y-100423347D01*
G37*
G36*
X112725468Y-99639065D02*
G01*
X112764138Y-99650796D01*
X112799777Y-99669846D01*
X112831017Y-99695483D01*
X112856654Y-99726723D01*
X112875704Y-99762362D01*
X112887435Y-99801032D01*
X112892000Y-99847388D01*
X112892000Y-100498612D01*
X112887435Y-100544968D01*
X112875704Y-100583638D01*
X112856654Y-100619277D01*
X112831017Y-100650517D01*
X112799777Y-100676154D01*
X112764138Y-100695204D01*
X112725468Y-100706935D01*
X112679112Y-100711500D01*
X111602888Y-100711500D01*
X111556532Y-100706935D01*
X111517862Y-100695204D01*
X111482223Y-100676154D01*
X111450983Y-100650517D01*
X111425346Y-100619277D01*
X111406296Y-100583638D01*
X111394565Y-100544968D01*
X111390000Y-100498612D01*
X111390000Y-99847388D01*
X111394565Y-99801032D01*
X111406296Y-99762362D01*
X111425346Y-99726723D01*
X111450983Y-99695483D01*
X111482223Y-99669846D01*
X111517862Y-99650796D01*
X111556532Y-99639065D01*
X111602888Y-99634500D01*
X112679112Y-99634500D01*
X112725468Y-99639065D01*
X112725468Y-99639065D01*
G37*
G36*
X105994468Y-99639065D02*
G01*
X106033138Y-99650796D01*
X106068777Y-99669846D01*
X106100017Y-99695483D01*
X106125654Y-99726723D01*
X106144704Y-99762362D01*
X106156435Y-99801032D01*
X106161000Y-99847388D01*
X106161000Y-100498612D01*
X106156435Y-100544968D01*
X106144704Y-100583638D01*
X106125654Y-100619277D01*
X106100017Y-100650517D01*
X106068777Y-100676154D01*
X106033138Y-100695204D01*
X105994468Y-100706935D01*
X105948112Y-100711500D01*
X104871888Y-100711500D01*
X104825532Y-100706935D01*
X104786862Y-100695204D01*
X104751223Y-100676154D01*
X104719983Y-100650517D01*
X104694346Y-100619277D01*
X104675296Y-100583638D01*
X104663565Y-100544968D01*
X104659000Y-100498612D01*
X104659000Y-99847388D01*
X104663565Y-99801032D01*
X104675296Y-99762362D01*
X104694346Y-99726723D01*
X104719983Y-99695483D01*
X104751223Y-99669846D01*
X104786862Y-99650796D01*
X104825532Y-99639065D01*
X104871888Y-99634500D01*
X105948112Y-99634500D01*
X105994468Y-99639065D01*
X105994468Y-99639065D01*
G37*
G36*
X119456468Y-99590565D02*
G01*
X119495138Y-99602296D01*
X119530777Y-99621346D01*
X119562017Y-99646983D01*
X119587654Y-99678223D01*
X119606704Y-99713862D01*
X119618435Y-99752532D01*
X119623000Y-99798888D01*
X119623000Y-100450112D01*
X119618435Y-100496468D01*
X119606704Y-100535138D01*
X119587654Y-100570777D01*
X119562017Y-100602017D01*
X119530777Y-100627654D01*
X119495138Y-100646704D01*
X119456468Y-100658435D01*
X119410112Y-100663000D01*
X118333888Y-100663000D01*
X118287532Y-100658435D01*
X118248862Y-100646704D01*
X118213223Y-100627654D01*
X118181983Y-100602017D01*
X118156346Y-100570777D01*
X118137296Y-100535138D01*
X118125565Y-100496468D01*
X118121000Y-100450112D01*
X118121000Y-99798888D01*
X118125565Y-99752532D01*
X118137296Y-99713862D01*
X118156346Y-99678223D01*
X118181983Y-99646983D01*
X118213223Y-99621346D01*
X118248862Y-99602296D01*
X118287532Y-99590565D01*
X118333888Y-99586000D01*
X119410112Y-99586000D01*
X119456468Y-99590565D01*
X119456468Y-99590565D01*
G37*
G36*
X109959000Y-100588000D02*
G01*
X108957000Y-100588000D01*
X108957000Y-99686000D01*
X109959000Y-99686000D01*
X109959000Y-100588000D01*
X109959000Y-100588000D01*
G37*
G36*
X123421000Y-100588000D02*
G01*
X122419000Y-100588000D01*
X122419000Y-99686000D01*
X123421000Y-99686000D01*
X123421000Y-100588000D01*
X123421000Y-100588000D01*
G37*
G36*
X116817000Y-100585000D02*
G01*
X115815000Y-100585000D01*
X115815000Y-99683000D01*
X116817000Y-99683000D01*
X116817000Y-100585000D01*
X116817000Y-100585000D01*
G37*
G36*
X101327443Y-98045519D02*
G01*
X101393627Y-98052037D01*
X101563466Y-98103557D01*
X101719991Y-98187222D01*
X101755729Y-98216552D01*
X101857186Y-98299814D01*
X101940448Y-98401271D01*
X101969778Y-98437009D01*
X102053443Y-98593534D01*
X102104963Y-98763373D01*
X102122359Y-98940000D01*
X102104963Y-99116627D01*
X102053443Y-99286466D01*
X101969778Y-99442991D01*
X101940448Y-99478729D01*
X101857186Y-99580186D01*
X101755729Y-99663448D01*
X101719991Y-99692778D01*
X101719989Y-99692779D01*
X101589810Y-99762362D01*
X101563466Y-99776443D01*
X101393627Y-99827963D01*
X101327443Y-99834481D01*
X101261260Y-99841000D01*
X100922740Y-99841000D01*
X100856557Y-99834481D01*
X100790373Y-99827963D01*
X100620534Y-99776443D01*
X100594191Y-99762362D01*
X100464011Y-99692779D01*
X100464009Y-99692778D01*
X100428271Y-99663448D01*
X100326814Y-99580186D01*
X100243552Y-99478729D01*
X100214222Y-99442991D01*
X100130557Y-99286466D01*
X100079037Y-99116627D01*
X100061641Y-98940000D01*
X100079037Y-98763373D01*
X100130557Y-98593534D01*
X100214222Y-98437009D01*
X100243552Y-98401271D01*
X100326814Y-98299814D01*
X100428271Y-98216552D01*
X100464009Y-98187222D01*
X100620534Y-98103557D01*
X100790373Y-98052037D01*
X100856557Y-98045519D01*
X100922740Y-98039000D01*
X101261260Y-98039000D01*
X101327443Y-98045519D01*
X101327443Y-98045519D01*
G37*
G36*
X121421000Y-99638000D02*
G01*
X120419000Y-99638000D01*
X120419000Y-98736000D01*
X121421000Y-98736000D01*
X121421000Y-99638000D01*
X121421000Y-99638000D01*
G37*
G36*
X107959000Y-99638000D02*
G01*
X106957000Y-99638000D01*
X106957000Y-98736000D01*
X107959000Y-98736000D01*
X107959000Y-99638000D01*
X107959000Y-99638000D01*
G37*
G36*
X114817000Y-99635000D02*
G01*
X113815000Y-99635000D01*
X113815000Y-98733000D01*
X114817000Y-98733000D01*
X114817000Y-99635000D01*
X114817000Y-99635000D01*
G37*
G36*
X132340604Y-97623347D02*
G01*
X132377144Y-97634432D01*
X132410821Y-97652433D01*
X132440341Y-97676659D01*
X132464567Y-97706179D01*
X132482568Y-97739856D01*
X132493653Y-97776396D01*
X132498000Y-97820538D01*
X132498000Y-98769462D01*
X132493653Y-98813604D01*
X132482568Y-98850144D01*
X132464567Y-98883821D01*
X132440341Y-98913341D01*
X132410821Y-98937567D01*
X132377144Y-98955568D01*
X132340604Y-98966653D01*
X132296462Y-98971000D01*
X130847538Y-98971000D01*
X130803396Y-98966653D01*
X130766856Y-98955568D01*
X130733179Y-98937567D01*
X130703659Y-98913341D01*
X130679433Y-98883821D01*
X130661432Y-98850144D01*
X130650347Y-98813604D01*
X130646000Y-98769462D01*
X130646000Y-97820538D01*
X130650347Y-97776396D01*
X130661432Y-97739856D01*
X130679433Y-97706179D01*
X130703659Y-97676659D01*
X130733179Y-97652433D01*
X130766856Y-97634432D01*
X130803396Y-97623347D01*
X130847538Y-97619000D01*
X132296462Y-97619000D01*
X132340604Y-97623347D01*
X132340604Y-97623347D01*
G37*
G36*
X129292604Y-97623347D02*
G01*
X129329144Y-97634432D01*
X129362821Y-97652433D01*
X129392341Y-97676659D01*
X129416567Y-97706179D01*
X129434568Y-97739856D01*
X129445653Y-97776396D01*
X129450000Y-97820538D01*
X129450000Y-98769462D01*
X129445653Y-98813604D01*
X129434568Y-98850144D01*
X129416567Y-98883821D01*
X129392341Y-98913341D01*
X129362821Y-98937567D01*
X129329144Y-98955568D01*
X129292604Y-98966653D01*
X129248462Y-98971000D01*
X127799538Y-98971000D01*
X127755396Y-98966653D01*
X127718856Y-98955568D01*
X127685179Y-98937567D01*
X127655659Y-98913341D01*
X127631433Y-98883821D01*
X127613432Y-98850144D01*
X127602347Y-98813604D01*
X127598000Y-98769462D01*
X127598000Y-97820538D01*
X127602347Y-97776396D01*
X127613432Y-97739856D01*
X127631433Y-97706179D01*
X127655659Y-97676659D01*
X127685179Y-97652433D01*
X127718856Y-97634432D01*
X127755396Y-97623347D01*
X127799538Y-97619000D01*
X129248462Y-97619000D01*
X129292604Y-97623347D01*
X129292604Y-97623347D01*
G37*
G36*
X112725468Y-97764065D02*
G01*
X112764138Y-97775796D01*
X112799777Y-97794846D01*
X112831017Y-97820483D01*
X112856654Y-97851723D01*
X112875704Y-97887362D01*
X112887435Y-97926032D01*
X112892000Y-97972388D01*
X112892000Y-98623612D01*
X112887435Y-98669968D01*
X112875704Y-98708638D01*
X112856654Y-98744277D01*
X112831017Y-98775517D01*
X112799777Y-98801154D01*
X112764138Y-98820204D01*
X112725468Y-98831935D01*
X112679112Y-98836500D01*
X111602888Y-98836500D01*
X111556532Y-98831935D01*
X111517862Y-98820204D01*
X111482223Y-98801154D01*
X111450983Y-98775517D01*
X111425346Y-98744277D01*
X111406296Y-98708638D01*
X111394565Y-98669968D01*
X111390000Y-98623612D01*
X111390000Y-97972388D01*
X111394565Y-97926032D01*
X111406296Y-97887362D01*
X111425346Y-97851723D01*
X111450983Y-97820483D01*
X111482223Y-97794846D01*
X111517862Y-97775796D01*
X111556532Y-97764065D01*
X111602888Y-97759500D01*
X112679112Y-97759500D01*
X112725468Y-97764065D01*
X112725468Y-97764065D01*
G37*
G36*
X105994468Y-97764065D02*
G01*
X106033138Y-97775796D01*
X106068777Y-97794846D01*
X106100017Y-97820483D01*
X106125654Y-97851723D01*
X106144704Y-97887362D01*
X106156435Y-97926032D01*
X106161000Y-97972388D01*
X106161000Y-98623612D01*
X106156435Y-98669968D01*
X106144704Y-98708638D01*
X106125654Y-98744277D01*
X106100017Y-98775517D01*
X106068777Y-98801154D01*
X106033138Y-98820204D01*
X105994468Y-98831935D01*
X105948112Y-98836500D01*
X104871888Y-98836500D01*
X104825532Y-98831935D01*
X104786862Y-98820204D01*
X104751223Y-98801154D01*
X104719983Y-98775517D01*
X104694346Y-98744277D01*
X104675296Y-98708638D01*
X104663565Y-98669968D01*
X104659000Y-98623612D01*
X104659000Y-97972388D01*
X104663565Y-97926032D01*
X104675296Y-97887362D01*
X104694346Y-97851723D01*
X104719983Y-97820483D01*
X104751223Y-97794846D01*
X104786862Y-97775796D01*
X104825532Y-97764065D01*
X104871888Y-97759500D01*
X105948112Y-97759500D01*
X105994468Y-97764065D01*
X105994468Y-97764065D01*
G37*
G36*
X119456468Y-97715565D02*
G01*
X119495138Y-97727296D01*
X119530777Y-97746346D01*
X119562017Y-97771983D01*
X119587654Y-97803223D01*
X119606704Y-97838862D01*
X119618435Y-97877532D01*
X119623000Y-97923888D01*
X119623000Y-98575112D01*
X119618435Y-98621468D01*
X119606704Y-98660138D01*
X119587654Y-98695777D01*
X119562017Y-98727017D01*
X119530777Y-98752654D01*
X119495138Y-98771704D01*
X119456468Y-98783435D01*
X119410112Y-98788000D01*
X118333888Y-98788000D01*
X118287532Y-98783435D01*
X118248862Y-98771704D01*
X118213223Y-98752654D01*
X118181983Y-98727017D01*
X118156346Y-98695777D01*
X118137296Y-98660138D01*
X118125565Y-98621468D01*
X118121000Y-98575112D01*
X118121000Y-97923888D01*
X118125565Y-97877532D01*
X118137296Y-97838862D01*
X118156346Y-97803223D01*
X118181983Y-97771983D01*
X118213223Y-97746346D01*
X118248862Y-97727296D01*
X118287532Y-97715565D01*
X118333888Y-97711000D01*
X119410112Y-97711000D01*
X119456468Y-97715565D01*
X119456468Y-97715565D01*
G37*
G36*
X123421000Y-98688000D02*
G01*
X122419000Y-98688000D01*
X122419000Y-97786000D01*
X123421000Y-97786000D01*
X123421000Y-98688000D01*
X123421000Y-98688000D01*
G37*
G36*
X109959000Y-98688000D02*
G01*
X108957000Y-98688000D01*
X108957000Y-97786000D01*
X109959000Y-97786000D01*
X109959000Y-98688000D01*
X109959000Y-98688000D01*
G37*
G36*
X116817000Y-98685000D02*
G01*
X115815000Y-98685000D01*
X115815000Y-97783000D01*
X116817000Y-97783000D01*
X116817000Y-98685000D01*
X116817000Y-98685000D01*
G37*
G36*
X101327442Y-95545518D02*
G01*
X101393627Y-95552037D01*
X101563466Y-95603557D01*
X101719991Y-95687222D01*
X101755729Y-95716552D01*
X101857186Y-95799814D01*
X101940448Y-95901271D01*
X101969778Y-95937009D01*
X102053443Y-96093534D01*
X102104963Y-96263373D01*
X102122359Y-96440000D01*
X102104963Y-96616627D01*
X102053443Y-96786466D01*
X101969778Y-96942991D01*
X101940448Y-96978729D01*
X101857186Y-97080186D01*
X101755729Y-97163448D01*
X101719991Y-97192778D01*
X101563466Y-97276443D01*
X101393627Y-97327963D01*
X101327443Y-97334481D01*
X101261260Y-97341000D01*
X100922740Y-97341000D01*
X100856557Y-97334481D01*
X100790373Y-97327963D01*
X100620534Y-97276443D01*
X100464009Y-97192778D01*
X100428271Y-97163448D01*
X100326814Y-97080186D01*
X100243552Y-96978729D01*
X100214222Y-96942991D01*
X100130557Y-96786466D01*
X100079037Y-96616627D01*
X100061641Y-96440000D01*
X100079037Y-96263373D01*
X100130557Y-96093534D01*
X100214222Y-95937009D01*
X100243552Y-95901271D01*
X100326814Y-95799814D01*
X100428271Y-95716552D01*
X100464009Y-95687222D01*
X100620534Y-95603557D01*
X100790373Y-95552037D01*
X100856558Y-95545518D01*
X100922740Y-95539000D01*
X101261260Y-95539000D01*
X101327442Y-95545518D01*
X101327442Y-95545518D01*
G37*
G36*
X101327442Y-93045518D02*
G01*
X101393627Y-93052037D01*
X101563466Y-93103557D01*
X101719991Y-93187222D01*
X101755729Y-93216552D01*
X101857186Y-93299814D01*
X101926921Y-93384788D01*
X101969778Y-93437009D01*
X102053443Y-93593534D01*
X102104963Y-93763373D01*
X102122359Y-93940000D01*
X102104963Y-94116627D01*
X102053443Y-94286466D01*
X101969778Y-94442991D01*
X101940448Y-94478729D01*
X101857186Y-94580186D01*
X101755729Y-94663448D01*
X101719991Y-94692778D01*
X101563466Y-94776443D01*
X101393627Y-94827963D01*
X101327443Y-94834481D01*
X101261260Y-94841000D01*
X100922740Y-94841000D01*
X100856557Y-94834481D01*
X100790373Y-94827963D01*
X100620534Y-94776443D01*
X100464009Y-94692778D01*
X100428271Y-94663448D01*
X100326814Y-94580186D01*
X100243552Y-94478729D01*
X100214222Y-94442991D01*
X100130557Y-94286466D01*
X100079037Y-94116627D01*
X100061641Y-93940000D01*
X100079037Y-93763373D01*
X100130557Y-93593534D01*
X100214222Y-93437009D01*
X100257079Y-93384788D01*
X100326814Y-93299814D01*
X100428271Y-93216552D01*
X100464009Y-93187222D01*
X100620534Y-93103557D01*
X100790373Y-93052037D01*
X100856558Y-93045518D01*
X100922740Y-93039000D01*
X101261260Y-93039000D01*
X101327442Y-93045518D01*
X101327442Y-93045518D01*
G37*
G36*
X114122468Y-92986565D02*
G01*
X114161138Y-92998296D01*
X114196777Y-93017346D01*
X114228017Y-93042983D01*
X114253654Y-93074223D01*
X114272704Y-93109862D01*
X114284435Y-93148532D01*
X114289000Y-93194888D01*
X114289000Y-93846112D01*
X114284435Y-93892468D01*
X114272704Y-93931138D01*
X114253654Y-93966777D01*
X114228017Y-93998017D01*
X114196777Y-94023654D01*
X114161138Y-94042704D01*
X114122468Y-94054435D01*
X114076112Y-94059000D01*
X112999888Y-94059000D01*
X112953532Y-94054435D01*
X112914862Y-94042704D01*
X112879223Y-94023654D01*
X112847983Y-93998017D01*
X112822346Y-93966777D01*
X112803296Y-93931138D01*
X112791565Y-93892468D01*
X112787000Y-93846112D01*
X112787000Y-93194888D01*
X112791565Y-93148532D01*
X112803296Y-93109862D01*
X112822346Y-93074223D01*
X112847983Y-93042983D01*
X112879223Y-93017346D01*
X112914862Y-92998296D01*
X112953532Y-92986565D01*
X112999888Y-92982000D01*
X114076112Y-92982000D01*
X114122468Y-92986565D01*
X114122468Y-92986565D01*
G37*
G36*
X112090468Y-92986565D02*
G01*
X112129138Y-92998296D01*
X112164777Y-93017346D01*
X112196017Y-93042983D01*
X112221654Y-93074223D01*
X112240704Y-93109862D01*
X112252435Y-93148532D01*
X112257000Y-93194888D01*
X112257000Y-93846112D01*
X112252435Y-93892468D01*
X112240704Y-93931138D01*
X112221654Y-93966777D01*
X112196017Y-93998017D01*
X112164777Y-94023654D01*
X112129138Y-94042704D01*
X112090468Y-94054435D01*
X112044112Y-94059000D01*
X110967888Y-94059000D01*
X110921532Y-94054435D01*
X110882862Y-94042704D01*
X110847223Y-94023654D01*
X110815983Y-93998017D01*
X110790346Y-93966777D01*
X110771296Y-93931138D01*
X110759565Y-93892468D01*
X110755000Y-93846112D01*
X110755000Y-93194888D01*
X110759565Y-93148532D01*
X110771296Y-93109862D01*
X110790346Y-93074223D01*
X110815983Y-93042983D01*
X110847223Y-93017346D01*
X110882862Y-92998296D01*
X110921532Y-92986565D01*
X110967888Y-92982000D01*
X112044112Y-92982000D01*
X112090468Y-92986565D01*
X112090468Y-92986565D01*
G37*
G36*
X116154468Y-92986565D02*
G01*
X116193138Y-92998296D01*
X116228777Y-93017346D01*
X116260017Y-93042983D01*
X116285654Y-93074223D01*
X116304704Y-93109862D01*
X116316435Y-93148532D01*
X116321000Y-93194888D01*
X116321000Y-93846112D01*
X116316435Y-93892468D01*
X116304704Y-93931138D01*
X116285654Y-93966777D01*
X116260017Y-93998017D01*
X116228777Y-94023654D01*
X116193138Y-94042704D01*
X116154468Y-94054435D01*
X116108112Y-94059000D01*
X115031888Y-94059000D01*
X114985532Y-94054435D01*
X114946862Y-94042704D01*
X114911223Y-94023654D01*
X114879983Y-93998017D01*
X114854346Y-93966777D01*
X114835296Y-93931138D01*
X114823565Y-93892468D01*
X114819000Y-93846112D01*
X114819000Y-93194888D01*
X114823565Y-93148532D01*
X114835296Y-93109862D01*
X114854346Y-93074223D01*
X114879983Y-93042983D01*
X114911223Y-93017346D01*
X114946862Y-92998296D01*
X114985532Y-92986565D01*
X115031888Y-92982000D01*
X116108112Y-92982000D01*
X116154468Y-92986565D01*
X116154468Y-92986565D01*
G37*
G36*
X128634443Y-91942519D02*
G01*
X128700627Y-91949037D01*
X128870466Y-92000557D01*
X129026991Y-92084222D01*
X129052478Y-92105139D01*
X129164186Y-92196814D01*
X129239675Y-92288799D01*
X129276778Y-92334009D01*
X129360443Y-92490534D01*
X129411963Y-92660373D01*
X129429359Y-92837000D01*
X129411963Y-93013627D01*
X129360443Y-93183466D01*
X129276778Y-93339991D01*
X129247448Y-93375729D01*
X129164186Y-93477186D01*
X129074242Y-93551000D01*
X129026991Y-93589778D01*
X128870466Y-93673443D01*
X128700627Y-93724963D01*
X128634443Y-93731481D01*
X128568260Y-93738000D01*
X128479740Y-93738000D01*
X128413557Y-93731481D01*
X128347373Y-93724963D01*
X128177534Y-93673443D01*
X128021009Y-93589778D01*
X127973758Y-93551000D01*
X127883814Y-93477186D01*
X127800552Y-93375729D01*
X127771222Y-93339991D01*
X127687557Y-93183466D01*
X127636037Y-93013627D01*
X127618641Y-92837000D01*
X127636037Y-92660373D01*
X127687557Y-92490534D01*
X127771222Y-92334009D01*
X127808325Y-92288799D01*
X127883814Y-92196814D01*
X127995522Y-92105139D01*
X128021009Y-92084222D01*
X128177534Y-92000557D01*
X128347373Y-91949037D01*
X128413557Y-91942519D01*
X128479740Y-91936000D01*
X128568260Y-91936000D01*
X128634443Y-91942519D01*
X128634443Y-91942519D01*
G37*
G36*
X126094443Y-91942519D02*
G01*
X126160627Y-91949037D01*
X126330466Y-92000557D01*
X126486991Y-92084222D01*
X126512478Y-92105139D01*
X126624186Y-92196814D01*
X126699675Y-92288799D01*
X126736778Y-92334009D01*
X126820443Y-92490534D01*
X126871963Y-92660373D01*
X126889359Y-92837000D01*
X126871963Y-93013627D01*
X126820443Y-93183466D01*
X126736778Y-93339991D01*
X126707448Y-93375729D01*
X126624186Y-93477186D01*
X126534242Y-93551000D01*
X126486991Y-93589778D01*
X126330466Y-93673443D01*
X126160627Y-93724963D01*
X126094443Y-93731481D01*
X126028260Y-93738000D01*
X125939740Y-93738000D01*
X125873557Y-93731481D01*
X125807373Y-93724963D01*
X125637534Y-93673443D01*
X125481009Y-93589778D01*
X125433758Y-93551000D01*
X125343814Y-93477186D01*
X125260552Y-93375729D01*
X125231222Y-93339991D01*
X125147557Y-93183466D01*
X125096037Y-93013627D01*
X125078641Y-92837000D01*
X125096037Y-92660373D01*
X125147557Y-92490534D01*
X125231222Y-92334009D01*
X125268325Y-92288799D01*
X125343814Y-92196814D01*
X125455522Y-92105139D01*
X125481009Y-92084222D01*
X125637534Y-92000557D01*
X125807373Y-91949037D01*
X125873557Y-91942519D01*
X125939740Y-91936000D01*
X126028260Y-91936000D01*
X126094443Y-91942519D01*
X126094443Y-91942519D01*
G37*
G36*
X123554443Y-91942519D02*
G01*
X123620627Y-91949037D01*
X123790466Y-92000557D01*
X123946991Y-92084222D01*
X123972478Y-92105139D01*
X124084186Y-92196814D01*
X124159675Y-92288799D01*
X124196778Y-92334009D01*
X124280443Y-92490534D01*
X124331963Y-92660373D01*
X124349359Y-92837000D01*
X124331963Y-93013627D01*
X124280443Y-93183466D01*
X124196778Y-93339991D01*
X124167448Y-93375729D01*
X124084186Y-93477186D01*
X123994242Y-93551000D01*
X123946991Y-93589778D01*
X123790466Y-93673443D01*
X123620627Y-93724963D01*
X123554443Y-93731481D01*
X123488260Y-93738000D01*
X123399740Y-93738000D01*
X123333557Y-93731481D01*
X123267373Y-93724963D01*
X123097534Y-93673443D01*
X122941009Y-93589778D01*
X122893758Y-93551000D01*
X122803814Y-93477186D01*
X122720552Y-93375729D01*
X122691222Y-93339991D01*
X122607557Y-93183466D01*
X122556037Y-93013627D01*
X122538641Y-92837000D01*
X122556037Y-92660373D01*
X122607557Y-92490534D01*
X122691222Y-92334009D01*
X122728325Y-92288799D01*
X122803814Y-92196814D01*
X122915522Y-92105139D01*
X122941009Y-92084222D01*
X123097534Y-92000557D01*
X123267373Y-91949037D01*
X123333557Y-91942519D01*
X123399740Y-91936000D01*
X123488260Y-91936000D01*
X123554443Y-91942519D01*
X123554443Y-91942519D01*
G37*
G36*
X105994468Y-92478565D02*
G01*
X106033138Y-92490296D01*
X106068777Y-92509346D01*
X106100017Y-92534983D01*
X106125654Y-92566223D01*
X106144704Y-92601862D01*
X106156435Y-92640532D01*
X106161000Y-92686888D01*
X106161000Y-93338112D01*
X106156435Y-93384468D01*
X106144704Y-93423138D01*
X106125654Y-93458777D01*
X106100017Y-93490017D01*
X106068777Y-93515654D01*
X106033138Y-93534704D01*
X105994468Y-93546435D01*
X105948112Y-93551000D01*
X104871888Y-93551000D01*
X104825532Y-93546435D01*
X104786862Y-93534704D01*
X104751223Y-93515654D01*
X104719983Y-93490017D01*
X104694346Y-93458777D01*
X104675296Y-93423138D01*
X104663565Y-93384468D01*
X104659000Y-93338112D01*
X104659000Y-92686888D01*
X104663565Y-92640532D01*
X104675296Y-92601862D01*
X104694346Y-92566223D01*
X104719983Y-92534983D01*
X104751223Y-92509346D01*
X104786862Y-92490296D01*
X104825532Y-92478565D01*
X104871888Y-92474000D01*
X105948112Y-92474000D01*
X105994468Y-92478565D01*
X105994468Y-92478565D01*
G37*
G36*
X101975600Y-90542989D02*
G01*
X102008652Y-90553015D01*
X102039103Y-90569292D01*
X102065799Y-90591201D01*
X102087708Y-90617897D01*
X102103985Y-90648348D01*
X102114011Y-90681400D01*
X102118000Y-90721903D01*
X102118000Y-92158097D01*
X102114011Y-92198600D01*
X102103985Y-92231652D01*
X102087708Y-92262103D01*
X102065799Y-92288799D01*
X102039103Y-92310708D01*
X102008652Y-92326985D01*
X101975600Y-92337011D01*
X101935097Y-92341000D01*
X100248903Y-92341000D01*
X100208400Y-92337011D01*
X100175348Y-92326985D01*
X100144897Y-92310708D01*
X100118201Y-92288799D01*
X100096292Y-92262103D01*
X100080015Y-92231652D01*
X100069989Y-92198600D01*
X100066000Y-92158097D01*
X100066000Y-90721903D01*
X100069989Y-90681400D01*
X100080015Y-90648348D01*
X100096292Y-90617897D01*
X100118201Y-90591201D01*
X100144897Y-90569292D01*
X100175348Y-90553015D01*
X100208400Y-90542989D01*
X100248903Y-90539000D01*
X101935097Y-90539000D01*
X101975600Y-90542989D01*
X101975600Y-90542989D01*
G37*
G36*
X112090468Y-91111565D02*
G01*
X112129138Y-91123296D01*
X112164777Y-91142346D01*
X112196017Y-91167983D01*
X112221654Y-91199223D01*
X112240704Y-91234862D01*
X112252435Y-91273532D01*
X112257000Y-91319888D01*
X112257000Y-91971112D01*
X112252435Y-92017468D01*
X112240704Y-92056138D01*
X112221654Y-92091777D01*
X112196017Y-92123017D01*
X112164777Y-92148654D01*
X112129138Y-92167704D01*
X112090468Y-92179435D01*
X112044112Y-92184000D01*
X110967888Y-92184000D01*
X110921532Y-92179435D01*
X110882862Y-92167704D01*
X110847223Y-92148654D01*
X110815983Y-92123017D01*
X110790346Y-92091777D01*
X110771296Y-92056138D01*
X110759565Y-92017468D01*
X110755000Y-91971112D01*
X110755000Y-91319888D01*
X110759565Y-91273532D01*
X110771296Y-91234862D01*
X110790346Y-91199223D01*
X110815983Y-91167983D01*
X110847223Y-91142346D01*
X110882862Y-91123296D01*
X110921532Y-91111565D01*
X110967888Y-91107000D01*
X112044112Y-91107000D01*
X112090468Y-91111565D01*
X112090468Y-91111565D01*
G37*
G36*
X116154468Y-91111565D02*
G01*
X116193138Y-91123296D01*
X116228777Y-91142346D01*
X116260017Y-91167983D01*
X116285654Y-91199223D01*
X116304704Y-91234862D01*
X116316435Y-91273532D01*
X116321000Y-91319888D01*
X116321000Y-91971112D01*
X116316435Y-92017468D01*
X116304704Y-92056138D01*
X116285654Y-92091777D01*
X116260017Y-92123017D01*
X116228777Y-92148654D01*
X116193138Y-92167704D01*
X116154468Y-92179435D01*
X116108112Y-92184000D01*
X115031888Y-92184000D01*
X114985532Y-92179435D01*
X114946862Y-92167704D01*
X114911223Y-92148654D01*
X114879983Y-92123017D01*
X114854346Y-92091777D01*
X114835296Y-92056138D01*
X114823565Y-92017468D01*
X114819000Y-91971112D01*
X114819000Y-91319888D01*
X114823565Y-91273532D01*
X114835296Y-91234862D01*
X114854346Y-91199223D01*
X114879983Y-91167983D01*
X114911223Y-91142346D01*
X114946862Y-91123296D01*
X114985532Y-91111565D01*
X115031888Y-91107000D01*
X116108112Y-91107000D01*
X116154468Y-91111565D01*
X116154468Y-91111565D01*
G37*
G36*
X114122468Y-91111565D02*
G01*
X114161138Y-91123296D01*
X114196777Y-91142346D01*
X114228017Y-91167983D01*
X114253654Y-91199223D01*
X114272704Y-91234862D01*
X114284435Y-91273532D01*
X114289000Y-91319888D01*
X114289000Y-91971112D01*
X114284435Y-92017468D01*
X114272704Y-92056138D01*
X114253654Y-92091777D01*
X114228017Y-92123017D01*
X114196777Y-92148654D01*
X114161138Y-92167704D01*
X114122468Y-92179435D01*
X114076112Y-92184000D01*
X112999888Y-92184000D01*
X112953532Y-92179435D01*
X112914862Y-92167704D01*
X112879223Y-92148654D01*
X112847983Y-92123017D01*
X112822346Y-92091777D01*
X112803296Y-92056138D01*
X112791565Y-92017468D01*
X112787000Y-91971112D01*
X112787000Y-91319888D01*
X112791565Y-91273532D01*
X112803296Y-91234862D01*
X112822346Y-91199223D01*
X112847983Y-91167983D01*
X112879223Y-91142346D01*
X112914862Y-91123296D01*
X112953532Y-91111565D01*
X112999888Y-91107000D01*
X114076112Y-91107000D01*
X114122468Y-91111565D01*
X114122468Y-91111565D01*
G37*
G36*
X105994468Y-90603565D02*
G01*
X106033138Y-90615296D01*
X106068777Y-90634346D01*
X106100017Y-90659983D01*
X106125654Y-90691223D01*
X106144704Y-90726862D01*
X106156435Y-90765532D01*
X106161000Y-90811888D01*
X106161000Y-91463112D01*
X106156435Y-91509468D01*
X106144704Y-91548138D01*
X106125654Y-91583777D01*
X106100017Y-91615017D01*
X106068777Y-91640654D01*
X106033138Y-91659704D01*
X105994468Y-91671435D01*
X105948112Y-91676000D01*
X104871888Y-91676000D01*
X104825532Y-91671435D01*
X104786862Y-91659704D01*
X104751223Y-91640654D01*
X104719983Y-91615017D01*
X104694346Y-91583777D01*
X104675296Y-91548138D01*
X104663565Y-91509468D01*
X104659000Y-91463112D01*
X104659000Y-90811888D01*
X104663565Y-90765532D01*
X104675296Y-90726862D01*
X104694346Y-90691223D01*
X104719983Y-90659983D01*
X104751223Y-90634346D01*
X104786862Y-90615296D01*
X104825532Y-90603565D01*
X104871888Y-90599000D01*
X105948112Y-90599000D01*
X105994468Y-90603565D01*
X105994468Y-90603565D01*
G37*
G36*
X123554443Y-89402519D02*
G01*
X123620627Y-89409037D01*
X123790466Y-89460557D01*
X123946991Y-89544222D01*
X123982729Y-89573552D01*
X124084186Y-89656814D01*
X124167448Y-89758271D01*
X124196778Y-89794009D01*
X124280443Y-89950534D01*
X124331963Y-90120373D01*
X124349359Y-90297000D01*
X124331963Y-90473627D01*
X124280443Y-90643466D01*
X124280442Y-90643468D01*
X124273330Y-90656774D01*
X124196778Y-90799991D01*
X124167448Y-90835729D01*
X124084186Y-90937186D01*
X123982729Y-91020448D01*
X123946991Y-91049778D01*
X123790466Y-91133443D01*
X123620627Y-91184963D01*
X123554443Y-91191481D01*
X123488260Y-91198000D01*
X123399740Y-91198000D01*
X123333557Y-91191481D01*
X123267373Y-91184963D01*
X123097534Y-91133443D01*
X122941009Y-91049778D01*
X122905271Y-91020448D01*
X122803814Y-90937186D01*
X122720552Y-90835729D01*
X122691222Y-90799991D01*
X122614670Y-90656774D01*
X122607558Y-90643468D01*
X122607557Y-90643466D01*
X122556037Y-90473627D01*
X122538641Y-90297000D01*
X122556037Y-90120373D01*
X122607557Y-89950534D01*
X122691222Y-89794009D01*
X122720552Y-89758271D01*
X122803814Y-89656814D01*
X122905271Y-89573552D01*
X122941009Y-89544222D01*
X123097534Y-89460557D01*
X123267373Y-89409037D01*
X123333557Y-89402519D01*
X123399740Y-89396000D01*
X123488260Y-89396000D01*
X123554443Y-89402519D01*
X123554443Y-89402519D01*
G37*
G36*
X126094443Y-89402519D02*
G01*
X126160627Y-89409037D01*
X126330466Y-89460557D01*
X126486991Y-89544222D01*
X126522729Y-89573552D01*
X126624186Y-89656814D01*
X126707448Y-89758271D01*
X126736778Y-89794009D01*
X126820443Y-89950534D01*
X126871963Y-90120373D01*
X126889359Y-90297000D01*
X126871963Y-90473627D01*
X126820443Y-90643466D01*
X126820442Y-90643468D01*
X126813330Y-90656774D01*
X126736778Y-90799991D01*
X126707448Y-90835729D01*
X126624186Y-90937186D01*
X126522729Y-91020448D01*
X126486991Y-91049778D01*
X126330466Y-91133443D01*
X126160627Y-91184963D01*
X126094443Y-91191481D01*
X126028260Y-91198000D01*
X125939740Y-91198000D01*
X125873557Y-91191481D01*
X125807373Y-91184963D01*
X125637534Y-91133443D01*
X125481009Y-91049778D01*
X125445271Y-91020448D01*
X125343814Y-90937186D01*
X125260552Y-90835729D01*
X125231222Y-90799991D01*
X125154670Y-90656774D01*
X125147558Y-90643468D01*
X125147557Y-90643466D01*
X125096037Y-90473627D01*
X125078641Y-90297000D01*
X125096037Y-90120373D01*
X125147557Y-89950534D01*
X125231222Y-89794009D01*
X125260552Y-89758271D01*
X125343814Y-89656814D01*
X125445271Y-89573552D01*
X125481009Y-89544222D01*
X125637534Y-89460557D01*
X125807373Y-89409037D01*
X125873557Y-89402519D01*
X125939740Y-89396000D01*
X126028260Y-89396000D01*
X126094443Y-89402519D01*
X126094443Y-89402519D01*
G37*
G36*
X129425000Y-91198000D02*
G01*
X127623000Y-91198000D01*
X127623000Y-89396000D01*
X129425000Y-89396000D01*
X129425000Y-91198000D01*
X129425000Y-91198000D01*
G37*
G36*
X110579000Y-86830000D02*
G01*
X108877000Y-86830000D01*
X108877000Y-85128000D01*
X110579000Y-85128000D01*
X110579000Y-86830000D01*
X110579000Y-86830000D01*
G37*
G36*
X118199000Y-86830000D02*
G01*
X116497000Y-86830000D01*
X116497000Y-85128000D01*
X118199000Y-85128000D01*
X118199000Y-86830000D01*
X118199000Y-86830000D01*
G37*
G36*
X129870468Y-85620565D02*
G01*
X129909138Y-85632296D01*
X129944777Y-85651346D01*
X129976017Y-85676983D01*
X130001654Y-85708223D01*
X130020704Y-85743862D01*
X130032435Y-85782532D01*
X130037000Y-85828888D01*
X130037000Y-86480112D01*
X130032435Y-86526468D01*
X130020704Y-86565138D01*
X130001654Y-86600777D01*
X129976017Y-86632017D01*
X129944777Y-86657654D01*
X129909138Y-86676704D01*
X129870468Y-86688435D01*
X129824112Y-86693000D01*
X128747888Y-86693000D01*
X128701532Y-86688435D01*
X128662862Y-86676704D01*
X128627223Y-86657654D01*
X128595983Y-86632017D01*
X128570346Y-86600777D01*
X128551296Y-86565138D01*
X128539565Y-86526468D01*
X128535000Y-86480112D01*
X128535000Y-85828888D01*
X128539565Y-85782532D01*
X128551296Y-85743862D01*
X128570346Y-85708223D01*
X128595983Y-85676983D01*
X128627223Y-85651346D01*
X128662862Y-85632296D01*
X128701532Y-85620565D01*
X128747888Y-85616000D01*
X129824112Y-85616000D01*
X129870468Y-85620565D01*
X129870468Y-85620565D01*
G37*
G36*
X121234468Y-85620565D02*
G01*
X121273138Y-85632296D01*
X121308777Y-85651346D01*
X121340017Y-85676983D01*
X121365654Y-85708223D01*
X121384704Y-85743862D01*
X121396435Y-85782532D01*
X121401000Y-85828888D01*
X121401000Y-86480112D01*
X121396435Y-86526468D01*
X121384704Y-86565138D01*
X121365654Y-86600777D01*
X121340017Y-86632017D01*
X121308777Y-86657654D01*
X121273138Y-86676704D01*
X121234468Y-86688435D01*
X121188112Y-86693000D01*
X120111888Y-86693000D01*
X120065532Y-86688435D01*
X120026862Y-86676704D01*
X119991223Y-86657654D01*
X119959983Y-86632017D01*
X119934346Y-86600777D01*
X119915296Y-86565138D01*
X119903565Y-86526468D01*
X119899000Y-86480112D01*
X119899000Y-85828888D01*
X119903565Y-85782532D01*
X119915296Y-85743862D01*
X119934346Y-85708223D01*
X119959983Y-85676983D01*
X119991223Y-85651346D01*
X120026862Y-85632296D01*
X120065532Y-85620565D01*
X120111888Y-85616000D01*
X121188112Y-85616000D01*
X121234468Y-85620565D01*
X121234468Y-85620565D01*
G37*
G36*
X101327442Y-84249518D02*
G01*
X101393627Y-84256037D01*
X101563466Y-84307557D01*
X101719991Y-84391222D01*
X101750144Y-84415968D01*
X101857186Y-84503814D01*
X101921761Y-84582500D01*
X101969778Y-84641009D01*
X101996038Y-84690138D01*
X102053428Y-84797505D01*
X102053443Y-84797534D01*
X102104963Y-84967373D01*
X102122359Y-85144000D01*
X102104963Y-85320627D01*
X102053443Y-85490466D01*
X101969778Y-85646991D01*
X101945164Y-85676983D01*
X101857186Y-85784186D01*
X101755729Y-85867448D01*
X101719991Y-85896778D01*
X101563466Y-85980443D01*
X101393627Y-86031963D01*
X101327442Y-86038482D01*
X101261260Y-86045000D01*
X100922740Y-86045000D01*
X100856558Y-86038482D01*
X100790373Y-86031963D01*
X100620534Y-85980443D01*
X100464009Y-85896778D01*
X100428271Y-85867448D01*
X100326814Y-85784186D01*
X100238836Y-85676983D01*
X100214222Y-85646991D01*
X100130557Y-85490466D01*
X100079037Y-85320627D01*
X100061641Y-85144000D01*
X100079037Y-84967373D01*
X100130557Y-84797534D01*
X100130573Y-84797505D01*
X100187962Y-84690138D01*
X100214222Y-84641009D01*
X100262239Y-84582500D01*
X100326814Y-84503814D01*
X100433856Y-84415968D01*
X100464009Y-84391222D01*
X100620534Y-84307557D01*
X100790373Y-84256037D01*
X100856558Y-84249518D01*
X100922740Y-84243000D01*
X101261260Y-84243000D01*
X101327442Y-84249518D01*
X101327442Y-84249518D01*
G37*
G36*
X107264468Y-84096565D02*
G01*
X107303138Y-84108296D01*
X107338777Y-84127346D01*
X107370017Y-84152983D01*
X107395654Y-84184223D01*
X107414704Y-84219862D01*
X107426435Y-84258532D01*
X107431000Y-84304888D01*
X107431000Y-84956112D01*
X107426435Y-85002468D01*
X107414704Y-85041138D01*
X107395654Y-85076777D01*
X107370017Y-85108017D01*
X107338777Y-85133654D01*
X107303138Y-85152704D01*
X107264468Y-85164435D01*
X107218112Y-85169000D01*
X106141888Y-85169000D01*
X106095532Y-85164435D01*
X106056862Y-85152704D01*
X106021223Y-85133654D01*
X105989983Y-85108017D01*
X105964346Y-85076777D01*
X105945296Y-85041138D01*
X105933565Y-85002468D01*
X105929000Y-84956112D01*
X105929000Y-84304888D01*
X105933565Y-84258532D01*
X105945296Y-84219862D01*
X105964346Y-84184223D01*
X105989983Y-84152983D01*
X106021223Y-84127346D01*
X106056862Y-84108296D01*
X106095532Y-84096565D01*
X106141888Y-84092000D01*
X107218112Y-84092000D01*
X107264468Y-84096565D01*
X107264468Y-84096565D01*
G37*
G36*
X127869000Y-84944000D02*
G01*
X125767000Y-84944000D01*
X125767000Y-82442000D01*
X127869000Y-82442000D01*
X127869000Y-84944000D01*
X127869000Y-84944000D01*
G37*
G36*
X124169000Y-84944000D02*
G01*
X122067000Y-84944000D01*
X122067000Y-82442000D01*
X124169000Y-82442000D01*
X124169000Y-84944000D01*
X124169000Y-84944000D01*
G37*
G36*
X121234468Y-83745565D02*
G01*
X121273138Y-83757296D01*
X121308777Y-83776346D01*
X121340017Y-83801983D01*
X121365654Y-83833223D01*
X121384704Y-83868862D01*
X121396435Y-83907532D01*
X121401000Y-83953888D01*
X121401000Y-84605112D01*
X121396435Y-84651468D01*
X121384704Y-84690138D01*
X121365654Y-84725777D01*
X121340017Y-84757017D01*
X121308777Y-84782654D01*
X121273138Y-84801704D01*
X121234468Y-84813435D01*
X121188112Y-84818000D01*
X120111888Y-84818000D01*
X120065532Y-84813435D01*
X120026862Y-84801704D01*
X119991223Y-84782654D01*
X119959983Y-84757017D01*
X119934346Y-84725777D01*
X119915296Y-84690138D01*
X119903565Y-84651468D01*
X119899000Y-84605112D01*
X119899000Y-83953888D01*
X119903565Y-83907532D01*
X119915296Y-83868862D01*
X119934346Y-83833223D01*
X119959983Y-83801983D01*
X119991223Y-83776346D01*
X120026862Y-83757296D01*
X120065532Y-83745565D01*
X120111888Y-83741000D01*
X121188112Y-83741000D01*
X121234468Y-83745565D01*
X121234468Y-83745565D01*
G37*
G36*
X129870468Y-83745565D02*
G01*
X129909138Y-83757296D01*
X129944777Y-83776346D01*
X129976017Y-83801983D01*
X130001654Y-83833223D01*
X130020704Y-83868862D01*
X130032435Y-83907532D01*
X130037000Y-83953888D01*
X130037000Y-84605112D01*
X130032435Y-84651468D01*
X130020704Y-84690138D01*
X130001654Y-84725777D01*
X129976017Y-84757017D01*
X129944777Y-84782654D01*
X129909138Y-84801704D01*
X129870468Y-84813435D01*
X129824112Y-84818000D01*
X128747888Y-84818000D01*
X128701532Y-84813435D01*
X128662862Y-84801704D01*
X128627223Y-84782654D01*
X128595983Y-84757017D01*
X128570346Y-84725777D01*
X128551296Y-84690138D01*
X128539565Y-84651468D01*
X128535000Y-84605112D01*
X128535000Y-83953888D01*
X128539565Y-83907532D01*
X128551296Y-83868862D01*
X128570346Y-83833223D01*
X128595983Y-83801983D01*
X128627223Y-83776346D01*
X128662862Y-83757296D01*
X128701532Y-83745565D01*
X128747888Y-83741000D01*
X129824112Y-83741000D01*
X129870468Y-83745565D01*
X129870468Y-83745565D01*
G37*
G36*
X132156468Y-83510065D02*
G01*
X132195138Y-83521796D01*
X132230777Y-83540846D01*
X132262017Y-83566483D01*
X132287654Y-83597723D01*
X132306704Y-83633362D01*
X132318435Y-83672032D01*
X132323000Y-83718388D01*
X132323000Y-84369612D01*
X132318435Y-84415968D01*
X132306704Y-84454638D01*
X132287654Y-84490277D01*
X132262017Y-84521517D01*
X132230777Y-84547154D01*
X132195138Y-84566204D01*
X132156468Y-84577935D01*
X132110112Y-84582500D01*
X131033888Y-84582500D01*
X130987532Y-84577935D01*
X130948862Y-84566204D01*
X130913223Y-84547154D01*
X130881983Y-84521517D01*
X130856346Y-84490277D01*
X130837296Y-84454638D01*
X130825565Y-84415968D01*
X130821000Y-84369612D01*
X130821000Y-83718388D01*
X130825565Y-83672032D01*
X130837296Y-83633362D01*
X130856346Y-83597723D01*
X130881983Y-83566483D01*
X130913223Y-83540846D01*
X130948862Y-83521796D01*
X130987532Y-83510065D01*
X131033888Y-83505500D01*
X132110112Y-83505500D01*
X132156468Y-83510065D01*
X132156468Y-83510065D01*
G37*
G36*
X118199000Y-84290000D02*
G01*
X116497000Y-84290000D01*
X116497000Y-82588000D01*
X118199000Y-82588000D01*
X118199000Y-84290000D01*
X118199000Y-84290000D01*
G37*
G36*
X110579000Y-84290000D02*
G01*
X108877000Y-84290000D01*
X108877000Y-82588000D01*
X110579000Y-82588000D01*
X110579000Y-84290000D01*
X110579000Y-84290000D01*
G37*
G36*
X101327443Y-81749519D02*
G01*
X101393627Y-81756037D01*
X101563466Y-81807557D01*
X101719991Y-81891222D01*
X101730382Y-81899750D01*
X101857186Y-82003814D01*
X101940448Y-82105271D01*
X101969778Y-82141009D01*
X102053443Y-82297534D01*
X102104963Y-82467373D01*
X102122359Y-82644000D01*
X102104963Y-82820627D01*
X102053443Y-82990466D01*
X101969778Y-83146991D01*
X101940448Y-83182729D01*
X101857186Y-83284186D01*
X101755729Y-83367448D01*
X101719991Y-83396778D01*
X101563466Y-83480443D01*
X101393627Y-83531963D01*
X101327442Y-83538482D01*
X101261260Y-83545000D01*
X100922740Y-83545000D01*
X100856558Y-83538482D01*
X100790373Y-83531963D01*
X100620534Y-83480443D01*
X100464009Y-83396778D01*
X100428271Y-83367448D01*
X100326814Y-83284186D01*
X100243552Y-83182729D01*
X100214222Y-83146991D01*
X100130557Y-82990466D01*
X100079037Y-82820627D01*
X100061641Y-82644000D01*
X100079037Y-82467373D01*
X100130557Y-82297534D01*
X100214222Y-82141009D01*
X100243552Y-82105271D01*
X100326814Y-82003814D01*
X100453618Y-81899750D01*
X100464009Y-81891222D01*
X100620534Y-81807557D01*
X100790373Y-81756037D01*
X100856557Y-81749519D01*
X100922740Y-81743000D01*
X101261260Y-81743000D01*
X101327443Y-81749519D01*
X101327443Y-81749519D01*
G37*
G36*
X107264468Y-82221565D02*
G01*
X107303138Y-82233296D01*
X107338777Y-82252346D01*
X107370017Y-82277983D01*
X107395654Y-82309223D01*
X107414704Y-82344862D01*
X107426435Y-82383532D01*
X107431000Y-82429888D01*
X107431000Y-83081112D01*
X107426435Y-83127468D01*
X107414704Y-83166138D01*
X107395654Y-83201777D01*
X107370017Y-83233017D01*
X107338777Y-83258654D01*
X107303138Y-83277704D01*
X107264468Y-83289435D01*
X107218112Y-83294000D01*
X106141888Y-83294000D01*
X106095532Y-83289435D01*
X106056862Y-83277704D01*
X106021223Y-83258654D01*
X105989983Y-83233017D01*
X105964346Y-83201777D01*
X105945296Y-83166138D01*
X105933565Y-83127468D01*
X105929000Y-83081112D01*
X105929000Y-82429888D01*
X105933565Y-82383532D01*
X105945296Y-82344862D01*
X105964346Y-82309223D01*
X105989983Y-82277983D01*
X106021223Y-82252346D01*
X106056862Y-82233296D01*
X106095532Y-82221565D01*
X106141888Y-82217000D01*
X107218112Y-82217000D01*
X107264468Y-82221565D01*
X107264468Y-82221565D01*
G37*
G36*
X132156468Y-81635065D02*
G01*
X132195138Y-81646796D01*
X132230777Y-81665846D01*
X132262017Y-81691483D01*
X132287654Y-81722723D01*
X132306704Y-81758362D01*
X132318435Y-81797032D01*
X132323000Y-81843388D01*
X132323000Y-82494612D01*
X132318435Y-82540968D01*
X132306704Y-82579638D01*
X132287654Y-82615277D01*
X132262017Y-82646517D01*
X132230777Y-82672154D01*
X132195138Y-82691204D01*
X132156468Y-82702935D01*
X132110112Y-82707500D01*
X131033888Y-82707500D01*
X130987532Y-82702935D01*
X130948862Y-82691204D01*
X130913223Y-82672154D01*
X130881983Y-82646517D01*
X130856346Y-82615277D01*
X130837296Y-82579638D01*
X130825565Y-82540968D01*
X130821000Y-82494612D01*
X130821000Y-81843388D01*
X130825565Y-81797032D01*
X130837296Y-81758362D01*
X130856346Y-81722723D01*
X130881983Y-81691483D01*
X130913223Y-81665846D01*
X130948862Y-81646796D01*
X130987532Y-81635065D01*
X131033888Y-81630500D01*
X132110112Y-81630500D01*
X132156468Y-81635065D01*
X132156468Y-81635065D01*
G37*
G36*
X101313436Y-79248139D02*
G01*
X101393627Y-79256037D01*
X101563466Y-79307557D01*
X101719991Y-79391222D01*
X101755729Y-79420552D01*
X101857186Y-79503814D01*
X101940448Y-79605271D01*
X101969778Y-79641009D01*
X102053443Y-79797534D01*
X102104963Y-79967373D01*
X102122359Y-80144000D01*
X102104963Y-80320627D01*
X102053443Y-80490466D01*
X101969778Y-80646991D01*
X101940448Y-80682729D01*
X101857186Y-80784186D01*
X101755729Y-80867448D01*
X101719991Y-80896778D01*
X101563466Y-80980443D01*
X101393627Y-81031963D01*
X101327443Y-81038481D01*
X101261260Y-81045000D01*
X100922740Y-81045000D01*
X100856557Y-81038481D01*
X100790373Y-81031963D01*
X100620534Y-80980443D01*
X100464009Y-80896778D01*
X100428271Y-80867448D01*
X100326814Y-80784186D01*
X100243552Y-80682729D01*
X100214222Y-80646991D01*
X100130557Y-80490466D01*
X100079037Y-80320627D01*
X100061641Y-80144000D01*
X100079037Y-79967373D01*
X100130557Y-79797534D01*
X100214222Y-79641009D01*
X100243552Y-79605271D01*
X100326814Y-79503814D01*
X100428271Y-79420552D01*
X100464009Y-79391222D01*
X100620534Y-79307557D01*
X100790373Y-79256037D01*
X100870564Y-79248139D01*
X100922740Y-79243000D01*
X101261260Y-79243000D01*
X101313436Y-79248139D01*
X101313436Y-79248139D01*
G37*
G36*
X110579000Y-80988000D02*
G01*
X108877000Y-80988000D01*
X108877000Y-79286000D01*
X110579000Y-79286000D01*
X110579000Y-80988000D01*
X110579000Y-80988000D01*
G37*
G36*
X118199000Y-80988000D02*
G01*
X116497000Y-80988000D01*
X116497000Y-79286000D01*
X118199000Y-79286000D01*
X118199000Y-80988000D01*
X118199000Y-80988000D01*
G37*
G36*
X122056000Y-80361000D02*
G01*
X120004000Y-80361000D01*
X120004000Y-79659000D01*
X122056000Y-79659000D01*
X122056000Y-80361000D01*
X122056000Y-80361000D01*
G37*
G36*
X131456000Y-80361000D02*
G01*
X129404000Y-80361000D01*
X129404000Y-79659000D01*
X131456000Y-79659000D01*
X131456000Y-80361000D01*
X131456000Y-80361000D01*
G37*
G36*
X107264468Y-78254565D02*
G01*
X107303138Y-78266296D01*
X107338777Y-78285346D01*
X107370017Y-78310983D01*
X107395654Y-78342223D01*
X107414704Y-78377862D01*
X107426435Y-78416532D01*
X107431000Y-78462888D01*
X107431000Y-79114112D01*
X107426435Y-79160468D01*
X107414704Y-79199138D01*
X107395654Y-79234777D01*
X107370017Y-79266017D01*
X107338777Y-79291654D01*
X107303138Y-79310704D01*
X107264468Y-79322435D01*
X107218112Y-79327000D01*
X106141888Y-79327000D01*
X106095532Y-79322435D01*
X106056862Y-79310704D01*
X106021223Y-79291654D01*
X105989983Y-79266017D01*
X105964346Y-79234777D01*
X105945296Y-79199138D01*
X105933565Y-79160468D01*
X105929000Y-79114112D01*
X105929000Y-78462888D01*
X105933565Y-78416532D01*
X105945296Y-78377862D01*
X105964346Y-78342223D01*
X105989983Y-78310983D01*
X106021223Y-78285346D01*
X106056862Y-78266296D01*
X106095532Y-78254565D01*
X106141888Y-78250000D01*
X107218112Y-78250000D01*
X107264468Y-78254565D01*
X107264468Y-78254565D01*
G37*
G36*
X122056000Y-79091000D02*
G01*
X120004000Y-79091000D01*
X120004000Y-78389000D01*
X122056000Y-78389000D01*
X122056000Y-79091000D01*
X122056000Y-79091000D01*
G37*
G36*
X131456000Y-79091000D02*
G01*
X129404000Y-79091000D01*
X129404000Y-78389000D01*
X131456000Y-78389000D01*
X131456000Y-79091000D01*
X131456000Y-79091000D01*
G37*
G36*
X101327442Y-76749518D02*
G01*
X101393627Y-76756037D01*
X101563466Y-76807557D01*
X101719991Y-76891222D01*
X101755729Y-76920552D01*
X101857186Y-77003814D01*
X101940448Y-77105271D01*
X101969778Y-77141009D01*
X102053443Y-77297534D01*
X102104963Y-77467373D01*
X102122359Y-77644000D01*
X102104963Y-77820627D01*
X102053443Y-77990466D01*
X101969778Y-78146991D01*
X101940448Y-78182729D01*
X101857186Y-78284186D01*
X101755729Y-78367448D01*
X101719991Y-78396778D01*
X101563466Y-78480443D01*
X101393627Y-78531963D01*
X101327442Y-78538482D01*
X101261260Y-78545000D01*
X100922740Y-78545000D01*
X100856558Y-78538482D01*
X100790373Y-78531963D01*
X100620534Y-78480443D01*
X100464009Y-78396778D01*
X100428271Y-78367448D01*
X100326814Y-78284186D01*
X100243552Y-78182729D01*
X100214222Y-78146991D01*
X100130557Y-77990466D01*
X100079037Y-77820627D01*
X100061641Y-77644000D01*
X100079037Y-77467373D01*
X100130557Y-77297534D01*
X100214222Y-77141009D01*
X100243552Y-77105271D01*
X100326814Y-77003814D01*
X100428271Y-76920552D01*
X100464009Y-76891222D01*
X100620534Y-76807557D01*
X100790373Y-76756037D01*
X100856558Y-76749518D01*
X100922740Y-76743000D01*
X101261260Y-76743000D01*
X101327442Y-76749518D01*
X101327442Y-76749518D01*
G37*
G36*
X118199000Y-78448000D02*
G01*
X116497000Y-78448000D01*
X116497000Y-76746000D01*
X118199000Y-76746000D01*
X118199000Y-78448000D01*
X118199000Y-78448000D01*
G37*
G36*
X110579000Y-78448000D02*
G01*
X108877000Y-78448000D01*
X108877000Y-76746000D01*
X110579000Y-76746000D01*
X110579000Y-78448000D01*
X110579000Y-78448000D01*
G37*
G36*
X122056000Y-77821000D02*
G01*
X120004000Y-77821000D01*
X120004000Y-77119000D01*
X122056000Y-77119000D01*
X122056000Y-77821000D01*
X122056000Y-77821000D01*
G37*
G36*
X131456000Y-77821000D02*
G01*
X129404000Y-77821000D01*
X129404000Y-77119000D01*
X131456000Y-77119000D01*
X131456000Y-77821000D01*
X131456000Y-77821000D01*
G37*
G36*
X107264468Y-76379565D02*
G01*
X107303138Y-76391296D01*
X107338777Y-76410346D01*
X107370017Y-76435983D01*
X107395654Y-76467223D01*
X107414704Y-76502862D01*
X107426435Y-76541532D01*
X107431000Y-76587888D01*
X107431000Y-77239112D01*
X107426435Y-77285468D01*
X107414704Y-77324138D01*
X107395654Y-77359777D01*
X107370017Y-77391017D01*
X107338777Y-77416654D01*
X107303138Y-77435704D01*
X107264468Y-77447435D01*
X107218112Y-77452000D01*
X106141888Y-77452000D01*
X106095532Y-77447435D01*
X106056862Y-77435704D01*
X106021223Y-77416654D01*
X105989983Y-77391017D01*
X105964346Y-77359777D01*
X105945296Y-77324138D01*
X105933565Y-77285468D01*
X105929000Y-77239112D01*
X105929000Y-76587888D01*
X105933565Y-76541532D01*
X105945296Y-76502862D01*
X105964346Y-76467223D01*
X105989983Y-76435983D01*
X106021223Y-76410346D01*
X106056862Y-76391296D01*
X106095532Y-76379565D01*
X106141888Y-76375000D01*
X107218112Y-76375000D01*
X107264468Y-76379565D01*
X107264468Y-76379565D01*
G37*
G36*
X131456000Y-76551000D02*
G01*
X129404000Y-76551000D01*
X129404000Y-75849000D01*
X131456000Y-75849000D01*
X131456000Y-76551000D01*
X131456000Y-76551000D01*
G37*
G36*
X122056000Y-76551000D02*
G01*
X120004000Y-76551000D01*
X120004000Y-75849000D01*
X122056000Y-75849000D01*
X122056000Y-76551000D01*
X122056000Y-76551000D01*
G37*
G36*
X101327443Y-74249519D02*
G01*
X101393627Y-74256037D01*
X101563466Y-74307557D01*
X101719991Y-74391222D01*
X101755729Y-74420552D01*
X101857186Y-74503814D01*
X101940448Y-74605271D01*
X101969778Y-74641009D01*
X102053443Y-74797534D01*
X102104963Y-74967373D01*
X102122359Y-75144000D01*
X102104963Y-75320627D01*
X102053443Y-75490466D01*
X101969778Y-75646991D01*
X101940448Y-75682729D01*
X101857186Y-75784186D01*
X101755729Y-75867448D01*
X101719991Y-75896778D01*
X101563466Y-75980443D01*
X101393627Y-76031963D01*
X101327443Y-76038481D01*
X101261260Y-76045000D01*
X100922740Y-76045000D01*
X100856557Y-76038481D01*
X100790373Y-76031963D01*
X100620534Y-75980443D01*
X100464009Y-75896778D01*
X100428271Y-75867448D01*
X100326814Y-75784186D01*
X100243552Y-75682729D01*
X100214222Y-75646991D01*
X100130557Y-75490466D01*
X100079037Y-75320627D01*
X100061641Y-75144000D01*
X100079037Y-74967373D01*
X100130557Y-74797534D01*
X100214222Y-74641009D01*
X100243552Y-74605271D01*
X100326814Y-74503814D01*
X100428271Y-74420552D01*
X100464009Y-74391222D01*
X100620534Y-74307557D01*
X100790373Y-74256037D01*
X100856557Y-74249519D01*
X100922740Y-74243000D01*
X101261260Y-74243000D01*
X101327443Y-74249519D01*
X101327443Y-74249519D01*
G37*
G36*
X122056000Y-75281000D02*
G01*
X120004000Y-75281000D01*
X120004000Y-74579000D01*
X122056000Y-74579000D01*
X122056000Y-75281000D01*
X122056000Y-75281000D01*
G37*
G36*
X131456000Y-75281000D02*
G01*
X129404000Y-75281000D01*
X129404000Y-74579000D01*
X131456000Y-74579000D01*
X131456000Y-75281000D01*
X131456000Y-75281000D01*
G37*
G36*
X110579000Y-75146000D02*
G01*
X108877000Y-75146000D01*
X108877000Y-73444000D01*
X110579000Y-73444000D01*
X110579000Y-75146000D01*
X110579000Y-75146000D01*
G37*
G36*
X118199000Y-75146000D02*
G01*
X116497000Y-75146000D01*
X116497000Y-73444000D01*
X118199000Y-73444000D01*
X118199000Y-75146000D01*
X118199000Y-75146000D01*
G37*
G36*
X131456000Y-74011000D02*
G01*
X129404000Y-74011000D01*
X129404000Y-73309000D01*
X131456000Y-73309000D01*
X131456000Y-74011000D01*
X131456000Y-74011000D01*
G37*
G36*
X122056000Y-74011000D02*
G01*
X120004000Y-74011000D01*
X120004000Y-73309000D01*
X122056000Y-73309000D01*
X122056000Y-74011000D01*
X122056000Y-74011000D01*
G37*
G36*
X101975600Y-71746989D02*
G01*
X102008652Y-71757015D01*
X102039103Y-71773292D01*
X102065799Y-71795201D01*
X102087708Y-71821897D01*
X102103985Y-71852348D01*
X102114011Y-71885400D01*
X102118000Y-71925903D01*
X102118000Y-73362097D01*
X102114011Y-73402600D01*
X102103985Y-73435652D01*
X102087708Y-73466103D01*
X102065799Y-73492799D01*
X102039103Y-73514708D01*
X102008652Y-73530985D01*
X101975600Y-73541011D01*
X101935097Y-73545000D01*
X100248903Y-73545000D01*
X100208400Y-73541011D01*
X100175348Y-73530985D01*
X100144897Y-73514708D01*
X100118201Y-73492799D01*
X100096292Y-73466103D01*
X100080015Y-73435652D01*
X100069989Y-73402600D01*
X100066000Y-73362097D01*
X100066000Y-71925903D01*
X100069989Y-71885400D01*
X100080015Y-71852348D01*
X100096292Y-71821897D01*
X100118201Y-71795201D01*
X100144897Y-71773292D01*
X100175348Y-71757015D01*
X100208400Y-71746989D01*
X100248903Y-71743000D01*
X101935097Y-71743000D01*
X101975600Y-71746989D01*
X101975600Y-71746989D01*
G37*
G36*
X107264468Y-72412565D02*
G01*
X107303138Y-72424296D01*
X107338777Y-72443346D01*
X107370017Y-72468983D01*
X107395654Y-72500223D01*
X107414704Y-72535862D01*
X107426435Y-72574532D01*
X107431000Y-72620888D01*
X107431000Y-73272112D01*
X107426435Y-73318468D01*
X107414704Y-73357138D01*
X107395654Y-73392777D01*
X107370017Y-73424017D01*
X107338777Y-73449654D01*
X107303138Y-73468704D01*
X107264468Y-73480435D01*
X107218112Y-73485000D01*
X106141888Y-73485000D01*
X106095532Y-73480435D01*
X106056862Y-73468704D01*
X106021223Y-73449654D01*
X105989983Y-73424017D01*
X105964346Y-73392777D01*
X105945296Y-73357138D01*
X105933565Y-73318468D01*
X105929000Y-73272112D01*
X105929000Y-72620888D01*
X105933565Y-72574532D01*
X105945296Y-72535862D01*
X105964346Y-72500223D01*
X105989983Y-72468983D01*
X106021223Y-72443346D01*
X106056862Y-72424296D01*
X106095532Y-72412565D01*
X106141888Y-72408000D01*
X107218112Y-72408000D01*
X107264468Y-72412565D01*
X107264468Y-72412565D01*
G37*
G36*
X122056000Y-72741000D02*
G01*
X120004000Y-72741000D01*
X120004000Y-72039000D01*
X122056000Y-72039000D01*
X122056000Y-72741000D01*
X122056000Y-72741000D01*
G37*
G36*
X131456000Y-72741000D02*
G01*
X129404000Y-72741000D01*
X129404000Y-72039000D01*
X131456000Y-72039000D01*
X131456000Y-72741000D01*
X131456000Y-72741000D01*
G37*
G36*
X118199000Y-72606000D02*
G01*
X116497000Y-72606000D01*
X116497000Y-70904000D01*
X118199000Y-70904000D01*
X118199000Y-72606000D01*
X118199000Y-72606000D01*
G37*
G36*
X110579000Y-72606000D02*
G01*
X108877000Y-72606000D01*
X108877000Y-70904000D01*
X110579000Y-70904000D01*
X110579000Y-72606000D01*
X110579000Y-72606000D01*
G37*
G36*
X107264468Y-70537565D02*
G01*
X107303138Y-70549296D01*
X107338777Y-70568346D01*
X107370017Y-70593983D01*
X107395654Y-70625223D01*
X107414704Y-70660862D01*
X107426435Y-70699532D01*
X107431000Y-70745888D01*
X107431000Y-71397112D01*
X107426435Y-71443468D01*
X107414704Y-71482138D01*
X107395654Y-71517777D01*
X107370017Y-71549017D01*
X107338777Y-71574654D01*
X107303138Y-71593704D01*
X107264468Y-71605435D01*
X107218112Y-71610000D01*
X106141888Y-71610000D01*
X106095532Y-71605435D01*
X106056862Y-71593704D01*
X106021223Y-71574654D01*
X105989983Y-71549017D01*
X105964346Y-71517777D01*
X105945296Y-71482138D01*
X105933565Y-71443468D01*
X105929000Y-71397112D01*
X105929000Y-70745888D01*
X105933565Y-70699532D01*
X105945296Y-70660862D01*
X105964346Y-70625223D01*
X105989983Y-70593983D01*
X106021223Y-70568346D01*
X106056862Y-70549296D01*
X106095532Y-70537565D01*
X106141888Y-70533000D01*
X107218112Y-70533000D01*
X107264468Y-70537565D01*
X107264468Y-70537565D01*
G37*
G36*
X131456000Y-71471000D02*
G01*
X129404000Y-71471000D01*
X129404000Y-70769000D01*
X131456000Y-70769000D01*
X131456000Y-71471000D01*
X131456000Y-71471000D01*
G37*
G36*
X122056000Y-71471000D02*
G01*
X120004000Y-71471000D01*
X120004000Y-70769000D01*
X122056000Y-70769000D01*
X122056000Y-71471000D01*
X122056000Y-71471000D01*
G37*
G36*
X122056000Y-70201000D02*
G01*
X120004000Y-70201000D01*
X120004000Y-69499000D01*
X122056000Y-69499000D01*
X122056000Y-70201000D01*
X122056000Y-70201000D01*
G37*
G36*
X131456000Y-70201000D02*
G01*
X129404000Y-70201000D01*
X129404000Y-69499000D01*
X131456000Y-69499000D01*
X131456000Y-70201000D01*
X131456000Y-70201000D01*
G37*
G36*
X110201934Y-64825671D02*
G01*
X110231877Y-64834754D01*
X110259465Y-64849500D01*
X110283651Y-64869349D01*
X110303500Y-64893535D01*
X110318246Y-64921123D01*
X110327329Y-64951066D01*
X110331000Y-64988340D01*
X110331000Y-69157660D01*
X110327329Y-69194934D01*
X110318246Y-69224877D01*
X110303500Y-69252465D01*
X110283651Y-69276651D01*
X110259465Y-69296500D01*
X110231877Y-69311246D01*
X110201934Y-69320329D01*
X110164660Y-69324000D01*
X107895340Y-69324000D01*
X107858066Y-69320329D01*
X107828123Y-69311246D01*
X107800535Y-69296500D01*
X107776349Y-69276651D01*
X107756500Y-69252465D01*
X107741754Y-69224877D01*
X107732671Y-69194934D01*
X107729000Y-69157660D01*
X107729000Y-64988340D01*
X107732671Y-64951066D01*
X107741754Y-64921123D01*
X107756500Y-64893535D01*
X107776349Y-64869349D01*
X107800535Y-64849500D01*
X107828123Y-64834754D01*
X107858066Y-64825671D01*
X107895340Y-64822000D01*
X110164660Y-64822000D01*
X110201934Y-64825671D01*
X110201934Y-64825671D01*
G37*
G36*
X122056000Y-68931000D02*
G01*
X120004000Y-68931000D01*
X120004000Y-68229000D01*
X122056000Y-68229000D01*
X122056000Y-68931000D01*
X122056000Y-68931000D01*
G37*
G36*
X131456000Y-68931000D02*
G01*
X129404000Y-68931000D01*
X129404000Y-68229000D01*
X131456000Y-68229000D01*
X131456000Y-68931000D01*
X131456000Y-68931000D01*
G37*
G36*
X100124585Y-64899802D02*
G01*
X100274410Y-64929604D01*
X100556674Y-65046521D01*
X100810705Y-65216259D01*
X101026741Y-65432295D01*
X101196479Y-65686326D01*
X101313396Y-65968590D01*
X101373000Y-66268240D01*
X101373000Y-66573760D01*
X101313396Y-66873410D01*
X101196479Y-67155674D01*
X101026741Y-67409705D01*
X100810705Y-67625741D01*
X100556674Y-67795479D01*
X100274410Y-67912396D01*
X100124585Y-67942198D01*
X99974761Y-67972000D01*
X99669239Y-67972000D01*
X99519415Y-67942198D01*
X99369590Y-67912396D01*
X99087326Y-67795479D01*
X98833295Y-67625741D01*
X98617259Y-67409705D01*
X98447521Y-67155674D01*
X98330604Y-66873410D01*
X98271000Y-66573760D01*
X98271000Y-66268240D01*
X98330604Y-65968590D01*
X98447521Y-65686326D01*
X98617259Y-65432295D01*
X98833295Y-65216259D01*
X99087326Y-65046521D01*
X99369590Y-64929604D01*
X99519415Y-64899802D01*
X99669239Y-64870000D01*
X99974761Y-64870000D01*
X100124585Y-64899802D01*
X100124585Y-64899802D01*
G37*
G36*
X116100000Y-66184000D02*
G01*
X114798000Y-66184000D01*
X114798000Y-63882000D01*
X116100000Y-63882000D01*
X116100000Y-66184000D01*
X116100000Y-66184000D01*
G37*
G36*
X120660000Y-66184000D02*
G01*
X119358000Y-66184000D01*
X119358000Y-63882000D01*
X120660000Y-63882000D01*
X120660000Y-66184000D01*
X120660000Y-66184000D01*
G37*
G36*
X101373000Y-62892000D02*
G01*
X98271000Y-62892000D01*
X98271000Y-59790000D01*
X101373000Y-59790000D01*
X101373000Y-62892000D01*
X101373000Y-62892000D01*
G37*
G36*
X120680000Y-61984000D02*
G01*
X114778000Y-61984000D01*
X114778000Y-55482000D01*
X120680000Y-55482000D01*
X120680000Y-61984000D01*
X120680000Y-61984000D01*
G37*
G36*
X110201934Y-57425671D02*
G01*
X110231877Y-57434754D01*
X110259465Y-57449500D01*
X110283651Y-57469349D01*
X110303500Y-57493535D01*
X110318246Y-57521123D01*
X110327329Y-57551066D01*
X110331000Y-57588340D01*
X110331000Y-61757660D01*
X110327329Y-61794934D01*
X110318246Y-61824877D01*
X110303500Y-61852465D01*
X110283651Y-61876651D01*
X110259465Y-61896500D01*
X110231877Y-61911246D01*
X110201934Y-61920329D01*
X110164660Y-61924000D01*
X107895340Y-61924000D01*
X107858066Y-61920329D01*
X107828123Y-61911246D01*
X107800535Y-61896500D01*
X107776349Y-61876651D01*
X107756500Y-61852465D01*
X107741754Y-61824877D01*
X107732671Y-61794934D01*
X107729000Y-61757660D01*
X107729000Y-57588340D01*
X107732671Y-57551066D01*
X107741754Y-57521123D01*
X107756500Y-57493535D01*
X107776349Y-57469349D01*
X107800535Y-57449500D01*
X107828123Y-57434754D01*
X107858066Y-57425671D01*
X107895340Y-57422000D01*
X110164660Y-57422000D01*
X110201934Y-57425671D01*
X110201934Y-57425671D01*
G37*
G36*
X125855997Y-59732051D02*
G01*
X125889652Y-59742261D01*
X125920665Y-59758838D01*
X125947851Y-59781149D01*
X125970162Y-59808335D01*
X125986739Y-59839348D01*
X125996949Y-59873003D01*
X126001000Y-59914138D01*
X126001000Y-61243862D01*
X125996949Y-61284997D01*
X125986739Y-61318652D01*
X125970162Y-61349665D01*
X125947851Y-61376851D01*
X125920665Y-61399162D01*
X125889652Y-61415739D01*
X125855997Y-61425949D01*
X125814862Y-61430000D01*
X122585138Y-61430000D01*
X122544003Y-61425949D01*
X122510348Y-61415739D01*
X122479335Y-61399162D01*
X122452149Y-61376851D01*
X122429838Y-61349665D01*
X122413261Y-61318652D01*
X122403051Y-61284997D01*
X122399000Y-61243862D01*
X122399000Y-59914138D01*
X122403051Y-59873003D01*
X122413261Y-59839348D01*
X122429838Y-59808335D01*
X122452149Y-59781149D01*
X122479335Y-59758838D01*
X122510348Y-59742261D01*
X122544003Y-59732051D01*
X122585138Y-59728000D01*
X125814862Y-59728000D01*
X125855997Y-59732051D01*
X125855997Y-59732051D01*
G37*
G36*
X131455997Y-59732051D02*
G01*
X131489652Y-59742261D01*
X131520665Y-59758838D01*
X131547851Y-59781149D01*
X131570162Y-59808335D01*
X131586739Y-59839348D01*
X131596949Y-59873003D01*
X131601000Y-59914138D01*
X131601000Y-61243862D01*
X131596949Y-61284997D01*
X131586739Y-61318652D01*
X131570162Y-61349665D01*
X131547851Y-61376851D01*
X131520665Y-61399162D01*
X131489652Y-61415739D01*
X131455997Y-61425949D01*
X131414862Y-61430000D01*
X128185138Y-61430000D01*
X128144003Y-61425949D01*
X128110348Y-61415739D01*
X128079335Y-61399162D01*
X128052149Y-61376851D01*
X128029838Y-61349665D01*
X128013261Y-61318652D01*
X128003051Y-61284997D01*
X127999000Y-61243862D01*
X127999000Y-59914138D01*
X128003051Y-59873003D01*
X128013261Y-59839348D01*
X128029838Y-59808335D01*
X128052149Y-59781149D01*
X128079335Y-59758838D01*
X128110348Y-59742261D01*
X128144003Y-59732051D01*
X128185138Y-59728000D01*
X131414862Y-59728000D01*
X131455997Y-59732051D01*
X131455997Y-59732051D01*
G37*
G36*
X105928604Y-55085347D02*
G01*
X105965144Y-55096432D01*
X105998821Y-55114433D01*
X106028341Y-55138659D01*
X106052567Y-55168179D01*
X106070568Y-55201856D01*
X106081653Y-55238396D01*
X106086000Y-55282538D01*
X106086000Y-56731462D01*
X106081653Y-56775604D01*
X106070568Y-56812144D01*
X106052567Y-56845821D01*
X106028341Y-56875341D01*
X105998821Y-56899567D01*
X105965144Y-56917568D01*
X105928604Y-56928653D01*
X105884462Y-56933000D01*
X104935538Y-56933000D01*
X104891396Y-56928653D01*
X104854856Y-56917568D01*
X104821179Y-56899567D01*
X104791659Y-56875341D01*
X104767433Y-56845821D01*
X104749432Y-56812144D01*
X104738347Y-56775604D01*
X104734000Y-56731462D01*
X104734000Y-55282538D01*
X104738347Y-55238396D01*
X104749432Y-55201856D01*
X104767433Y-55168179D01*
X104791659Y-55138659D01*
X104821179Y-55114433D01*
X104854856Y-55096432D01*
X104891396Y-55085347D01*
X104935538Y-55081000D01*
X105884462Y-55081000D01*
X105928604Y-55085347D01*
X105928604Y-55085347D01*
G37*
G36*
X103128604Y-55085347D02*
G01*
X103165144Y-55096432D01*
X103198821Y-55114433D01*
X103228341Y-55138659D01*
X103252567Y-55168179D01*
X103270568Y-55201856D01*
X103281653Y-55238396D01*
X103286000Y-55282538D01*
X103286000Y-56731462D01*
X103281653Y-56775604D01*
X103270568Y-56812144D01*
X103252567Y-56845821D01*
X103228341Y-56875341D01*
X103198821Y-56899567D01*
X103165144Y-56917568D01*
X103128604Y-56928653D01*
X103084462Y-56933000D01*
X102135538Y-56933000D01*
X102091396Y-56928653D01*
X102054856Y-56917568D01*
X102021179Y-56899567D01*
X101991659Y-56875341D01*
X101967433Y-56845821D01*
X101949432Y-56812144D01*
X101938347Y-56775604D01*
X101934000Y-56731462D01*
X101934000Y-55282538D01*
X101938347Y-55238396D01*
X101949432Y-55201856D01*
X101967433Y-55168179D01*
X101991659Y-55138659D01*
X102021179Y-55114433D01*
X102054856Y-55096432D01*
X102091396Y-55085347D01*
X102135538Y-55081000D01*
X103084462Y-55081000D01*
X103128604Y-55085347D01*
X103128604Y-55085347D01*
G37*
G36*
X124656468Y-55006565D02*
G01*
X124695138Y-55018296D01*
X124730777Y-55037346D01*
X124762017Y-55062983D01*
X124787654Y-55094223D01*
X124806704Y-55129862D01*
X124818435Y-55168532D01*
X124823000Y-55214888D01*
X124823000Y-56291112D01*
X124818435Y-56337468D01*
X124806704Y-56376138D01*
X124787654Y-56411777D01*
X124762017Y-56443017D01*
X124730777Y-56468654D01*
X124695138Y-56487704D01*
X124656468Y-56499435D01*
X124610112Y-56504000D01*
X123958888Y-56504000D01*
X123912532Y-56499435D01*
X123873862Y-56487704D01*
X123838223Y-56468654D01*
X123806983Y-56443017D01*
X123781346Y-56411777D01*
X123762296Y-56376138D01*
X123750565Y-56337468D01*
X123746000Y-56291112D01*
X123746000Y-55214888D01*
X123750565Y-55168532D01*
X123762296Y-55129862D01*
X123781346Y-55094223D01*
X123806983Y-55062983D01*
X123838223Y-55037346D01*
X123873862Y-55018296D01*
X123912532Y-55006565D01*
X123958888Y-55002000D01*
X124610112Y-55002000D01*
X124656468Y-55006565D01*
X124656468Y-55006565D01*
G37*
G36*
X126531468Y-55006565D02*
G01*
X126570138Y-55018296D01*
X126605777Y-55037346D01*
X126637017Y-55062983D01*
X126662654Y-55094223D01*
X126681704Y-55129862D01*
X126693435Y-55168532D01*
X126698000Y-55214888D01*
X126698000Y-56291112D01*
X126693435Y-56337468D01*
X126681704Y-56376138D01*
X126662654Y-56411777D01*
X126637017Y-56443017D01*
X126605777Y-56468654D01*
X126570138Y-56487704D01*
X126531468Y-56499435D01*
X126485112Y-56504000D01*
X125833888Y-56504000D01*
X125787532Y-56499435D01*
X125748862Y-56487704D01*
X125713223Y-56468654D01*
X125681983Y-56443017D01*
X125656346Y-56411777D01*
X125637296Y-56376138D01*
X125625565Y-56337468D01*
X125621000Y-56291112D01*
X125621000Y-55214888D01*
X125625565Y-55168532D01*
X125637296Y-55129862D01*
X125656346Y-55094223D01*
X125681983Y-55062983D01*
X125713223Y-55037346D01*
X125748862Y-55018296D01*
X125787532Y-55006565D01*
X125833888Y-55002000D01*
X126485112Y-55002000D01*
X126531468Y-55006565D01*
X126531468Y-55006565D01*
G37*
G36*
X108908468Y-55006565D02*
G01*
X108947138Y-55018296D01*
X108982777Y-55037346D01*
X109014017Y-55062983D01*
X109039654Y-55094223D01*
X109058704Y-55129862D01*
X109070435Y-55168532D01*
X109075000Y-55214888D01*
X109075000Y-56291112D01*
X109070435Y-56337468D01*
X109058704Y-56376138D01*
X109039654Y-56411777D01*
X109014017Y-56443017D01*
X108982777Y-56468654D01*
X108947138Y-56487704D01*
X108908468Y-56499435D01*
X108862112Y-56504000D01*
X108210888Y-56504000D01*
X108164532Y-56499435D01*
X108125862Y-56487704D01*
X108090223Y-56468654D01*
X108058983Y-56443017D01*
X108033346Y-56411777D01*
X108014296Y-56376138D01*
X108002565Y-56337468D01*
X107998000Y-56291112D01*
X107998000Y-55214888D01*
X108002565Y-55168532D01*
X108014296Y-55129862D01*
X108033346Y-55094223D01*
X108058983Y-55062983D01*
X108090223Y-55037346D01*
X108125862Y-55018296D01*
X108164532Y-55006565D01*
X108210888Y-55002000D01*
X108862112Y-55002000D01*
X108908468Y-55006565D01*
X108908468Y-55006565D01*
G37*
G36*
X110783468Y-55006565D02*
G01*
X110822138Y-55018296D01*
X110857777Y-55037346D01*
X110889017Y-55062983D01*
X110914654Y-55094223D01*
X110933704Y-55129862D01*
X110945435Y-55168532D01*
X110950000Y-55214888D01*
X110950000Y-56291112D01*
X110945435Y-56337468D01*
X110933704Y-56376138D01*
X110914654Y-56411777D01*
X110889017Y-56443017D01*
X110857777Y-56468654D01*
X110822138Y-56487704D01*
X110783468Y-56499435D01*
X110737112Y-56504000D01*
X110085888Y-56504000D01*
X110039532Y-56499435D01*
X110000862Y-56487704D01*
X109965223Y-56468654D01*
X109933983Y-56443017D01*
X109908346Y-56411777D01*
X109889296Y-56376138D01*
X109877565Y-56337468D01*
X109873000Y-56291112D01*
X109873000Y-55214888D01*
X109877565Y-55168532D01*
X109889296Y-55129862D01*
X109908346Y-55094223D01*
X109933983Y-55062983D01*
X109965223Y-55037346D01*
X110000862Y-55018296D01*
X110039532Y-55006565D01*
X110085888Y-55002000D01*
X110737112Y-55002000D01*
X110783468Y-55006565D01*
X110783468Y-55006565D01*
G37*
M02*
