M48
; DRILL file {KiCad 5.1.4+dfsg1-1~bpo10+1} date Пт 25 окт 2019 23:31:01
; FORMAT={-:-/ absolute / metric / decimal}
; #@! TF.CreationDate,2019-10-25T23:31:01+10:00
; #@! TF.GenerationSoftware,Kicad,Pcbnew,5.1.4+dfsg1-1~bpo10+1
; #@! TF.FileFunction,Plated,1,2,PTH
FMAT,2
METRIC
T1C0.400
T2C0.800
T3C0.950
T4C1.000
T5C1.520
%
G90
G05
T1
X105.354Y-71.444
X106.422Y-81.091
X106.68Y-75.179
X108.49Y-113.424
X109.731Y-105.079
X112.546Y-109.563
X115.969Y-81.266
X116.113Y-88.521
X122.63Y-74.599
X122.645Y-77.991
X123.442Y-81.878
X124.319Y-80.901
X124.87Y-73.318
X128.079Y-73.564
X128.524Y-96.276
X128.837Y-78.944
X132.008Y-71.66
X132.766Y-73.532
T2
X115.824Y-104.521
X115.824Y-112.141
X118.364Y-104.521
X118.364Y-112.141
X120.904Y-104.521
X120.904Y-112.141
X123.444Y-104.521
X123.444Y-112.141
T3
X101.092Y-91.44
X101.092Y-93.94
X101.092Y-96.44
X101.092Y-98.94
X101.092Y-72.644
X101.092Y-75.144
X101.092Y-77.644
X101.092Y-80.144
X101.092Y-82.644
X101.092Y-85.144
T4
X123.444Y-90.297
X123.444Y-92.837
X125.984Y-90.297
X125.984Y-92.837
X128.524Y-90.297
X128.524Y-92.837
T5
X99.822Y-105.029
X99.822Y-110.109
X99.822Y-61.341
X99.822Y-66.421
T0
M30
