G04 #@! TF.GenerationSoftware,KiCad,Pcbnew,5.1.4+dfsg1-1~bpo10+1*
G04 #@! TF.CreationDate,2019-10-25T23:34:54+10:00*
G04 #@! TF.ProjectId,interface,696e7465-7266-4616-9365-2e6b69636164,rev?*
G04 #@! TF.SameCoordinates,Original*
G04 #@! TF.FileFunction,Legend,Bot*
G04 #@! TF.FilePolarity,Positive*
%FSLAX46Y46*%
G04 Gerber Fmt 4.6, Leading zero omitted, Abs format (unit mm)*
G04 Created by KiCad (PCBNEW 5.1.4+dfsg1-1~bpo10+1) date 2019-10-25 23:34:54*
%MOMM*%
%LPD*%
G04 APERTURE LIST*
%ADD10C,0.010000*%
G04 APERTURE END LIST*
D10*
G36*
X114829760Y-70125707D02*
G01*
X114957937Y-70093438D01*
X115073211Y-70036413D01*
X115172811Y-69956828D01*
X115253965Y-69856875D01*
X115313902Y-69738749D01*
X115348866Y-69610525D01*
X115356656Y-69481031D01*
X115336880Y-69356071D01*
X115292012Y-69239101D01*
X115224528Y-69133578D01*
X115136902Y-69042958D01*
X115031607Y-68970697D01*
X114911118Y-68920252D01*
X114842865Y-68903712D01*
X114783622Y-68893698D01*
X114737954Y-68889741D01*
X114694072Y-68892170D01*
X114640186Y-68901316D01*
X114596123Y-68910602D01*
X114471752Y-68952553D01*
X114360353Y-69020617D01*
X114264435Y-69112731D01*
X114186504Y-69226830D01*
X114167933Y-69263095D01*
X114146049Y-69311513D01*
X114132325Y-69352172D01*
X114124915Y-69394951D01*
X114121973Y-69449728D01*
X114121603Y-69511083D01*
X114127043Y-69623394D01*
X114144904Y-69715629D01*
X114178441Y-69796342D01*
X114230910Y-69874086D01*
X114282231Y-69933018D01*
X114377946Y-70020645D01*
X114477922Y-70081132D01*
X114588093Y-70117347D01*
X114691451Y-70131027D01*
X114829760Y-70125707D01*
X114829760Y-70125707D01*
G37*
X114829760Y-70125707D02*
X114957937Y-70093438D01*
X115073211Y-70036413D01*
X115172811Y-69956828D01*
X115253965Y-69856875D01*
X115313902Y-69738749D01*
X115348866Y-69610525D01*
X115356656Y-69481031D01*
X115336880Y-69356071D01*
X115292012Y-69239101D01*
X115224528Y-69133578D01*
X115136902Y-69042958D01*
X115031607Y-68970697D01*
X114911118Y-68920252D01*
X114842865Y-68903712D01*
X114783622Y-68893698D01*
X114737954Y-68889741D01*
X114694072Y-68892170D01*
X114640186Y-68901316D01*
X114596123Y-68910602D01*
X114471752Y-68952553D01*
X114360353Y-69020617D01*
X114264435Y-69112731D01*
X114186504Y-69226830D01*
X114167933Y-69263095D01*
X114146049Y-69311513D01*
X114132325Y-69352172D01*
X114124915Y-69394951D01*
X114121973Y-69449728D01*
X114121603Y-69511083D01*
X114127043Y-69623394D01*
X114144904Y-69715629D01*
X114178441Y-69796342D01*
X114230910Y-69874086D01*
X114282231Y-69933018D01*
X114377946Y-70020645D01*
X114477922Y-70081132D01*
X114588093Y-70117347D01*
X114691451Y-70131027D01*
X114829760Y-70125707D01*
G36*
X126092474Y-66869633D02*
G01*
X126092500Y-66557539D01*
X126092535Y-66274038D01*
X126092631Y-66017664D01*
X126092841Y-65786952D01*
X126093216Y-65580435D01*
X126093809Y-65396649D01*
X126094670Y-65234126D01*
X126095853Y-65091402D01*
X126097408Y-64967010D01*
X126099389Y-64859485D01*
X126101846Y-64767360D01*
X126104833Y-64689170D01*
X126108400Y-64623449D01*
X126112599Y-64568731D01*
X126117484Y-64523551D01*
X126123104Y-64486442D01*
X126129513Y-64455938D01*
X126136763Y-64430574D01*
X126144905Y-64408885D01*
X126153990Y-64389403D01*
X126164073Y-64370663D01*
X126175203Y-64351200D01*
X126182117Y-64339076D01*
X126227736Y-64258243D01*
X125085231Y-64258243D01*
X125085231Y-64385994D01*
X125084257Y-64443727D01*
X125081658Y-64487881D01*
X125077918Y-64511554D01*
X125076265Y-64513746D01*
X125061058Y-64504581D01*
X125030817Y-64480825D01*
X125000595Y-64455031D01*
X124927924Y-64400799D01*
X124835423Y-64346208D01*
X124732839Y-64296275D01*
X124629919Y-64256013D01*
X124588843Y-64243167D01*
X124497649Y-64223775D01*
X124387343Y-64210513D01*
X124268329Y-64203798D01*
X124151005Y-64204047D01*
X124045773Y-64211676D01*
X123995586Y-64219408D01*
X123811730Y-64270082D01*
X123642245Y-64346933D01*
X123488046Y-64449263D01*
X123350044Y-64576372D01*
X123229151Y-64727560D01*
X123140214Y-64875073D01*
X123067165Y-65030517D01*
X123011248Y-65189414D01*
X122971311Y-65357157D01*
X122946207Y-65539139D01*
X122934786Y-65740755D01*
X122933819Y-65843864D01*
X122936607Y-65919455D01*
X124040460Y-65919455D01*
X124040737Y-65795548D01*
X124044615Y-65678801D01*
X124052154Y-65576180D01*
X124063411Y-65494651D01*
X124066851Y-65478221D01*
X124109189Y-65335388D01*
X124164652Y-65219527D01*
X124233703Y-65130346D01*
X124316804Y-65067556D01*
X124414418Y-65030863D01*
X124527010Y-65019979D01*
X124655041Y-65034610D01*
X124739551Y-65055542D01*
X124804978Y-65079759D01*
X124877043Y-65114172D01*
X124931178Y-65145728D01*
X125025113Y-65207460D01*
X125025113Y-66738780D01*
X124935369Y-66796784D01*
X124830823Y-66851267D01*
X124718742Y-66886749D01*
X124605411Y-66902624D01*
X124497117Y-66898288D01*
X124400145Y-66873135D01*
X124357603Y-66852407D01*
X124280485Y-66795162D01*
X124215305Y-66719578D01*
X124160513Y-66622892D01*
X124114561Y-66502342D01*
X124075897Y-66355167D01*
X124074191Y-66347355D01*
X124060650Y-66264473D01*
X124050476Y-66160884D01*
X124043726Y-66043556D01*
X124040460Y-65919455D01*
X122936607Y-65919455D01*
X122944272Y-66127199D01*
X122973488Y-66387927D01*
X123021396Y-66625877D01*
X123087928Y-66840876D01*
X123173015Y-67032750D01*
X123276587Y-67201326D01*
X123398575Y-67346432D01*
X123538911Y-67467895D01*
X123599041Y-67509102D01*
X123733441Y-67583855D01*
X123870957Y-67636591D01*
X124017524Y-67668757D01*
X124179073Y-67681797D01*
X124302231Y-67680405D01*
X124474848Y-67665805D01*
X124624751Y-67636761D01*
X124756278Y-67591937D01*
X124873765Y-67530000D01*
X124938823Y-67484451D01*
X124977920Y-67455275D01*
X125006798Y-67435344D01*
X125017728Y-67429485D01*
X125019878Y-67443903D01*
X125021596Y-67484713D01*
X125022900Y-67548253D01*
X125023805Y-67630860D01*
X125024328Y-67728870D01*
X125024487Y-67838621D01*
X125024298Y-67956449D01*
X125023778Y-68078693D01*
X125022944Y-68201687D01*
X125021812Y-68321770D01*
X125020399Y-68435279D01*
X125018723Y-68538550D01*
X125016800Y-68627920D01*
X125014646Y-68699727D01*
X125012280Y-68750307D01*
X125011625Y-68759604D01*
X125001537Y-68853353D01*
X124986145Y-68926776D01*
X124962528Y-68989511D01*
X124927767Y-69051198D01*
X124919423Y-69063953D01*
X124886895Y-69112799D01*
X126092213Y-69112799D01*
X126092474Y-66869633D01*
X126092474Y-66869633D01*
G37*
X126092474Y-66869633D02*
X126092500Y-66557539D01*
X126092535Y-66274038D01*
X126092631Y-66017664D01*
X126092841Y-65786952D01*
X126093216Y-65580435D01*
X126093809Y-65396649D01*
X126094670Y-65234126D01*
X126095853Y-65091402D01*
X126097408Y-64967010D01*
X126099389Y-64859485D01*
X126101846Y-64767360D01*
X126104833Y-64689170D01*
X126108400Y-64623449D01*
X126112599Y-64568731D01*
X126117484Y-64523551D01*
X126123104Y-64486442D01*
X126129513Y-64455938D01*
X126136763Y-64430574D01*
X126144905Y-64408885D01*
X126153990Y-64389403D01*
X126164073Y-64370663D01*
X126175203Y-64351200D01*
X126182117Y-64339076D01*
X126227736Y-64258243D01*
X125085231Y-64258243D01*
X125085231Y-64385994D01*
X125084257Y-64443727D01*
X125081658Y-64487881D01*
X125077918Y-64511554D01*
X125076265Y-64513746D01*
X125061058Y-64504581D01*
X125030817Y-64480825D01*
X125000595Y-64455031D01*
X124927924Y-64400799D01*
X124835423Y-64346208D01*
X124732839Y-64296275D01*
X124629919Y-64256013D01*
X124588843Y-64243167D01*
X124497649Y-64223775D01*
X124387343Y-64210513D01*
X124268329Y-64203798D01*
X124151005Y-64204047D01*
X124045773Y-64211676D01*
X123995586Y-64219408D01*
X123811730Y-64270082D01*
X123642245Y-64346933D01*
X123488046Y-64449263D01*
X123350044Y-64576372D01*
X123229151Y-64727560D01*
X123140214Y-64875073D01*
X123067165Y-65030517D01*
X123011248Y-65189414D01*
X122971311Y-65357157D01*
X122946207Y-65539139D01*
X122934786Y-65740755D01*
X122933819Y-65843864D01*
X122936607Y-65919455D01*
X124040460Y-65919455D01*
X124040737Y-65795548D01*
X124044615Y-65678801D01*
X124052154Y-65576180D01*
X124063411Y-65494651D01*
X124066851Y-65478221D01*
X124109189Y-65335388D01*
X124164652Y-65219527D01*
X124233703Y-65130346D01*
X124316804Y-65067556D01*
X124414418Y-65030863D01*
X124527010Y-65019979D01*
X124655041Y-65034610D01*
X124739551Y-65055542D01*
X124804978Y-65079759D01*
X124877043Y-65114172D01*
X124931178Y-65145728D01*
X125025113Y-65207460D01*
X125025113Y-66738780D01*
X124935369Y-66796784D01*
X124830823Y-66851267D01*
X124718742Y-66886749D01*
X124605411Y-66902624D01*
X124497117Y-66898288D01*
X124400145Y-66873135D01*
X124357603Y-66852407D01*
X124280485Y-66795162D01*
X124215305Y-66719578D01*
X124160513Y-66622892D01*
X124114561Y-66502342D01*
X124075897Y-66355167D01*
X124074191Y-66347355D01*
X124060650Y-66264473D01*
X124050476Y-66160884D01*
X124043726Y-66043556D01*
X124040460Y-65919455D01*
X122936607Y-65919455D01*
X122944272Y-66127199D01*
X122973488Y-66387927D01*
X123021396Y-66625877D01*
X123087928Y-66840876D01*
X123173015Y-67032750D01*
X123276587Y-67201326D01*
X123398575Y-67346432D01*
X123538911Y-67467895D01*
X123599041Y-67509102D01*
X123733441Y-67583855D01*
X123870957Y-67636591D01*
X124017524Y-67668757D01*
X124179073Y-67681797D01*
X124302231Y-67680405D01*
X124474848Y-67665805D01*
X124624751Y-67636761D01*
X124756278Y-67591937D01*
X124873765Y-67530000D01*
X124938823Y-67484451D01*
X124977920Y-67455275D01*
X125006798Y-67435344D01*
X125017728Y-67429485D01*
X125019878Y-67443903D01*
X125021596Y-67484713D01*
X125022900Y-67548253D01*
X125023805Y-67630860D01*
X125024328Y-67728870D01*
X125024487Y-67838621D01*
X125024298Y-67956449D01*
X125023778Y-68078693D01*
X125022944Y-68201687D01*
X125021812Y-68321770D01*
X125020399Y-68435279D01*
X125018723Y-68538550D01*
X125016800Y-68627920D01*
X125014646Y-68699727D01*
X125012280Y-68750307D01*
X125011625Y-68759604D01*
X125001537Y-68853353D01*
X124986145Y-68926776D01*
X124962528Y-68989511D01*
X124927767Y-69051198D01*
X124919423Y-69063953D01*
X124886895Y-69112799D01*
X126092213Y-69112799D01*
X126092474Y-66869633D01*
G36*
X121415492Y-67676029D02*
G01*
X121617750Y-67649382D01*
X121797836Y-67604602D01*
X121956911Y-67541331D01*
X122096138Y-67459213D01*
X122199465Y-67374591D01*
X122291116Y-67275892D01*
X122362666Y-67169687D01*
X122419786Y-67046908D01*
X122440388Y-66989567D01*
X122457508Y-66937669D01*
X122472422Y-66889545D01*
X122485302Y-66842754D01*
X122496320Y-66794856D01*
X122505650Y-66743413D01*
X122513463Y-66685984D01*
X122519932Y-66620130D01*
X122525230Y-66543411D01*
X122529530Y-66453388D01*
X122533003Y-66347620D01*
X122535823Y-66223669D01*
X122538162Y-66079094D01*
X122540193Y-65911456D01*
X122542088Y-65718315D01*
X122543755Y-65528243D01*
X122545521Y-65320297D01*
X122547126Y-65140203D01*
X122548737Y-64985756D01*
X122550520Y-64854751D01*
X122552643Y-64744983D01*
X122555272Y-64654247D01*
X122558576Y-64580338D01*
X122562719Y-64521050D01*
X122567870Y-64474178D01*
X122574196Y-64437517D01*
X122581863Y-64408863D01*
X122591038Y-64386010D01*
X122601888Y-64366752D01*
X122614581Y-64348885D01*
X122629283Y-64330204D01*
X122635009Y-64322971D01*
X122656070Y-64292564D01*
X122665438Y-64271858D01*
X122665468Y-64271246D01*
X122650986Y-64268318D01*
X122609733Y-64265622D01*
X122544997Y-64263231D01*
X122460064Y-64261222D01*
X122358223Y-64259671D01*
X122242760Y-64258654D01*
X122116964Y-64258247D01*
X122102443Y-64258243D01*
X121539419Y-64258243D01*
X121535076Y-64386142D01*
X121530734Y-64514042D01*
X121448071Y-64446159D01*
X121318490Y-64356274D01*
X121172172Y-64283459D01*
X121057056Y-64243213D01*
X120965098Y-64223658D01*
X120854126Y-64210353D01*
X120734615Y-64203715D01*
X120617037Y-64204157D01*
X120511867Y-64212095D01*
X120463633Y-64219702D01*
X120277218Y-64270110D01*
X120108900Y-64343126D01*
X119959896Y-64437663D01*
X119831424Y-64552635D01*
X119724699Y-64686954D01*
X119640940Y-64839533D01*
X119581860Y-65007406D01*
X119565438Y-65082739D01*
X119555307Y-65165549D01*
X119550476Y-65265185D01*
X119549817Y-65310314D01*
X119549904Y-65314554D01*
X120561656Y-65314554D01*
X120574029Y-65214633D01*
X120611556Y-65129657D01*
X120676085Y-65055583D01*
X120682818Y-65049708D01*
X120747115Y-65003341D01*
X120815958Y-64973276D01*
X120896814Y-64957405D01*
X120997149Y-64953620D01*
X121021257Y-64954160D01*
X121092909Y-64957691D01*
X121146203Y-64964902D01*
X121192823Y-64978434D01*
X121244452Y-65000928D01*
X121258620Y-65007822D01*
X121339368Y-65055522D01*
X121401701Y-65112281D01*
X121418659Y-65132569D01*
X121478130Y-65207806D01*
X121478130Y-65468587D01*
X121477417Y-65573294D01*
X121475167Y-65650448D01*
X121471215Y-65702522D01*
X121465396Y-65731991D01*
X121459958Y-65740600D01*
X121438755Y-65744812D01*
X121393778Y-65748303D01*
X121331305Y-65750744D01*
X121257619Y-65751806D01*
X121245786Y-65751826D01*
X121084990Y-65744831D01*
X120948299Y-65723307D01*
X120833065Y-65686431D01*
X120736641Y-65633380D01*
X120663509Y-65570873D01*
X120604201Y-65493805D01*
X120571285Y-65409865D01*
X120561656Y-65314554D01*
X119549904Y-65314554D01*
X119552391Y-65435136D01*
X119563501Y-65540179D01*
X119585129Y-65635002D01*
X119619261Y-65729163D01*
X119651209Y-65798889D01*
X119729252Y-65925764D01*
X119833227Y-66042958D01*
X119959970Y-66148338D01*
X120106318Y-66239772D01*
X120269106Y-66315126D01*
X120445171Y-66372268D01*
X120531266Y-66392158D01*
X120712574Y-66421587D01*
X120910208Y-66441003D01*
X121111850Y-66449498D01*
X121280346Y-66447325D01*
X121495875Y-66438300D01*
X121485997Y-66516822D01*
X121460311Y-66648830D01*
X121418861Y-66756298D01*
X121360501Y-66840048D01*
X121284083Y-66900905D01*
X121188461Y-66939692D01*
X121072490Y-66957234D01*
X120935021Y-66954353D01*
X120884462Y-66949026D01*
X120696486Y-66915518D01*
X120514338Y-66860887D01*
X120388485Y-66810294D01*
X120328361Y-66784499D01*
X120277194Y-66763769D01*
X120242111Y-66750929D01*
X120231875Y-66748203D01*
X120218902Y-66760290D01*
X120196643Y-66798858D01*
X120164890Y-66864345D01*
X120123432Y-66957184D01*
X120072061Y-67077813D01*
X120063277Y-67098835D01*
X120023261Y-67195115D01*
X119987341Y-67282115D01*
X119957069Y-67356031D01*
X119933996Y-67413059D01*
X119919674Y-67449393D01*
X119915538Y-67461161D01*
X119928850Y-67467491D01*
X119963833Y-67474517D01*
X120001474Y-67479415D01*
X120041623Y-67485748D01*
X120105246Y-67498323D01*
X120186697Y-67515908D01*
X120280336Y-67537270D01*
X120380520Y-67561175D01*
X120418545Y-67570525D01*
X120558419Y-67604592D01*
X120675131Y-67631302D01*
X120774435Y-67651509D01*
X120862085Y-67666066D01*
X120943836Y-67675827D01*
X121025441Y-67681644D01*
X121112656Y-67684370D01*
X121189898Y-67684900D01*
X121415492Y-67676029D01*
X121415492Y-67676029D01*
G37*
X121415492Y-67676029D02*
X121617750Y-67649382D01*
X121797836Y-67604602D01*
X121956911Y-67541331D01*
X122096138Y-67459213D01*
X122199465Y-67374591D01*
X122291116Y-67275892D01*
X122362666Y-67169687D01*
X122419786Y-67046908D01*
X122440388Y-66989567D01*
X122457508Y-66937669D01*
X122472422Y-66889545D01*
X122485302Y-66842754D01*
X122496320Y-66794856D01*
X122505650Y-66743413D01*
X122513463Y-66685984D01*
X122519932Y-66620130D01*
X122525230Y-66543411D01*
X122529530Y-66453388D01*
X122533003Y-66347620D01*
X122535823Y-66223669D01*
X122538162Y-66079094D01*
X122540193Y-65911456D01*
X122542088Y-65718315D01*
X122543755Y-65528243D01*
X122545521Y-65320297D01*
X122547126Y-65140203D01*
X122548737Y-64985756D01*
X122550520Y-64854751D01*
X122552643Y-64744983D01*
X122555272Y-64654247D01*
X122558576Y-64580338D01*
X122562719Y-64521050D01*
X122567870Y-64474178D01*
X122574196Y-64437517D01*
X122581863Y-64408863D01*
X122591038Y-64386010D01*
X122601888Y-64366752D01*
X122614581Y-64348885D01*
X122629283Y-64330204D01*
X122635009Y-64322971D01*
X122656070Y-64292564D01*
X122665438Y-64271858D01*
X122665468Y-64271246D01*
X122650986Y-64268318D01*
X122609733Y-64265622D01*
X122544997Y-64263231D01*
X122460064Y-64261222D01*
X122358223Y-64259671D01*
X122242760Y-64258654D01*
X122116964Y-64258247D01*
X122102443Y-64258243D01*
X121539419Y-64258243D01*
X121535076Y-64386142D01*
X121530734Y-64514042D01*
X121448071Y-64446159D01*
X121318490Y-64356274D01*
X121172172Y-64283459D01*
X121057056Y-64243213D01*
X120965098Y-64223658D01*
X120854126Y-64210353D01*
X120734615Y-64203715D01*
X120617037Y-64204157D01*
X120511867Y-64212095D01*
X120463633Y-64219702D01*
X120277218Y-64270110D01*
X120108900Y-64343126D01*
X119959896Y-64437663D01*
X119831424Y-64552635D01*
X119724699Y-64686954D01*
X119640940Y-64839533D01*
X119581860Y-65007406D01*
X119565438Y-65082739D01*
X119555307Y-65165549D01*
X119550476Y-65265185D01*
X119549817Y-65310314D01*
X119549904Y-65314554D01*
X120561656Y-65314554D01*
X120574029Y-65214633D01*
X120611556Y-65129657D01*
X120676085Y-65055583D01*
X120682818Y-65049708D01*
X120747115Y-65003341D01*
X120815958Y-64973276D01*
X120896814Y-64957405D01*
X120997149Y-64953620D01*
X121021257Y-64954160D01*
X121092909Y-64957691D01*
X121146203Y-64964902D01*
X121192823Y-64978434D01*
X121244452Y-65000928D01*
X121258620Y-65007822D01*
X121339368Y-65055522D01*
X121401701Y-65112281D01*
X121418659Y-65132569D01*
X121478130Y-65207806D01*
X121478130Y-65468587D01*
X121477417Y-65573294D01*
X121475167Y-65650448D01*
X121471215Y-65702522D01*
X121465396Y-65731991D01*
X121459958Y-65740600D01*
X121438755Y-65744812D01*
X121393778Y-65748303D01*
X121331305Y-65750744D01*
X121257619Y-65751806D01*
X121245786Y-65751826D01*
X121084990Y-65744831D01*
X120948299Y-65723307D01*
X120833065Y-65686431D01*
X120736641Y-65633380D01*
X120663509Y-65570873D01*
X120604201Y-65493805D01*
X120571285Y-65409865D01*
X120561656Y-65314554D01*
X119549904Y-65314554D01*
X119552391Y-65435136D01*
X119563501Y-65540179D01*
X119585129Y-65635002D01*
X119619261Y-65729163D01*
X119651209Y-65798889D01*
X119729252Y-65925764D01*
X119833227Y-66042958D01*
X119959970Y-66148338D01*
X120106318Y-66239772D01*
X120269106Y-66315126D01*
X120445171Y-66372268D01*
X120531266Y-66392158D01*
X120712574Y-66421587D01*
X120910208Y-66441003D01*
X121111850Y-66449498D01*
X121280346Y-66447325D01*
X121495875Y-66438300D01*
X121485997Y-66516822D01*
X121460311Y-66648830D01*
X121418861Y-66756298D01*
X121360501Y-66840048D01*
X121284083Y-66900905D01*
X121188461Y-66939692D01*
X121072490Y-66957234D01*
X120935021Y-66954353D01*
X120884462Y-66949026D01*
X120696486Y-66915518D01*
X120514338Y-66860887D01*
X120388485Y-66810294D01*
X120328361Y-66784499D01*
X120277194Y-66763769D01*
X120242111Y-66750929D01*
X120231875Y-66748203D01*
X120218902Y-66760290D01*
X120196643Y-66798858D01*
X120164890Y-66864345D01*
X120123432Y-66957184D01*
X120072061Y-67077813D01*
X120063277Y-67098835D01*
X120023261Y-67195115D01*
X119987341Y-67282115D01*
X119957069Y-67356031D01*
X119933996Y-67413059D01*
X119919674Y-67449393D01*
X119915538Y-67461161D01*
X119928850Y-67467491D01*
X119963833Y-67474517D01*
X120001474Y-67479415D01*
X120041623Y-67485748D01*
X120105246Y-67498323D01*
X120186697Y-67515908D01*
X120280336Y-67537270D01*
X120380520Y-67561175D01*
X120418545Y-67570525D01*
X120558419Y-67604592D01*
X120675131Y-67631302D01*
X120774435Y-67651509D01*
X120862085Y-67666066D01*
X120943836Y-67675827D01*
X121025441Y-67681644D01*
X121112656Y-67684370D01*
X121189898Y-67684900D01*
X121415492Y-67676029D01*
G36*
X118293258Y-68897527D02*
G01*
X118506464Y-68869337D01*
X118724727Y-68815897D01*
X118950796Y-68736675D01*
X119187418Y-68631144D01*
X119202420Y-68623762D01*
X119279232Y-68586450D01*
X119347860Y-68554395D01*
X119403297Y-68529834D01*
X119440536Y-68515008D01*
X119453278Y-68511616D01*
X119478863Y-68504949D01*
X119485003Y-68499349D01*
X119478208Y-68485459D01*
X119456853Y-68450460D01*
X119423396Y-68398020D01*
X119380294Y-68331806D01*
X119330008Y-68255486D01*
X119274995Y-68172727D01*
X119217714Y-68087199D01*
X119160623Y-68002567D01*
X119106183Y-67922500D01*
X119056850Y-67850666D01*
X119015083Y-67790732D01*
X118983342Y-67746365D01*
X118964085Y-67721235D01*
X118961442Y-67718320D01*
X118947971Y-67724509D01*
X118918227Y-67747377D01*
X118877527Y-67782686D01*
X118856566Y-67801960D01*
X118728104Y-67902186D01*
X118586034Y-67975998D01*
X118432256Y-68022730D01*
X118268672Y-68041716D01*
X118176275Y-68040157D01*
X118014995Y-68017310D01*
X117869587Y-67969538D01*
X117739616Y-67896492D01*
X117624647Y-67797824D01*
X117524246Y-67673185D01*
X117437978Y-67522224D01*
X117388161Y-67406941D01*
X117329778Y-67226276D01*
X117286748Y-67029922D01*
X117258960Y-66822943D01*
X117246305Y-66610402D01*
X117248670Y-66397362D01*
X117265945Y-66188887D01*
X117298019Y-65990039D01*
X117344782Y-65805882D01*
X117406123Y-65641480D01*
X117427800Y-65595876D01*
X117518660Y-65443986D01*
X117625781Y-65315519D01*
X117747588Y-65211522D01*
X117882510Y-65133042D01*
X118028971Y-65081126D01*
X118185400Y-65056821D01*
X118240608Y-65055033D01*
X118402446Y-65069572D01*
X118562791Y-65113263D01*
X118719610Y-65185202D01*
X118870867Y-65284488D01*
X118992564Y-65388768D01*
X119054512Y-65448055D01*
X119295845Y-65052291D01*
X119355886Y-64953554D01*
X119410789Y-64862738D01*
X119458606Y-64783105D01*
X119497391Y-64717920D01*
X119525194Y-64670446D01*
X119540070Y-64643945D01*
X119542003Y-64639825D01*
X119531047Y-64626991D01*
X119496993Y-64603984D01*
X119444145Y-64572985D01*
X119376811Y-64536171D01*
X119299294Y-64495722D01*
X119215902Y-64453818D01*
X119130940Y-64412637D01*
X119048714Y-64374358D01*
X118973529Y-64341162D01*
X118909691Y-64315225D01*
X118878467Y-64304003D01*
X118700377Y-64253658D01*
X118516791Y-64220370D01*
X118320142Y-64203057D01*
X118151341Y-64199957D01*
X118060867Y-64201415D01*
X117973529Y-64204208D01*
X117897068Y-64207991D01*
X117839230Y-64212422D01*
X117820451Y-64214663D01*
X117635372Y-64253053D01*
X117446949Y-64313123D01*
X117263910Y-64391298D01*
X117094987Y-64484000D01*
X116991799Y-64554136D01*
X116822174Y-64698191D01*
X116664670Y-64866698D01*
X116522205Y-65055492D01*
X116397697Y-65260409D01*
X116294062Y-65477285D01*
X116235676Y-65633450D01*
X116168778Y-65877924D01*
X116124179Y-66136936D01*
X116101865Y-66404881D01*
X116101821Y-66676155D01*
X116124034Y-66945153D01*
X116168491Y-67206271D01*
X116235176Y-67453905D01*
X116240257Y-67469334D01*
X116323978Y-67685085D01*
X116426156Y-67882017D01*
X116550258Y-68065701D01*
X116699750Y-68241712D01*
X116758150Y-68301973D01*
X116939404Y-68466984D01*
X117125737Y-68603505D01*
X117320009Y-68713021D01*
X117525079Y-68797019D01*
X117743810Y-68856985D01*
X117871030Y-68880270D01*
X118082363Y-68900995D01*
X118293258Y-68897527D01*
X118293258Y-68897527D01*
G37*
X118293258Y-68897527D02*
X118506464Y-68869337D01*
X118724727Y-68815897D01*
X118950796Y-68736675D01*
X119187418Y-68631144D01*
X119202420Y-68623762D01*
X119279232Y-68586450D01*
X119347860Y-68554395D01*
X119403297Y-68529834D01*
X119440536Y-68515008D01*
X119453278Y-68511616D01*
X119478863Y-68504949D01*
X119485003Y-68499349D01*
X119478208Y-68485459D01*
X119456853Y-68450460D01*
X119423396Y-68398020D01*
X119380294Y-68331806D01*
X119330008Y-68255486D01*
X119274995Y-68172727D01*
X119217714Y-68087199D01*
X119160623Y-68002567D01*
X119106183Y-67922500D01*
X119056850Y-67850666D01*
X119015083Y-67790732D01*
X118983342Y-67746365D01*
X118964085Y-67721235D01*
X118961442Y-67718320D01*
X118947971Y-67724509D01*
X118918227Y-67747377D01*
X118877527Y-67782686D01*
X118856566Y-67801960D01*
X118728104Y-67902186D01*
X118586034Y-67975998D01*
X118432256Y-68022730D01*
X118268672Y-68041716D01*
X118176275Y-68040157D01*
X118014995Y-68017310D01*
X117869587Y-67969538D01*
X117739616Y-67896492D01*
X117624647Y-67797824D01*
X117524246Y-67673185D01*
X117437978Y-67522224D01*
X117388161Y-67406941D01*
X117329778Y-67226276D01*
X117286748Y-67029922D01*
X117258960Y-66822943D01*
X117246305Y-66610402D01*
X117248670Y-66397362D01*
X117265945Y-66188887D01*
X117298019Y-65990039D01*
X117344782Y-65805882D01*
X117406123Y-65641480D01*
X117427800Y-65595876D01*
X117518660Y-65443986D01*
X117625781Y-65315519D01*
X117747588Y-65211522D01*
X117882510Y-65133042D01*
X118028971Y-65081126D01*
X118185400Y-65056821D01*
X118240608Y-65055033D01*
X118402446Y-65069572D01*
X118562791Y-65113263D01*
X118719610Y-65185202D01*
X118870867Y-65284488D01*
X118992564Y-65388768D01*
X119054512Y-65448055D01*
X119295845Y-65052291D01*
X119355886Y-64953554D01*
X119410789Y-64862738D01*
X119458606Y-64783105D01*
X119497391Y-64717920D01*
X119525194Y-64670446D01*
X119540070Y-64643945D01*
X119542003Y-64639825D01*
X119531047Y-64626991D01*
X119496993Y-64603984D01*
X119444145Y-64572985D01*
X119376811Y-64536171D01*
X119299294Y-64495722D01*
X119215902Y-64453818D01*
X119130940Y-64412637D01*
X119048714Y-64374358D01*
X118973529Y-64341162D01*
X118909691Y-64315225D01*
X118878467Y-64304003D01*
X118700377Y-64253658D01*
X118516791Y-64220370D01*
X118320142Y-64203057D01*
X118151341Y-64199957D01*
X118060867Y-64201415D01*
X117973529Y-64204208D01*
X117897068Y-64207991D01*
X117839230Y-64212422D01*
X117820451Y-64214663D01*
X117635372Y-64253053D01*
X117446949Y-64313123D01*
X117263910Y-64391298D01*
X117094987Y-64484000D01*
X116991799Y-64554136D01*
X116822174Y-64698191D01*
X116664670Y-64866698D01*
X116522205Y-65055492D01*
X116397697Y-65260409D01*
X116294062Y-65477285D01*
X116235676Y-65633450D01*
X116168778Y-65877924D01*
X116124179Y-66136936D01*
X116101865Y-66404881D01*
X116101821Y-66676155D01*
X116124034Y-66945153D01*
X116168491Y-67206271D01*
X116235176Y-67453905D01*
X116240257Y-67469334D01*
X116323978Y-67685085D01*
X116426156Y-67882017D01*
X116550258Y-68065701D01*
X116699750Y-68241712D01*
X116758150Y-68301973D01*
X116939404Y-68466984D01*
X117125737Y-68603505D01*
X117320009Y-68713021D01*
X117525079Y-68797019D01*
X117743810Y-68856985D01*
X117871030Y-68880270D01*
X118082363Y-68900995D01*
X118293258Y-68897527D01*
G36*
X113933278Y-69509976D02*
G01*
X113947744Y-69358281D01*
X113989837Y-69214997D01*
X114057607Y-69083193D01*
X114149101Y-68965942D01*
X114262365Y-68866313D01*
X114391490Y-68789271D01*
X114532972Y-68736521D01*
X114675446Y-68711799D01*
X114816104Y-68713316D01*
X114952136Y-68739283D01*
X115080733Y-68787910D01*
X115199086Y-68857407D01*
X115304386Y-68945986D01*
X115393823Y-69051857D01*
X115464588Y-69173230D01*
X115513871Y-69308317D01*
X115538865Y-69455326D01*
X115541444Y-69521756D01*
X115541444Y-69638835D01*
X115610580Y-69638835D01*
X115658919Y-69635047D01*
X115694729Y-69619338D01*
X115730817Y-69587734D01*
X115781917Y-69536633D01*
X115781917Y-66618862D01*
X115781905Y-66269862D01*
X115781862Y-65949668D01*
X115781777Y-65657026D01*
X115781639Y-65390682D01*
X115781438Y-65149383D01*
X115781162Y-64931875D01*
X115780800Y-64736905D01*
X115780342Y-64563220D01*
X115779777Y-64409565D01*
X115779094Y-64274687D01*
X115778283Y-64157332D01*
X115777331Y-64056247D01*
X115776229Y-63970179D01*
X115774965Y-63897873D01*
X115773530Y-63838077D01*
X115771911Y-63789536D01*
X115770098Y-63750997D01*
X115768080Y-63721207D01*
X115765846Y-63698911D01*
X115763386Y-63682857D01*
X115760688Y-63671790D01*
X115757742Y-63664458D01*
X115756301Y-63661995D01*
X115750759Y-63652660D01*
X115746053Y-63644077D01*
X115740955Y-63636216D01*
X115734235Y-63629045D01*
X115724664Y-63622533D01*
X115711014Y-63616647D01*
X115692055Y-63611358D01*
X115666558Y-63606632D01*
X115633295Y-63602440D01*
X115591036Y-63598749D01*
X115538552Y-63595528D01*
X115474614Y-63592746D01*
X115397993Y-63590370D01*
X115307460Y-63588371D01*
X115201786Y-63586716D01*
X115079742Y-63585373D01*
X114940099Y-63584313D01*
X114781628Y-63583502D01*
X114603100Y-63582910D01*
X114403285Y-63582505D01*
X114180955Y-63582256D01*
X113934881Y-63582131D01*
X113663834Y-63582099D01*
X113366584Y-63582129D01*
X113041903Y-63582189D01*
X112688562Y-63582248D01*
X112637459Y-63582254D01*
X112282015Y-63582311D01*
X111955406Y-63582405D01*
X111656408Y-63582545D01*
X111383796Y-63582741D01*
X111136347Y-63583003D01*
X110912836Y-63583340D01*
X110712040Y-63583761D01*
X110532734Y-63584277D01*
X110373693Y-63584896D01*
X110233694Y-63585629D01*
X110111513Y-63586485D01*
X110005925Y-63587474D01*
X109915707Y-63588606D01*
X109839634Y-63589889D01*
X109776481Y-63591334D01*
X109725025Y-63592951D01*
X109684042Y-63594748D01*
X109652308Y-63596735D01*
X109628598Y-63598923D01*
X109611688Y-63601321D01*
X109600354Y-63603937D01*
X109594552Y-63606159D01*
X109583286Y-63610912D01*
X109572942Y-63614422D01*
X109563483Y-63617932D01*
X109554868Y-63622687D01*
X109547058Y-63629931D01*
X109540015Y-63640909D01*
X109533698Y-63656865D01*
X109528069Y-63679045D01*
X109523088Y-63708691D01*
X109518716Y-63747049D01*
X109514914Y-63795363D01*
X109511642Y-63854878D01*
X109508861Y-63926837D01*
X109506533Y-64012487D01*
X109504617Y-64113069D01*
X109503075Y-64229831D01*
X109501866Y-64364015D01*
X109500953Y-64516866D01*
X109500295Y-64689629D01*
X109499854Y-64883548D01*
X109499589Y-65099867D01*
X109499464Y-65339832D01*
X109499436Y-65604686D01*
X109499467Y-65895674D01*
X109499519Y-66214040D01*
X109499551Y-66561030D01*
X109499551Y-66617148D01*
X109499533Y-66967159D01*
X109499499Y-67288364D01*
X109499485Y-67582017D01*
X109499524Y-67849372D01*
X109499649Y-68091683D01*
X109499897Y-68310203D01*
X109500300Y-68506187D01*
X109500893Y-68680887D01*
X109501665Y-68827237D01*
X109904851Y-68827237D01*
X109957826Y-68750225D01*
X109972698Y-68729232D01*
X109986105Y-68710644D01*
X109998124Y-68692880D01*
X110008830Y-68674362D01*
X110018297Y-68653509D01*
X110026603Y-68628743D01*
X110033822Y-68598483D01*
X110040031Y-68561150D01*
X110045304Y-68515165D01*
X110049718Y-68458948D01*
X110053348Y-68390920D01*
X110056270Y-68309500D01*
X110058559Y-68213110D01*
X110060291Y-68100170D01*
X110061542Y-67969101D01*
X110062386Y-67818322D01*
X110062901Y-67646254D01*
X110063161Y-67451319D01*
X110063243Y-67231935D01*
X110063221Y-66986524D01*
X110063172Y-66713506D01*
X110063160Y-66550255D01*
X110063192Y-66261417D01*
X110063237Y-66001057D01*
X110063221Y-65767594D01*
X110063069Y-65559446D01*
X110062706Y-65375031D01*
X110062057Y-65212769D01*
X110061047Y-65071078D01*
X110059601Y-64948376D01*
X110057645Y-64843083D01*
X110055104Y-64753617D01*
X110051903Y-64678397D01*
X110047967Y-64615841D01*
X110043220Y-64564368D01*
X110037590Y-64522397D01*
X110030999Y-64488347D01*
X110023374Y-64460635D01*
X110014640Y-64437682D01*
X110004721Y-64417904D01*
X109993544Y-64399722D01*
X109981033Y-64381554D01*
X109967112Y-64361818D01*
X109959003Y-64349981D01*
X109907382Y-64273272D01*
X110615086Y-64273272D01*
X110779174Y-64273319D01*
X110915633Y-64273519D01*
X111026891Y-64273967D01*
X111115379Y-64274756D01*
X111183524Y-64275980D01*
X111233757Y-64277731D01*
X111268507Y-64280103D01*
X111290202Y-64283190D01*
X111301273Y-64287084D01*
X111304149Y-64291880D01*
X111301259Y-64297670D01*
X111299667Y-64299574D01*
X111266183Y-64348930D01*
X111231704Y-64419227D01*
X111200271Y-64501773D01*
X111189262Y-64536939D01*
X111183116Y-64560825D01*
X111177922Y-64588865D01*
X111173570Y-64623835D01*
X111169952Y-64668511D01*
X111166957Y-64725671D01*
X111164477Y-64798090D01*
X111162402Y-64888545D01*
X111160623Y-64999812D01*
X111159030Y-65134669D01*
X111157514Y-65295891D01*
X111157012Y-65355403D01*
X111155658Y-65522024D01*
X111154648Y-65660974D01*
X111154059Y-65774639D01*
X111153969Y-65865404D01*
X111154456Y-65935656D01*
X111155597Y-65987781D01*
X111157470Y-66024166D01*
X111160153Y-66047196D01*
X111163724Y-66059258D01*
X111168261Y-66062739D01*
X111173841Y-66060024D01*
X111179797Y-66054278D01*
X111193583Y-66037057D01*
X111222950Y-65998349D01*
X111265821Y-65940990D01*
X111320118Y-65867819D01*
X111383763Y-65781674D01*
X111454677Y-65685391D01*
X111530784Y-65581808D01*
X111610005Y-65473763D01*
X111690262Y-65364093D01*
X111769478Y-65255636D01*
X111845574Y-65151230D01*
X111916473Y-65053711D01*
X111980097Y-64965917D01*
X112034367Y-64890686D01*
X112077207Y-64830856D01*
X112106538Y-64789263D01*
X112112620Y-64780433D01*
X112143136Y-64731302D01*
X112178828Y-64667410D01*
X112212643Y-64601458D01*
X112216931Y-64592563D01*
X112245792Y-64528398D01*
X112262548Y-64478390D01*
X112270177Y-64430693D01*
X112271666Y-64374722D01*
X112270822Y-64273272D01*
X113807796Y-64273272D01*
X113686425Y-64398062D01*
X113624121Y-64464490D01*
X113557170Y-64539684D01*
X113495868Y-64611937D01*
X113468675Y-64645690D01*
X113428151Y-64698339D01*
X113374824Y-64769183D01*
X113310253Y-64856053D01*
X113235999Y-64956778D01*
X113153619Y-65069191D01*
X113064674Y-65191121D01*
X112970722Y-65320398D01*
X112873322Y-65454854D01*
X112774035Y-65592319D01*
X112674419Y-65730623D01*
X112576033Y-65867597D01*
X112480436Y-66001071D01*
X112389188Y-66128876D01*
X112303848Y-66248843D01*
X112225975Y-66358801D01*
X112157129Y-66456582D01*
X112098868Y-66540016D01*
X112052751Y-66606934D01*
X112020339Y-66655166D01*
X112003190Y-66682542D01*
X112000850Y-66688004D01*
X112011446Y-66703083D01*
X112039132Y-66739270D01*
X112082091Y-66794299D01*
X112138510Y-66865907D01*
X112206574Y-66951829D01*
X112284467Y-67049802D01*
X112370375Y-67157562D01*
X112462483Y-67272845D01*
X112558977Y-67393386D01*
X112658041Y-67516921D01*
X112737562Y-67615918D01*
X114083574Y-67615918D01*
X114091442Y-67598667D01*
X114110520Y-67569045D01*
X114111914Y-67567072D01*
X114136927Y-67526927D01*
X114163084Y-67477891D01*
X114168275Y-67467059D01*
X114172983Y-67455837D01*
X114177143Y-67442366D01*
X114180797Y-67424790D01*
X114183985Y-67401255D01*
X114186745Y-67369906D01*
X114189119Y-67328888D01*
X114191147Y-67276348D01*
X114192868Y-67210429D01*
X114194324Y-67129277D01*
X114195553Y-67031038D01*
X114196596Y-66913857D01*
X114197494Y-66775879D01*
X114198286Y-66615249D01*
X114199012Y-66430112D01*
X114199713Y-66218614D01*
X114200423Y-65980491D01*
X114201140Y-65734033D01*
X114201718Y-65515771D01*
X114202069Y-65323845D01*
X114202102Y-65156393D01*
X114201728Y-65011551D01*
X114200857Y-64887460D01*
X114199399Y-64782256D01*
X114197264Y-64694078D01*
X114194363Y-64621064D01*
X114190606Y-64561352D01*
X114185903Y-64513080D01*
X114180165Y-64474386D01*
X114173301Y-64443409D01*
X114165222Y-64418286D01*
X114155838Y-64397155D01*
X114145060Y-64378155D01*
X114132797Y-64359424D01*
X114121480Y-64342825D01*
X114098666Y-64307818D01*
X114085157Y-64284407D01*
X114083574Y-64280120D01*
X114098095Y-64278686D01*
X114139625Y-64277354D01*
X114205111Y-64276155D01*
X114291505Y-64275123D01*
X114395754Y-64274288D01*
X114514808Y-64273683D01*
X114645616Y-64273340D01*
X114737361Y-64273272D01*
X114877145Y-64273566D01*
X115006076Y-64274407D01*
X115121242Y-64275737D01*
X115219730Y-64277497D01*
X115298624Y-64279628D01*
X115355012Y-64282072D01*
X115385980Y-64284769D01*
X115391148Y-64286462D01*
X115380900Y-64306303D01*
X115370251Y-64316994D01*
X115352714Y-64339796D01*
X115329763Y-64380071D01*
X115313890Y-64412769D01*
X115278426Y-64491201D01*
X115274332Y-66058036D01*
X115270238Y-67624870D01*
X114676906Y-67624870D01*
X114546677Y-67624651D01*
X114426330Y-67624027D01*
X114319068Y-67623047D01*
X114228093Y-67621757D01*
X114156607Y-67620208D01*
X114107814Y-67618446D01*
X114084915Y-67616521D01*
X114083574Y-67615918D01*
X112737562Y-67615918D01*
X112757860Y-67641187D01*
X112856620Y-67763919D01*
X112952507Y-67882853D01*
X113043704Y-67995726D01*
X113128398Y-68100272D01*
X113204773Y-68194229D01*
X113271016Y-68275332D01*
X113325310Y-68341316D01*
X113348162Y-68368835D01*
X113463048Y-68502851D01*
X113565029Y-68613697D01*
X113656645Y-68703991D01*
X113740434Y-68776349D01*
X113752923Y-68786158D01*
X113805527Y-68826904D01*
X113052136Y-68827070D01*
X112298746Y-68827237D01*
X112305787Y-68763361D01*
X112301390Y-68687016D01*
X112272724Y-68596118D01*
X112219504Y-68489943D01*
X112159183Y-68393708D01*
X112137591Y-68363559D01*
X112100242Y-68313559D01*
X112049363Y-68246558D01*
X111987180Y-68165409D01*
X111915919Y-68072962D01*
X111837808Y-67972067D01*
X111755072Y-67865577D01*
X111669937Y-67756342D01*
X111584631Y-67647213D01*
X111501379Y-67541041D01*
X111422408Y-67440677D01*
X111349945Y-67348973D01*
X111286215Y-67268779D01*
X111233445Y-67202946D01*
X111193862Y-67154326D01*
X111169691Y-67125770D01*
X111165619Y-67121379D01*
X111161812Y-67132038D01*
X111158865Y-67172370D01*
X111156783Y-67242000D01*
X111155571Y-67340553D01*
X111155234Y-67467656D01*
X111155777Y-67622932D01*
X111156987Y-67782681D01*
X111158747Y-67958569D01*
X111160777Y-68107333D01*
X111163407Y-68231908D01*
X111166969Y-68335229D01*
X111171794Y-68420231D01*
X111178213Y-68489848D01*
X111186556Y-68547016D01*
X111197156Y-68594669D01*
X111210343Y-68635743D01*
X111226448Y-68673173D01*
X111245803Y-68709893D01*
X111265350Y-68743229D01*
X111315937Y-68827237D01*
X109904851Y-68827237D01*
X109501665Y-68827237D01*
X109501709Y-68835558D01*
X109502782Y-68971453D01*
X109504147Y-69089826D01*
X109505838Y-69191931D01*
X109507888Y-69279021D01*
X109510332Y-69352350D01*
X109513204Y-69413171D01*
X109516538Y-69462740D01*
X109520367Y-69502308D01*
X109524726Y-69533130D01*
X109529649Y-69556460D01*
X109535170Y-69573552D01*
X109541322Y-69585658D01*
X109548141Y-69594033D01*
X109555660Y-69599930D01*
X109563913Y-69604604D01*
X109572933Y-69609307D01*
X109580916Y-69614058D01*
X109587883Y-69617488D01*
X109598768Y-69620588D01*
X109615028Y-69623375D01*
X109638121Y-69625866D01*
X109669503Y-69628077D01*
X109710632Y-69630024D01*
X109762966Y-69631724D01*
X109827961Y-69633193D01*
X109907075Y-69634448D01*
X110001764Y-69635506D01*
X110113488Y-69636382D01*
X110243701Y-69637093D01*
X110393863Y-69637655D01*
X110565430Y-69638086D01*
X110759859Y-69638401D01*
X110978608Y-69638617D01*
X111223134Y-69638750D01*
X111494895Y-69638817D01*
X111776004Y-69638835D01*
X113933278Y-69638835D01*
X113933278Y-69509976D01*
X113933278Y-69509976D01*
G37*
X113933278Y-69509976D02*
X113947744Y-69358281D01*
X113989837Y-69214997D01*
X114057607Y-69083193D01*
X114149101Y-68965942D01*
X114262365Y-68866313D01*
X114391490Y-68789271D01*
X114532972Y-68736521D01*
X114675446Y-68711799D01*
X114816104Y-68713316D01*
X114952136Y-68739283D01*
X115080733Y-68787910D01*
X115199086Y-68857407D01*
X115304386Y-68945986D01*
X115393823Y-69051857D01*
X115464588Y-69173230D01*
X115513871Y-69308317D01*
X115538865Y-69455326D01*
X115541444Y-69521756D01*
X115541444Y-69638835D01*
X115610580Y-69638835D01*
X115658919Y-69635047D01*
X115694729Y-69619338D01*
X115730817Y-69587734D01*
X115781917Y-69536633D01*
X115781917Y-66618862D01*
X115781905Y-66269862D01*
X115781862Y-65949668D01*
X115781777Y-65657026D01*
X115781639Y-65390682D01*
X115781438Y-65149383D01*
X115781162Y-64931875D01*
X115780800Y-64736905D01*
X115780342Y-64563220D01*
X115779777Y-64409565D01*
X115779094Y-64274687D01*
X115778283Y-64157332D01*
X115777331Y-64056247D01*
X115776229Y-63970179D01*
X115774965Y-63897873D01*
X115773530Y-63838077D01*
X115771911Y-63789536D01*
X115770098Y-63750997D01*
X115768080Y-63721207D01*
X115765846Y-63698911D01*
X115763386Y-63682857D01*
X115760688Y-63671790D01*
X115757742Y-63664458D01*
X115756301Y-63661995D01*
X115750759Y-63652660D01*
X115746053Y-63644077D01*
X115740955Y-63636216D01*
X115734235Y-63629045D01*
X115724664Y-63622533D01*
X115711014Y-63616647D01*
X115692055Y-63611358D01*
X115666558Y-63606632D01*
X115633295Y-63602440D01*
X115591036Y-63598749D01*
X115538552Y-63595528D01*
X115474614Y-63592746D01*
X115397993Y-63590370D01*
X115307460Y-63588371D01*
X115201786Y-63586716D01*
X115079742Y-63585373D01*
X114940099Y-63584313D01*
X114781628Y-63583502D01*
X114603100Y-63582910D01*
X114403285Y-63582505D01*
X114180955Y-63582256D01*
X113934881Y-63582131D01*
X113663834Y-63582099D01*
X113366584Y-63582129D01*
X113041903Y-63582189D01*
X112688562Y-63582248D01*
X112637459Y-63582254D01*
X112282015Y-63582311D01*
X111955406Y-63582405D01*
X111656408Y-63582545D01*
X111383796Y-63582741D01*
X111136347Y-63583003D01*
X110912836Y-63583340D01*
X110712040Y-63583761D01*
X110532734Y-63584277D01*
X110373693Y-63584896D01*
X110233694Y-63585629D01*
X110111513Y-63586485D01*
X110005925Y-63587474D01*
X109915707Y-63588606D01*
X109839634Y-63589889D01*
X109776481Y-63591334D01*
X109725025Y-63592951D01*
X109684042Y-63594748D01*
X109652308Y-63596735D01*
X109628598Y-63598923D01*
X109611688Y-63601321D01*
X109600354Y-63603937D01*
X109594552Y-63606159D01*
X109583286Y-63610912D01*
X109572942Y-63614422D01*
X109563483Y-63617932D01*
X109554868Y-63622687D01*
X109547058Y-63629931D01*
X109540015Y-63640909D01*
X109533698Y-63656865D01*
X109528069Y-63679045D01*
X109523088Y-63708691D01*
X109518716Y-63747049D01*
X109514914Y-63795363D01*
X109511642Y-63854878D01*
X109508861Y-63926837D01*
X109506533Y-64012487D01*
X109504617Y-64113069D01*
X109503075Y-64229831D01*
X109501866Y-64364015D01*
X109500953Y-64516866D01*
X109500295Y-64689629D01*
X109499854Y-64883548D01*
X109499589Y-65099867D01*
X109499464Y-65339832D01*
X109499436Y-65604686D01*
X109499467Y-65895674D01*
X109499519Y-66214040D01*
X109499551Y-66561030D01*
X109499551Y-66617148D01*
X109499533Y-66967159D01*
X109499499Y-67288364D01*
X109499485Y-67582017D01*
X109499524Y-67849372D01*
X109499649Y-68091683D01*
X109499897Y-68310203D01*
X109500300Y-68506187D01*
X109500893Y-68680887D01*
X109501665Y-68827237D01*
X109904851Y-68827237D01*
X109957826Y-68750225D01*
X109972698Y-68729232D01*
X109986105Y-68710644D01*
X109998124Y-68692880D01*
X110008830Y-68674362D01*
X110018297Y-68653509D01*
X110026603Y-68628743D01*
X110033822Y-68598483D01*
X110040031Y-68561150D01*
X110045304Y-68515165D01*
X110049718Y-68458948D01*
X110053348Y-68390920D01*
X110056270Y-68309500D01*
X110058559Y-68213110D01*
X110060291Y-68100170D01*
X110061542Y-67969101D01*
X110062386Y-67818322D01*
X110062901Y-67646254D01*
X110063161Y-67451319D01*
X110063243Y-67231935D01*
X110063221Y-66986524D01*
X110063172Y-66713506D01*
X110063160Y-66550255D01*
X110063192Y-66261417D01*
X110063237Y-66001057D01*
X110063221Y-65767594D01*
X110063069Y-65559446D01*
X110062706Y-65375031D01*
X110062057Y-65212769D01*
X110061047Y-65071078D01*
X110059601Y-64948376D01*
X110057645Y-64843083D01*
X110055104Y-64753617D01*
X110051903Y-64678397D01*
X110047967Y-64615841D01*
X110043220Y-64564368D01*
X110037590Y-64522397D01*
X110030999Y-64488347D01*
X110023374Y-64460635D01*
X110014640Y-64437682D01*
X110004721Y-64417904D01*
X109993544Y-64399722D01*
X109981033Y-64381554D01*
X109967112Y-64361818D01*
X109959003Y-64349981D01*
X109907382Y-64273272D01*
X110615086Y-64273272D01*
X110779174Y-64273319D01*
X110915633Y-64273519D01*
X111026891Y-64273967D01*
X111115379Y-64274756D01*
X111183524Y-64275980D01*
X111233757Y-64277731D01*
X111268507Y-64280103D01*
X111290202Y-64283190D01*
X111301273Y-64287084D01*
X111304149Y-64291880D01*
X111301259Y-64297670D01*
X111299667Y-64299574D01*
X111266183Y-64348930D01*
X111231704Y-64419227D01*
X111200271Y-64501773D01*
X111189262Y-64536939D01*
X111183116Y-64560825D01*
X111177922Y-64588865D01*
X111173570Y-64623835D01*
X111169952Y-64668511D01*
X111166957Y-64725671D01*
X111164477Y-64798090D01*
X111162402Y-64888545D01*
X111160623Y-64999812D01*
X111159030Y-65134669D01*
X111157514Y-65295891D01*
X111157012Y-65355403D01*
X111155658Y-65522024D01*
X111154648Y-65660974D01*
X111154059Y-65774639D01*
X111153969Y-65865404D01*
X111154456Y-65935656D01*
X111155597Y-65987781D01*
X111157470Y-66024166D01*
X111160153Y-66047196D01*
X111163724Y-66059258D01*
X111168261Y-66062739D01*
X111173841Y-66060024D01*
X111179797Y-66054278D01*
X111193583Y-66037057D01*
X111222950Y-65998349D01*
X111265821Y-65940990D01*
X111320118Y-65867819D01*
X111383763Y-65781674D01*
X111454677Y-65685391D01*
X111530784Y-65581808D01*
X111610005Y-65473763D01*
X111690262Y-65364093D01*
X111769478Y-65255636D01*
X111845574Y-65151230D01*
X111916473Y-65053711D01*
X111980097Y-64965917D01*
X112034367Y-64890686D01*
X112077207Y-64830856D01*
X112106538Y-64789263D01*
X112112620Y-64780433D01*
X112143136Y-64731302D01*
X112178828Y-64667410D01*
X112212643Y-64601458D01*
X112216931Y-64592563D01*
X112245792Y-64528398D01*
X112262548Y-64478390D01*
X112270177Y-64430693D01*
X112271666Y-64374722D01*
X112270822Y-64273272D01*
X113807796Y-64273272D01*
X113686425Y-64398062D01*
X113624121Y-64464490D01*
X113557170Y-64539684D01*
X113495868Y-64611937D01*
X113468675Y-64645690D01*
X113428151Y-64698339D01*
X113374824Y-64769183D01*
X113310253Y-64856053D01*
X113235999Y-64956778D01*
X113153619Y-65069191D01*
X113064674Y-65191121D01*
X112970722Y-65320398D01*
X112873322Y-65454854D01*
X112774035Y-65592319D01*
X112674419Y-65730623D01*
X112576033Y-65867597D01*
X112480436Y-66001071D01*
X112389188Y-66128876D01*
X112303848Y-66248843D01*
X112225975Y-66358801D01*
X112157129Y-66456582D01*
X112098868Y-66540016D01*
X112052751Y-66606934D01*
X112020339Y-66655166D01*
X112003190Y-66682542D01*
X112000850Y-66688004D01*
X112011446Y-66703083D01*
X112039132Y-66739270D01*
X112082091Y-66794299D01*
X112138510Y-66865907D01*
X112206574Y-66951829D01*
X112284467Y-67049802D01*
X112370375Y-67157562D01*
X112462483Y-67272845D01*
X112558977Y-67393386D01*
X112658041Y-67516921D01*
X112737562Y-67615918D01*
X114083574Y-67615918D01*
X114091442Y-67598667D01*
X114110520Y-67569045D01*
X114111914Y-67567072D01*
X114136927Y-67526927D01*
X114163084Y-67477891D01*
X114168275Y-67467059D01*
X114172983Y-67455837D01*
X114177143Y-67442366D01*
X114180797Y-67424790D01*
X114183985Y-67401255D01*
X114186745Y-67369906D01*
X114189119Y-67328888D01*
X114191147Y-67276348D01*
X114192868Y-67210429D01*
X114194324Y-67129277D01*
X114195553Y-67031038D01*
X114196596Y-66913857D01*
X114197494Y-66775879D01*
X114198286Y-66615249D01*
X114199012Y-66430112D01*
X114199713Y-66218614D01*
X114200423Y-65980491D01*
X114201140Y-65734033D01*
X114201718Y-65515771D01*
X114202069Y-65323845D01*
X114202102Y-65156393D01*
X114201728Y-65011551D01*
X114200857Y-64887460D01*
X114199399Y-64782256D01*
X114197264Y-64694078D01*
X114194363Y-64621064D01*
X114190606Y-64561352D01*
X114185903Y-64513080D01*
X114180165Y-64474386D01*
X114173301Y-64443409D01*
X114165222Y-64418286D01*
X114155838Y-64397155D01*
X114145060Y-64378155D01*
X114132797Y-64359424D01*
X114121480Y-64342825D01*
X114098666Y-64307818D01*
X114085157Y-64284407D01*
X114083574Y-64280120D01*
X114098095Y-64278686D01*
X114139625Y-64277354D01*
X114205111Y-64276155D01*
X114291505Y-64275123D01*
X114395754Y-64274288D01*
X114514808Y-64273683D01*
X114645616Y-64273340D01*
X114737361Y-64273272D01*
X114877145Y-64273566D01*
X115006076Y-64274407D01*
X115121242Y-64275737D01*
X115219730Y-64277497D01*
X115298624Y-64279628D01*
X115355012Y-64282072D01*
X115385980Y-64284769D01*
X115391148Y-64286462D01*
X115380900Y-64306303D01*
X115370251Y-64316994D01*
X115352714Y-64339796D01*
X115329763Y-64380071D01*
X115313890Y-64412769D01*
X115278426Y-64491201D01*
X115274332Y-66058036D01*
X115270238Y-67624870D01*
X114676906Y-67624870D01*
X114546677Y-67624651D01*
X114426330Y-67624027D01*
X114319068Y-67623047D01*
X114228093Y-67621757D01*
X114156607Y-67620208D01*
X114107814Y-67618446D01*
X114084915Y-67616521D01*
X114083574Y-67615918D01*
X112737562Y-67615918D01*
X112757860Y-67641187D01*
X112856620Y-67763919D01*
X112952507Y-67882853D01*
X113043704Y-67995726D01*
X113128398Y-68100272D01*
X113204773Y-68194229D01*
X113271016Y-68275332D01*
X113325310Y-68341316D01*
X113348162Y-68368835D01*
X113463048Y-68502851D01*
X113565029Y-68613697D01*
X113656645Y-68703991D01*
X113740434Y-68776349D01*
X113752923Y-68786158D01*
X113805527Y-68826904D01*
X113052136Y-68827070D01*
X112298746Y-68827237D01*
X112305787Y-68763361D01*
X112301390Y-68687016D01*
X112272724Y-68596118D01*
X112219504Y-68489943D01*
X112159183Y-68393708D01*
X112137591Y-68363559D01*
X112100242Y-68313559D01*
X112049363Y-68246558D01*
X111987180Y-68165409D01*
X111915919Y-68072962D01*
X111837808Y-67972067D01*
X111755072Y-67865577D01*
X111669937Y-67756342D01*
X111584631Y-67647213D01*
X111501379Y-67541041D01*
X111422408Y-67440677D01*
X111349945Y-67348973D01*
X111286215Y-67268779D01*
X111233445Y-67202946D01*
X111193862Y-67154326D01*
X111169691Y-67125770D01*
X111165619Y-67121379D01*
X111161812Y-67132038D01*
X111158865Y-67172370D01*
X111156783Y-67242000D01*
X111155571Y-67340553D01*
X111155234Y-67467656D01*
X111155777Y-67622932D01*
X111156987Y-67782681D01*
X111158747Y-67958569D01*
X111160777Y-68107333D01*
X111163407Y-68231908D01*
X111166969Y-68335229D01*
X111171794Y-68420231D01*
X111178213Y-68489848D01*
X111186556Y-68547016D01*
X111197156Y-68594669D01*
X111210343Y-68635743D01*
X111226448Y-68673173D01*
X111245803Y-68709893D01*
X111265350Y-68743229D01*
X111315937Y-68827237D01*
X109904851Y-68827237D01*
X109501665Y-68827237D01*
X109501709Y-68835558D01*
X109502782Y-68971453D01*
X109504147Y-69089826D01*
X109505838Y-69191931D01*
X109507888Y-69279021D01*
X109510332Y-69352350D01*
X109513204Y-69413171D01*
X109516538Y-69462740D01*
X109520367Y-69502308D01*
X109524726Y-69533130D01*
X109529649Y-69556460D01*
X109535170Y-69573552D01*
X109541322Y-69585658D01*
X109548141Y-69594033D01*
X109555660Y-69599930D01*
X109563913Y-69604604D01*
X109572933Y-69609307D01*
X109580916Y-69614058D01*
X109587883Y-69617488D01*
X109598768Y-69620588D01*
X109615028Y-69623375D01*
X109638121Y-69625866D01*
X109669503Y-69628077D01*
X109710632Y-69630024D01*
X109762966Y-69631724D01*
X109827961Y-69633193D01*
X109907075Y-69634448D01*
X110001764Y-69635506D01*
X110113488Y-69636382D01*
X110243701Y-69637093D01*
X110393863Y-69637655D01*
X110565430Y-69638086D01*
X110759859Y-69638401D01*
X110978608Y-69638617D01*
X111223134Y-69638750D01*
X111494895Y-69638817D01*
X111776004Y-69638835D01*
X113933278Y-69638835D01*
X113933278Y-69509976D01*
G36*
X126148813Y-63138776D02*
G01*
X126190589Y-63109163D01*
X126227479Y-63072272D01*
X126227479Y-62660302D01*
X126227383Y-62537978D01*
X126226926Y-62442066D01*
X126225857Y-62368920D01*
X126223925Y-62314894D01*
X126220877Y-62276341D01*
X126216463Y-62249616D01*
X126210430Y-62231070D01*
X126202528Y-62217059D01*
X126196329Y-62208731D01*
X126155415Y-62176015D01*
X126108436Y-62172464D01*
X126065498Y-62192527D01*
X126051310Y-62204372D01*
X126041826Y-62220106D01*
X126036105Y-62245442D01*
X126033207Y-62286094D01*
X126032192Y-62347776D01*
X126032095Y-62395426D01*
X126032095Y-62574929D01*
X125370793Y-62574929D01*
X125370793Y-62411631D01*
X125370109Y-62336959D01*
X125367373Y-62285640D01*
X125361558Y-62250987D01*
X125351638Y-62226309D01*
X125339643Y-62208731D01*
X125298500Y-62176107D01*
X125251971Y-62172244D01*
X125207427Y-62195432D01*
X125195266Y-62207588D01*
X125186677Y-62223703D01*
X125181012Y-62248804D01*
X125177623Y-62287920D01*
X125175862Y-62346078D01*
X125175082Y-62428306D01*
X125174990Y-62447178D01*
X125174346Y-62602107D01*
X125174014Y-62729790D01*
X125174122Y-62833037D01*
X125174799Y-62914661D01*
X125176172Y-62977472D01*
X125178370Y-63024283D01*
X125181520Y-63057905D01*
X125185752Y-63081149D01*
X125191192Y-63096828D01*
X125197969Y-63107753D01*
X125205468Y-63115994D01*
X125247887Y-63142357D01*
X125292126Y-63138776D01*
X125333902Y-63109163D01*
X125350807Y-63090057D01*
X125361583Y-63068953D01*
X125367595Y-63038896D01*
X125370210Y-62992931D01*
X125370793Y-62924104D01*
X125370793Y-62770314D01*
X126032095Y-62770314D01*
X126032095Y-62928125D01*
X126032770Y-63000828D01*
X126035480Y-63049919D01*
X126041255Y-63081828D01*
X126051123Y-63102986D01*
X126062154Y-63115994D01*
X126104573Y-63142357D01*
X126148813Y-63138776D01*
X126148813Y-63138776D01*
G37*
X126148813Y-63138776D02*
X126190589Y-63109163D01*
X126227479Y-63072272D01*
X126227479Y-62660302D01*
X126227383Y-62537978D01*
X126226926Y-62442066D01*
X126225857Y-62368920D01*
X126223925Y-62314894D01*
X126220877Y-62276341D01*
X126216463Y-62249616D01*
X126210430Y-62231070D01*
X126202528Y-62217059D01*
X126196329Y-62208731D01*
X126155415Y-62176015D01*
X126108436Y-62172464D01*
X126065498Y-62192527D01*
X126051310Y-62204372D01*
X126041826Y-62220106D01*
X126036105Y-62245442D01*
X126033207Y-62286094D01*
X126032192Y-62347776D01*
X126032095Y-62395426D01*
X126032095Y-62574929D01*
X125370793Y-62574929D01*
X125370793Y-62411631D01*
X125370109Y-62336959D01*
X125367373Y-62285640D01*
X125361558Y-62250987D01*
X125351638Y-62226309D01*
X125339643Y-62208731D01*
X125298500Y-62176107D01*
X125251971Y-62172244D01*
X125207427Y-62195432D01*
X125195266Y-62207588D01*
X125186677Y-62223703D01*
X125181012Y-62248804D01*
X125177623Y-62287920D01*
X125175862Y-62346078D01*
X125175082Y-62428306D01*
X125174990Y-62447178D01*
X125174346Y-62602107D01*
X125174014Y-62729790D01*
X125174122Y-62833037D01*
X125174799Y-62914661D01*
X125176172Y-62977472D01*
X125178370Y-63024283D01*
X125181520Y-63057905D01*
X125185752Y-63081149D01*
X125191192Y-63096828D01*
X125197969Y-63107753D01*
X125205468Y-63115994D01*
X125247887Y-63142357D01*
X125292126Y-63138776D01*
X125333902Y-63109163D01*
X125350807Y-63090057D01*
X125361583Y-63068953D01*
X125367595Y-63038896D01*
X125370210Y-62992931D01*
X125370793Y-62924104D01*
X125370793Y-62770314D01*
X126032095Y-62770314D01*
X126032095Y-62928125D01*
X126032770Y-63000828D01*
X126035480Y-63049919D01*
X126041255Y-63081828D01*
X126051123Y-63102986D01*
X126062154Y-63115994D01*
X126104573Y-63142357D01*
X126148813Y-63138776D01*
G36*
X124463631Y-63145925D02*
G01*
X124568419Y-63145421D01*
X124649753Y-63144368D01*
X124710934Y-63142588D01*
X124755265Y-63139907D01*
X124786048Y-63136150D01*
X124806585Y-63131139D01*
X124820179Y-63124701D01*
X124826757Y-63119752D01*
X124860898Y-63076435D01*
X124865028Y-63031461D01*
X124843930Y-62990604D01*
X124830133Y-62974278D01*
X124815286Y-62963146D01*
X124793769Y-62956214D01*
X124759962Y-62952487D01*
X124708246Y-62950970D01*
X124633001Y-62950670D01*
X124618223Y-62950669D01*
X124423929Y-62950669D01*
X124423929Y-62589959D01*
X124423801Y-62476263D01*
X124423220Y-62388779D01*
X124421890Y-62323662D01*
X124419514Y-62277066D01*
X124415798Y-62245145D01*
X124410446Y-62224052D01*
X124403161Y-62209941D01*
X124393870Y-62199190D01*
X124350025Y-62172768D01*
X124304254Y-62174850D01*
X124262744Y-62204995D01*
X124259695Y-62208731D01*
X124249766Y-62222854D01*
X124242202Y-62239378D01*
X124236683Y-62262318D01*
X124232887Y-62295691D01*
X124230496Y-62343509D01*
X124229188Y-62409790D01*
X124228645Y-62498546D01*
X124228545Y-62599501D01*
X124228545Y-62950669D01*
X124043004Y-62950669D01*
X123963381Y-62951208D01*
X123908258Y-62953307D01*
X123872086Y-62957693D01*
X123849316Y-62965088D01*
X123834401Y-62976219D01*
X123832590Y-62978154D01*
X123810812Y-63022407D01*
X123812738Y-63072435D01*
X123837775Y-63115994D01*
X123847458Y-63124444D01*
X123859942Y-63131143D01*
X123878557Y-63136295D01*
X123906631Y-63140103D01*
X123947495Y-63142767D01*
X124004476Y-63144492D01*
X124080906Y-63145480D01*
X124180111Y-63145932D01*
X124305423Y-63146052D01*
X124332087Y-63146054D01*
X124463631Y-63145925D01*
X124463631Y-63145925D01*
G37*
X124463631Y-63145925D02*
X124568419Y-63145421D01*
X124649753Y-63144368D01*
X124710934Y-63142588D01*
X124755265Y-63139907D01*
X124786048Y-63136150D01*
X124806585Y-63131139D01*
X124820179Y-63124701D01*
X124826757Y-63119752D01*
X124860898Y-63076435D01*
X124865028Y-63031461D01*
X124843930Y-62990604D01*
X124830133Y-62974278D01*
X124815286Y-62963146D01*
X124793769Y-62956214D01*
X124759962Y-62952487D01*
X124708246Y-62950970D01*
X124633001Y-62950670D01*
X124618223Y-62950669D01*
X124423929Y-62950669D01*
X124423929Y-62589959D01*
X124423801Y-62476263D01*
X124423220Y-62388779D01*
X124421890Y-62323662D01*
X124419514Y-62277066D01*
X124415798Y-62245145D01*
X124410446Y-62224052D01*
X124403161Y-62209941D01*
X124393870Y-62199190D01*
X124350025Y-62172768D01*
X124304254Y-62174850D01*
X124262744Y-62204995D01*
X124259695Y-62208731D01*
X124249766Y-62222854D01*
X124242202Y-62239378D01*
X124236683Y-62262318D01*
X124232887Y-62295691D01*
X124230496Y-62343509D01*
X124229188Y-62409790D01*
X124228645Y-62498546D01*
X124228545Y-62599501D01*
X124228545Y-62950669D01*
X124043004Y-62950669D01*
X123963381Y-62951208D01*
X123908258Y-62953307D01*
X123872086Y-62957693D01*
X123849316Y-62965088D01*
X123834401Y-62976219D01*
X123832590Y-62978154D01*
X123810812Y-63022407D01*
X123812738Y-63072435D01*
X123837775Y-63115994D01*
X123847458Y-63124444D01*
X123859942Y-63131143D01*
X123878557Y-63136295D01*
X123906631Y-63140103D01*
X123947495Y-63142767D01*
X124004476Y-63144492D01*
X124080906Y-63145480D01*
X124180111Y-63145932D01*
X124305423Y-63146052D01*
X124332087Y-63146054D01*
X124463631Y-63145925D01*
G36*
X123432558Y-63136987D02*
G01*
X123464128Y-63117322D01*
X123499610Y-63088591D01*
X123499610Y-62660498D01*
X123499497Y-62535274D01*
X123499013Y-62436617D01*
X123497940Y-62361034D01*
X123496062Y-62305031D01*
X123493160Y-62265117D01*
X123489017Y-62237798D01*
X123483416Y-62219583D01*
X123476139Y-62206978D01*
X123470978Y-62200768D01*
X123429122Y-62173484D01*
X123381459Y-62174597D01*
X123339707Y-62197862D01*
X123304225Y-62226593D01*
X123304225Y-63088591D01*
X123339707Y-63117322D01*
X123373952Y-63138222D01*
X123401917Y-63146054D01*
X123432558Y-63136987D01*
X123432558Y-63136987D01*
G37*
X123432558Y-63136987D02*
X123464128Y-63117322D01*
X123499610Y-63088591D01*
X123499610Y-62660498D01*
X123499497Y-62535274D01*
X123499013Y-62436617D01*
X123497940Y-62361034D01*
X123496062Y-62305031D01*
X123493160Y-62265117D01*
X123489017Y-62237798D01*
X123483416Y-62219583D01*
X123476139Y-62206978D01*
X123470978Y-62200768D01*
X123429122Y-62173484D01*
X123381459Y-62174597D01*
X123339707Y-62197862D01*
X123304225Y-62226593D01*
X123304225Y-63088591D01*
X123339707Y-63117322D01*
X123373952Y-63138222D01*
X123401917Y-63146054D01*
X123432558Y-63136987D01*
G36*
X122841501Y-63143434D02*
G01*
X122867582Y-63134114D01*
X122868588Y-63133658D01*
X122904006Y-63106630D01*
X122923520Y-63078828D01*
X122927338Y-63065792D01*
X122927149Y-63048472D01*
X122921776Y-63023797D01*
X122910042Y-62988700D01*
X122890767Y-62940111D01*
X122862776Y-62874962D01*
X122824890Y-62790183D01*
X122775932Y-62682705D01*
X122748985Y-62623961D01*
X122700324Y-62519091D01*
X122654644Y-62422650D01*
X122613688Y-62338166D01*
X122579200Y-62269164D01*
X122552923Y-62219170D01*
X122536600Y-62191710D01*
X122533370Y-62187917D01*
X122492043Y-62171184D01*
X122445363Y-62173425D01*
X122407924Y-62193777D01*
X122406398Y-62195432D01*
X122391505Y-62217978D01*
X122366523Y-62261893D01*
X122334533Y-62321524D01*
X122298614Y-62391218D01*
X122285706Y-62416901D01*
X122188268Y-62612067D01*
X122082060Y-62400057D01*
X122044151Y-62326803D01*
X122008981Y-62263274D01*
X121979422Y-62214333D01*
X121958348Y-62184842D01*
X121951206Y-62178588D01*
X121895692Y-62170119D01*
X121849883Y-62187917D01*
X121836408Y-62206939D01*
X121813090Y-62249215D01*
X121781831Y-62310584D01*
X121744534Y-62386888D01*
X121703100Y-62473965D01*
X121659432Y-62567657D01*
X121615432Y-62663803D01*
X121573002Y-62758243D01*
X121534044Y-62846819D01*
X121500461Y-62925368D01*
X121474155Y-62989733D01*
X121457028Y-63035753D01*
X121450983Y-63059267D01*
X121451045Y-63060119D01*
X121465754Y-63089708D01*
X121495156Y-63119844D01*
X121496887Y-63121156D01*
X121533024Y-63141582D01*
X121566448Y-63141384D01*
X121578976Y-63137533D01*
X121594241Y-63129211D01*
X121610452Y-63112839D01*
X121629553Y-63085022D01*
X121653489Y-63042364D01*
X121684205Y-62981469D01*
X121723645Y-62898939D01*
X121759212Y-62822757D01*
X121800131Y-62734450D01*
X121836798Y-62655038D01*
X121867308Y-62588668D01*
X121889756Y-62539489D01*
X121902237Y-62511651D01*
X121904057Y-62507296D01*
X121912244Y-62514415D01*
X121931059Y-62544223D01*
X121958000Y-62592368D01*
X121990562Y-62654501D01*
X122003520Y-62680136D01*
X122047414Y-62766699D01*
X122081265Y-62829739D01*
X122107851Y-62872922D01*
X122129949Y-62899912D01*
X122150338Y-62914376D01*
X122171794Y-62919977D01*
X122185777Y-62920610D01*
X122210442Y-62918424D01*
X122232056Y-62909385D01*
X122253532Y-62889767D01*
X122277784Y-62855847D01*
X122307724Y-62803902D01*
X122346267Y-62730206D01*
X122367532Y-62688284D01*
X122402026Y-62621470D01*
X122432110Y-62566063D01*
X122455131Y-62526737D01*
X122468434Y-62508168D01*
X122470243Y-62507395D01*
X122478834Y-62522009D01*
X122498068Y-62559957D01*
X122526019Y-62617268D01*
X122560761Y-62689968D01*
X122600367Y-62774088D01*
X122619850Y-62815870D01*
X122670534Y-62923701D01*
X122711347Y-63006674D01*
X122744408Y-63067498D01*
X122771835Y-63108879D01*
X122795746Y-63133524D01*
X122818262Y-63144140D01*
X122841501Y-63143434D01*
X122841501Y-63143434D01*
G37*
X122841501Y-63143434D02*
X122867582Y-63134114D01*
X122868588Y-63133658D01*
X122904006Y-63106630D01*
X122923520Y-63078828D01*
X122927338Y-63065792D01*
X122927149Y-63048472D01*
X122921776Y-63023797D01*
X122910042Y-62988700D01*
X122890767Y-62940111D01*
X122862776Y-62874962D01*
X122824890Y-62790183D01*
X122775932Y-62682705D01*
X122748985Y-62623961D01*
X122700324Y-62519091D01*
X122654644Y-62422650D01*
X122613688Y-62338166D01*
X122579200Y-62269164D01*
X122552923Y-62219170D01*
X122536600Y-62191710D01*
X122533370Y-62187917D01*
X122492043Y-62171184D01*
X122445363Y-62173425D01*
X122407924Y-62193777D01*
X122406398Y-62195432D01*
X122391505Y-62217978D01*
X122366523Y-62261893D01*
X122334533Y-62321524D01*
X122298614Y-62391218D01*
X122285706Y-62416901D01*
X122188268Y-62612067D01*
X122082060Y-62400057D01*
X122044151Y-62326803D01*
X122008981Y-62263274D01*
X121979422Y-62214333D01*
X121958348Y-62184842D01*
X121951206Y-62178588D01*
X121895692Y-62170119D01*
X121849883Y-62187917D01*
X121836408Y-62206939D01*
X121813090Y-62249215D01*
X121781831Y-62310584D01*
X121744534Y-62386888D01*
X121703100Y-62473965D01*
X121659432Y-62567657D01*
X121615432Y-62663803D01*
X121573002Y-62758243D01*
X121534044Y-62846819D01*
X121500461Y-62925368D01*
X121474155Y-62989733D01*
X121457028Y-63035753D01*
X121450983Y-63059267D01*
X121451045Y-63060119D01*
X121465754Y-63089708D01*
X121495156Y-63119844D01*
X121496887Y-63121156D01*
X121533024Y-63141582D01*
X121566448Y-63141384D01*
X121578976Y-63137533D01*
X121594241Y-63129211D01*
X121610452Y-63112839D01*
X121629553Y-63085022D01*
X121653489Y-63042364D01*
X121684205Y-62981469D01*
X121723645Y-62898939D01*
X121759212Y-62822757D01*
X121800131Y-62734450D01*
X121836798Y-62655038D01*
X121867308Y-62588668D01*
X121889756Y-62539489D01*
X121902237Y-62511651D01*
X121904057Y-62507296D01*
X121912244Y-62514415D01*
X121931059Y-62544223D01*
X121958000Y-62592368D01*
X121990562Y-62654501D01*
X122003520Y-62680136D01*
X122047414Y-62766699D01*
X122081265Y-62829739D01*
X122107851Y-62872922D01*
X122129949Y-62899912D01*
X122150338Y-62914376D01*
X122171794Y-62919977D01*
X122185777Y-62920610D01*
X122210442Y-62918424D01*
X122232056Y-62909385D01*
X122253532Y-62889767D01*
X122277784Y-62855847D01*
X122307724Y-62803902D01*
X122346267Y-62730206D01*
X122367532Y-62688284D01*
X122402026Y-62621470D01*
X122432110Y-62566063D01*
X122455131Y-62526737D01*
X122468434Y-62508168D01*
X122470243Y-62507395D01*
X122478834Y-62522009D01*
X122498068Y-62559957D01*
X122526019Y-62617268D01*
X122560761Y-62689968D01*
X122600367Y-62774088D01*
X122619850Y-62815870D01*
X122670534Y-62923701D01*
X122711347Y-63006674D01*
X122744408Y-63067498D01*
X122771835Y-63108879D01*
X122795746Y-63133524D01*
X122818262Y-63144140D01*
X122841501Y-63143434D01*
G36*
X119211737Y-63145777D02*
G01*
X119383455Y-63139971D01*
X119529509Y-63122363D01*
X119652307Y-63091901D01*
X119754257Y-63047529D01*
X119837768Y-62988193D01*
X119905247Y-62912840D01*
X119959103Y-62820414D01*
X119960162Y-62818160D01*
X119992303Y-62735440D01*
X120003755Y-62662180D01*
X119994474Y-62588452D01*
X119964415Y-62504329D01*
X119958715Y-62491527D01*
X119919839Y-62416602D01*
X119876149Y-62358707D01*
X119819760Y-62309492D01*
X119742792Y-62260607D01*
X119738320Y-62258055D01*
X119671317Y-62225869D01*
X119595585Y-62201832D01*
X119506258Y-62185113D01*
X119398469Y-62174885D01*
X119267352Y-62170318D01*
X119221026Y-62169921D01*
X119000430Y-62169130D01*
X118969280Y-62208731D01*
X118960040Y-62221753D01*
X118952832Y-62236960D01*
X118947404Y-62257998D01*
X118943505Y-62288514D01*
X118940883Y-62332153D01*
X118940028Y-62364515D01*
X119148545Y-62364515D01*
X119273536Y-62364515D01*
X119346677Y-62366654D01*
X119421761Y-62372283D01*
X119483384Y-62380221D01*
X119487103Y-62380889D01*
X119596553Y-62410252D01*
X119681448Y-62454367D01*
X119744472Y-62515281D01*
X119788314Y-62595040D01*
X119795937Y-62616180D01*
X119803410Y-62649102D01*
X119800175Y-62681628D01*
X119784433Y-62724900D01*
X119774944Y-62746157D01*
X119743871Y-62802644D01*
X119706433Y-62842273D01*
X119665241Y-62869870D01*
X119582730Y-62905782D01*
X119477133Y-62931796D01*
X119354118Y-62946776D01*
X119265024Y-62950072D01*
X119148545Y-62950669D01*
X119148545Y-62364515D01*
X118940028Y-62364515D01*
X118939286Y-62392564D01*
X118938464Y-62473392D01*
X118938164Y-62578283D01*
X118938130Y-62660302D01*
X118938130Y-63072272D01*
X118975021Y-63109163D01*
X118991394Y-63124116D01*
X119009097Y-63134356D01*
X119033819Y-63140763D01*
X119071248Y-63144217D01*
X119127073Y-63145597D01*
X119206982Y-63145783D01*
X119211737Y-63145777D01*
X119211737Y-63145777D01*
G37*
X119211737Y-63145777D02*
X119383455Y-63139971D01*
X119529509Y-63122363D01*
X119652307Y-63091901D01*
X119754257Y-63047529D01*
X119837768Y-62988193D01*
X119905247Y-62912840D01*
X119959103Y-62820414D01*
X119960162Y-62818160D01*
X119992303Y-62735440D01*
X120003755Y-62662180D01*
X119994474Y-62588452D01*
X119964415Y-62504329D01*
X119958715Y-62491527D01*
X119919839Y-62416602D01*
X119876149Y-62358707D01*
X119819760Y-62309492D01*
X119742792Y-62260607D01*
X119738320Y-62258055D01*
X119671317Y-62225869D01*
X119595585Y-62201832D01*
X119506258Y-62185113D01*
X119398469Y-62174885D01*
X119267352Y-62170318D01*
X119221026Y-62169921D01*
X119000430Y-62169130D01*
X118969280Y-62208731D01*
X118960040Y-62221753D01*
X118952832Y-62236960D01*
X118947404Y-62257998D01*
X118943505Y-62288514D01*
X118940883Y-62332153D01*
X118940028Y-62364515D01*
X119148545Y-62364515D01*
X119273536Y-62364515D01*
X119346677Y-62366654D01*
X119421761Y-62372283D01*
X119483384Y-62380221D01*
X119487103Y-62380889D01*
X119596553Y-62410252D01*
X119681448Y-62454367D01*
X119744472Y-62515281D01*
X119788314Y-62595040D01*
X119795937Y-62616180D01*
X119803410Y-62649102D01*
X119800175Y-62681628D01*
X119784433Y-62724900D01*
X119774944Y-62746157D01*
X119743871Y-62802644D01*
X119706433Y-62842273D01*
X119665241Y-62869870D01*
X119582730Y-62905782D01*
X119477133Y-62931796D01*
X119354118Y-62946776D01*
X119265024Y-62950072D01*
X119148545Y-62950669D01*
X119148545Y-62364515D01*
X118940028Y-62364515D01*
X118939286Y-62392564D01*
X118938464Y-62473392D01*
X118938164Y-62578283D01*
X118938130Y-62660302D01*
X118938130Y-63072272D01*
X118975021Y-63109163D01*
X118991394Y-63124116D01*
X119009097Y-63134356D01*
X119033819Y-63140763D01*
X119071248Y-63144217D01*
X119127073Y-63145597D01*
X119206982Y-63145783D01*
X119211737Y-63145777D01*
G36*
X118162670Y-63145797D02*
G01*
X118264331Y-63144580D01*
X118342236Y-63141734D01*
X118399535Y-63136590D01*
X118439381Y-63128480D01*
X118464922Y-63116733D01*
X118479311Y-63100682D01*
X118485699Y-63079656D01*
X118487235Y-63052988D01*
X118487243Y-63049838D01*
X118485909Y-63019674D01*
X118479605Y-62996361D01*
X118464876Y-62978958D01*
X118438269Y-62966524D01*
X118396328Y-62958119D01*
X118335600Y-62952799D01*
X118252630Y-62949625D01*
X118143965Y-62947655D01*
X118110659Y-62947219D01*
X117788367Y-62943154D01*
X117783860Y-62856734D01*
X117779352Y-62770314D01*
X118003217Y-62770314D01*
X118090675Y-62769991D01*
X118153123Y-62768627D01*
X118195608Y-62765625D01*
X118223177Y-62760391D01*
X118240876Y-62752329D01*
X118253751Y-62740844D01*
X118253834Y-62740753D01*
X118277184Y-62695993D01*
X118276340Y-62647617D01*
X118251833Y-62606378D01*
X118246983Y-62602139D01*
X118229769Y-62591215D01*
X118206180Y-62583615D01*
X118170961Y-62578767D01*
X118118854Y-62576098D01*
X118044604Y-62575036D01*
X117997116Y-62574929D01*
X117780852Y-62574929D01*
X117780852Y-62364515D01*
X118109174Y-62364515D01*
X118217572Y-62364325D01*
X118299889Y-62363550D01*
X118360103Y-62361880D01*
X118402189Y-62359006D01*
X118430125Y-62354617D01*
X118447888Y-62348405D01*
X118459454Y-62340060D01*
X118462369Y-62337030D01*
X118483890Y-62295030D01*
X118485464Y-62247250D01*
X118467809Y-62205822D01*
X118453839Y-62192527D01*
X118439308Y-62185208D01*
X118416792Y-62179545D01*
X118382730Y-62175341D01*
X118333561Y-62172396D01*
X118265722Y-62170513D01*
X118175652Y-62169494D01*
X118059791Y-62169139D01*
X118033597Y-62169130D01*
X117915793Y-62169208D01*
X117824350Y-62169633D01*
X117755568Y-62170698D01*
X117705750Y-62172695D01*
X117671194Y-62175914D01*
X117648204Y-62180648D01*
X117633080Y-62187187D01*
X117622123Y-62195823D01*
X117616112Y-62202024D01*
X117607064Y-62213007D01*
X117599996Y-62226612D01*
X117594663Y-62246408D01*
X117590822Y-62275962D01*
X117588229Y-62318843D01*
X117586641Y-62378619D01*
X117585815Y-62458857D01*
X117585506Y-62563125D01*
X117585468Y-62650884D01*
X117585562Y-62773856D01*
X117586011Y-62870395D01*
X117587062Y-62944125D01*
X117588964Y-62998674D01*
X117591963Y-63037665D01*
X117596309Y-63064725D01*
X117602248Y-63083480D01*
X117610029Y-63097554D01*
X117616618Y-63106453D01*
X117647768Y-63146054D01*
X118034102Y-63146054D01*
X118162670Y-63145797D01*
X118162670Y-63145797D01*
G37*
X118162670Y-63145797D02*
X118264331Y-63144580D01*
X118342236Y-63141734D01*
X118399535Y-63136590D01*
X118439381Y-63128480D01*
X118464922Y-63116733D01*
X118479311Y-63100682D01*
X118485699Y-63079656D01*
X118487235Y-63052988D01*
X118487243Y-63049838D01*
X118485909Y-63019674D01*
X118479605Y-62996361D01*
X118464876Y-62978958D01*
X118438269Y-62966524D01*
X118396328Y-62958119D01*
X118335600Y-62952799D01*
X118252630Y-62949625D01*
X118143965Y-62947655D01*
X118110659Y-62947219D01*
X117788367Y-62943154D01*
X117783860Y-62856734D01*
X117779352Y-62770314D01*
X118003217Y-62770314D01*
X118090675Y-62769991D01*
X118153123Y-62768627D01*
X118195608Y-62765625D01*
X118223177Y-62760391D01*
X118240876Y-62752329D01*
X118253751Y-62740844D01*
X118253834Y-62740753D01*
X118277184Y-62695993D01*
X118276340Y-62647617D01*
X118251833Y-62606378D01*
X118246983Y-62602139D01*
X118229769Y-62591215D01*
X118206180Y-62583615D01*
X118170961Y-62578767D01*
X118118854Y-62576098D01*
X118044604Y-62575036D01*
X117997116Y-62574929D01*
X117780852Y-62574929D01*
X117780852Y-62364515D01*
X118109174Y-62364515D01*
X118217572Y-62364325D01*
X118299889Y-62363550D01*
X118360103Y-62361880D01*
X118402189Y-62359006D01*
X118430125Y-62354617D01*
X118447888Y-62348405D01*
X118459454Y-62340060D01*
X118462369Y-62337030D01*
X118483890Y-62295030D01*
X118485464Y-62247250D01*
X118467809Y-62205822D01*
X118453839Y-62192527D01*
X118439308Y-62185208D01*
X118416792Y-62179545D01*
X118382730Y-62175341D01*
X118333561Y-62172396D01*
X118265722Y-62170513D01*
X118175652Y-62169494D01*
X118059791Y-62169139D01*
X118033597Y-62169130D01*
X117915793Y-62169208D01*
X117824350Y-62169633D01*
X117755568Y-62170698D01*
X117705750Y-62172695D01*
X117671194Y-62175914D01*
X117648204Y-62180648D01*
X117633080Y-62187187D01*
X117622123Y-62195823D01*
X117616112Y-62202024D01*
X117607064Y-62213007D01*
X117599996Y-62226612D01*
X117594663Y-62246408D01*
X117590822Y-62275962D01*
X117588229Y-62318843D01*
X117586641Y-62378619D01*
X117585815Y-62458857D01*
X117585506Y-62563125D01*
X117585468Y-62650884D01*
X117585562Y-62773856D01*
X117586011Y-62870395D01*
X117587062Y-62944125D01*
X117588964Y-62998674D01*
X117591963Y-63037665D01*
X117596309Y-63064725D01*
X117602248Y-63083480D01*
X117610029Y-63097554D01*
X117616618Y-63106453D01*
X117647768Y-63146054D01*
X118034102Y-63146054D01*
X118162670Y-63145797D01*
G36*
X116125080Y-63140220D02*
G01*
X116156455Y-63121815D01*
X116197478Y-63091715D01*
X116250276Y-63048504D01*
X116316975Y-62990762D01*
X116399701Y-62917072D01*
X116500580Y-62826016D01*
X116616059Y-62721326D01*
X116856533Y-62503257D01*
X116864048Y-62795956D01*
X116866761Y-62896710D01*
X116869378Y-62971742D01*
X116872480Y-63025380D01*
X116876644Y-63061954D01*
X116882449Y-63085793D01*
X116890476Y-63101226D01*
X116901303Y-63112582D01*
X116907044Y-63117354D01*
X116953017Y-63142587D01*
X116996763Y-63138898D01*
X117031465Y-63117341D01*
X117066947Y-63088629D01*
X117071360Y-62669314D01*
X117072581Y-62545993D01*
X117073203Y-62449116D01*
X117073010Y-62375070D01*
X117071786Y-62320243D01*
X117069316Y-62281021D01*
X117065386Y-62253791D01*
X117059780Y-62234941D01*
X117052282Y-62220859D01*
X117043967Y-62209565D01*
X117025978Y-62188618D01*
X117008079Y-62174733D01*
X116987788Y-62169404D01*
X116962622Y-62174124D01*
X116930100Y-62190387D01*
X116887737Y-62219687D01*
X116833052Y-62263518D01*
X116763563Y-62323373D01*
X116676785Y-62400746D01*
X116578485Y-62489650D01*
X116225290Y-62810029D01*
X116217775Y-62518287D01*
X116215057Y-62417717D01*
X116212433Y-62342860D01*
X116209321Y-62289380D01*
X116205138Y-62252938D01*
X116199303Y-62229196D01*
X116191234Y-62213818D01*
X116180349Y-62202464D01*
X116174779Y-62197838D01*
X116125544Y-62172422D01*
X116079023Y-62176255D01*
X116038511Y-62208731D01*
X116029244Y-62221797D01*
X116022021Y-62237055D01*
X116016588Y-62258168D01*
X116012692Y-62288795D01*
X116010079Y-62332598D01*
X116008493Y-62393237D01*
X116007682Y-62474373D01*
X116007392Y-62579667D01*
X116007361Y-62657592D01*
X116007459Y-62779476D01*
X116007921Y-62874961D01*
X116009003Y-62947709D01*
X116010957Y-63001381D01*
X116014038Y-63039637D01*
X116018500Y-63066137D01*
X116024597Y-63084544D01*
X116032583Y-63098516D01*
X116038511Y-63106453D01*
X116053538Y-63125252D01*
X116067582Y-63139447D01*
X116082770Y-63147618D01*
X116101227Y-63148348D01*
X116125080Y-63140220D01*
X116125080Y-63140220D01*
G37*
X116125080Y-63140220D02*
X116156455Y-63121815D01*
X116197478Y-63091715D01*
X116250276Y-63048504D01*
X116316975Y-62990762D01*
X116399701Y-62917072D01*
X116500580Y-62826016D01*
X116616059Y-62721326D01*
X116856533Y-62503257D01*
X116864048Y-62795956D01*
X116866761Y-62896710D01*
X116869378Y-62971742D01*
X116872480Y-63025380D01*
X116876644Y-63061954D01*
X116882449Y-63085793D01*
X116890476Y-63101226D01*
X116901303Y-63112582D01*
X116907044Y-63117354D01*
X116953017Y-63142587D01*
X116996763Y-63138898D01*
X117031465Y-63117341D01*
X117066947Y-63088629D01*
X117071360Y-62669314D01*
X117072581Y-62545993D01*
X117073203Y-62449116D01*
X117073010Y-62375070D01*
X117071786Y-62320243D01*
X117069316Y-62281021D01*
X117065386Y-62253791D01*
X117059780Y-62234941D01*
X117052282Y-62220859D01*
X117043967Y-62209565D01*
X117025978Y-62188618D01*
X117008079Y-62174733D01*
X116987788Y-62169404D01*
X116962622Y-62174124D01*
X116930100Y-62190387D01*
X116887737Y-62219687D01*
X116833052Y-62263518D01*
X116763563Y-62323373D01*
X116676785Y-62400746D01*
X116578485Y-62489650D01*
X116225290Y-62810029D01*
X116217775Y-62518287D01*
X116215057Y-62417717D01*
X116212433Y-62342860D01*
X116209321Y-62289380D01*
X116205138Y-62252938D01*
X116199303Y-62229196D01*
X116191234Y-62213818D01*
X116180349Y-62202464D01*
X116174779Y-62197838D01*
X116125544Y-62172422D01*
X116079023Y-62176255D01*
X116038511Y-62208731D01*
X116029244Y-62221797D01*
X116022021Y-62237055D01*
X116016588Y-62258168D01*
X116012692Y-62288795D01*
X116010079Y-62332598D01*
X116008493Y-62393237D01*
X116007682Y-62474373D01*
X116007392Y-62579667D01*
X116007361Y-62657592D01*
X116007459Y-62779476D01*
X116007921Y-62874961D01*
X116009003Y-62947709D01*
X116010957Y-63001381D01*
X116014038Y-63039637D01*
X116018500Y-63066137D01*
X116024597Y-63084544D01*
X116032583Y-63098516D01*
X116038511Y-63106453D01*
X116053538Y-63125252D01*
X116067582Y-63139447D01*
X116082770Y-63147618D01*
X116101227Y-63148348D01*
X116125080Y-63140220D01*
G36*
X115259738Y-63138688D02*
G01*
X115350959Y-63123382D01*
X115421018Y-63099589D01*
X115466596Y-63068260D01*
X115479016Y-63050386D01*
X115491646Y-63008815D01*
X115483147Y-62971208D01*
X115456315Y-62935545D01*
X115414624Y-62918861D01*
X115354130Y-62920216D01*
X115307341Y-62929255D01*
X115203372Y-62946477D01*
X115097120Y-62948113D01*
X114978191Y-62934135D01*
X114945340Y-62928212D01*
X114834755Y-62897033D01*
X114748241Y-62850654D01*
X114686747Y-62789865D01*
X114651222Y-62715456D01*
X114643875Y-62676986D01*
X114648684Y-62598937D01*
X114679734Y-62529883D01*
X114734194Y-62471171D01*
X114809236Y-62424147D01*
X114902030Y-62390157D01*
X115009748Y-62370546D01*
X115129559Y-62366659D01*
X115258635Y-62379844D01*
X115265923Y-62381088D01*
X115317262Y-62390650D01*
X115345728Y-62399886D01*
X115358066Y-62413591D01*
X115361022Y-62436558D01*
X115361089Y-62448721D01*
X115361089Y-62499781D01*
X115269923Y-62499781D01*
X115189418Y-62505296D01*
X115134479Y-62522870D01*
X115102514Y-62554047D01*
X115090928Y-62600370D01*
X115090787Y-62606416D01*
X115097565Y-62646011D01*
X115120809Y-62674283D01*
X115164070Y-62692993D01*
X115230899Y-62703900D01*
X115295630Y-62707910D01*
X115389713Y-62710211D01*
X115457956Y-62706700D01*
X115504499Y-62693745D01*
X115533482Y-62667714D01*
X115549045Y-62624973D01*
X115555329Y-62561890D01*
X115556474Y-62479036D01*
X115554598Y-62386554D01*
X115548954Y-62323646D01*
X115539518Y-62290061D01*
X115537687Y-62287431D01*
X115485875Y-62245466D01*
X115409910Y-62212232D01*
X115314608Y-62188441D01*
X115204784Y-62174801D01*
X115085254Y-62172022D01*
X114960834Y-62180815D01*
X114887657Y-62191615D01*
X114772880Y-62224102D01*
X114666204Y-62277214D01*
X114576889Y-62346145D01*
X114563314Y-62359922D01*
X114519208Y-62417842D01*
X114479411Y-62489624D01*
X114448573Y-62564881D01*
X114431343Y-62633223D01*
X114429266Y-62659471D01*
X114438107Y-62714223D01*
X114461605Y-62782345D01*
X114495251Y-62854050D01*
X114534536Y-62919551D01*
X114569245Y-62963302D01*
X114650397Y-63028381D01*
X114755302Y-63080179D01*
X114880200Y-63117526D01*
X115021333Y-63139247D01*
X115150675Y-63144555D01*
X115259738Y-63138688D01*
X115259738Y-63138688D01*
G37*
X115259738Y-63138688D02*
X115350959Y-63123382D01*
X115421018Y-63099589D01*
X115466596Y-63068260D01*
X115479016Y-63050386D01*
X115491646Y-63008815D01*
X115483147Y-62971208D01*
X115456315Y-62935545D01*
X115414624Y-62918861D01*
X115354130Y-62920216D01*
X115307341Y-62929255D01*
X115203372Y-62946477D01*
X115097120Y-62948113D01*
X114978191Y-62934135D01*
X114945340Y-62928212D01*
X114834755Y-62897033D01*
X114748241Y-62850654D01*
X114686747Y-62789865D01*
X114651222Y-62715456D01*
X114643875Y-62676986D01*
X114648684Y-62598937D01*
X114679734Y-62529883D01*
X114734194Y-62471171D01*
X114809236Y-62424147D01*
X114902030Y-62390157D01*
X115009748Y-62370546D01*
X115129559Y-62366659D01*
X115258635Y-62379844D01*
X115265923Y-62381088D01*
X115317262Y-62390650D01*
X115345728Y-62399886D01*
X115358066Y-62413591D01*
X115361022Y-62436558D01*
X115361089Y-62448721D01*
X115361089Y-62499781D01*
X115269923Y-62499781D01*
X115189418Y-62505296D01*
X115134479Y-62522870D01*
X115102514Y-62554047D01*
X115090928Y-62600370D01*
X115090787Y-62606416D01*
X115097565Y-62646011D01*
X115120809Y-62674283D01*
X115164070Y-62692993D01*
X115230899Y-62703900D01*
X115295630Y-62707910D01*
X115389713Y-62710211D01*
X115457956Y-62706700D01*
X115504499Y-62693745D01*
X115533482Y-62667714D01*
X115549045Y-62624973D01*
X115555329Y-62561890D01*
X115556474Y-62479036D01*
X115554598Y-62386554D01*
X115548954Y-62323646D01*
X115539518Y-62290061D01*
X115537687Y-62287431D01*
X115485875Y-62245466D01*
X115409910Y-62212232D01*
X115314608Y-62188441D01*
X115204784Y-62174801D01*
X115085254Y-62172022D01*
X114960834Y-62180815D01*
X114887657Y-62191615D01*
X114772880Y-62224102D01*
X114666204Y-62277214D01*
X114576889Y-62346145D01*
X114563314Y-62359922D01*
X114519208Y-62417842D01*
X114479411Y-62489624D01*
X114448573Y-62564881D01*
X114431343Y-62633223D01*
X114429266Y-62659471D01*
X114438107Y-62714223D01*
X114461605Y-62782345D01*
X114495251Y-62854050D01*
X114534536Y-62919551D01*
X114569245Y-62963302D01*
X114650397Y-63028381D01*
X114755302Y-63080179D01*
X114880200Y-63117526D01*
X115021333Y-63139247D01*
X115150675Y-63144555D01*
X115259738Y-63138688D01*
G36*
X113963337Y-63115994D02*
G01*
X113972099Y-63105912D01*
X113978972Y-63092905D01*
X113984185Y-63073489D01*
X113987966Y-63044180D01*
X113990544Y-63001493D01*
X113992147Y-62941945D01*
X113993005Y-62862050D01*
X113993344Y-62758324D01*
X113993397Y-62657592D01*
X113993304Y-62532648D01*
X113992873Y-62434279D01*
X113991877Y-62358999D01*
X113990085Y-62303326D01*
X113987271Y-62263774D01*
X113983204Y-62236859D01*
X113977658Y-62219097D01*
X113970403Y-62207003D01*
X113963337Y-62199190D01*
X113919398Y-62172988D01*
X113872580Y-62175339D01*
X113830691Y-62203916D01*
X113821066Y-62215073D01*
X113813545Y-62228017D01*
X113807866Y-62246328D01*
X113803773Y-62273582D01*
X113801005Y-62313360D01*
X113799304Y-62369238D01*
X113798411Y-62444796D01*
X113798067Y-62543612D01*
X113798012Y-62655486D01*
X113798012Y-63072272D01*
X113834903Y-63109163D01*
X113880375Y-63140200D01*
X113924484Y-63141319D01*
X113963337Y-63115994D01*
X113963337Y-63115994D01*
G37*
X113963337Y-63115994D02*
X113972099Y-63105912D01*
X113978972Y-63092905D01*
X113984185Y-63073489D01*
X113987966Y-63044180D01*
X113990544Y-63001493D01*
X113992147Y-62941945D01*
X113993005Y-62862050D01*
X113993344Y-62758324D01*
X113993397Y-62657592D01*
X113993304Y-62532648D01*
X113992873Y-62434279D01*
X113991877Y-62358999D01*
X113990085Y-62303326D01*
X113987271Y-62263774D01*
X113983204Y-62236859D01*
X113977658Y-62219097D01*
X113970403Y-62207003D01*
X113963337Y-62199190D01*
X113919398Y-62172988D01*
X113872580Y-62175339D01*
X113830691Y-62203916D01*
X113821066Y-62215073D01*
X113813545Y-62228017D01*
X113807866Y-62246328D01*
X113803773Y-62273582D01*
X113801005Y-62313360D01*
X113799304Y-62369238D01*
X113798411Y-62444796D01*
X113798067Y-62543612D01*
X113798012Y-62655486D01*
X113798012Y-63072272D01*
X113834903Y-63109163D01*
X113880375Y-63140200D01*
X113924484Y-63141319D01*
X113963337Y-63115994D01*
G36*
X112941012Y-63144343D02*
G01*
X113040617Y-63137380D01*
X113133256Y-63126505D01*
X113213542Y-63112126D01*
X113276092Y-63094654D01*
X113315519Y-63074498D01*
X113321571Y-63068565D01*
X113342616Y-63022525D01*
X113336234Y-62975260D01*
X113303593Y-62934822D01*
X113302036Y-62933663D01*
X113282837Y-62921203D01*
X113262795Y-62914651D01*
X113234840Y-62913856D01*
X113191901Y-62918664D01*
X113126909Y-62928925D01*
X113121681Y-62929789D01*
X113024839Y-62941686D01*
X112920356Y-62947555D01*
X112815565Y-62947612D01*
X112717798Y-62942073D01*
X112634388Y-62931155D01*
X112572667Y-62915075D01*
X112568612Y-62913459D01*
X112523836Y-62888371D01*
X112508104Y-62862982D01*
X112520420Y-62838013D01*
X112559785Y-62814184D01*
X112625202Y-62792218D01*
X112715674Y-62772834D01*
X112776000Y-62763502D01*
X112901400Y-62745551D01*
X113001135Y-62729141D01*
X113079454Y-62712852D01*
X113140607Y-62695262D01*
X113188841Y-62674951D01*
X113228405Y-62650497D01*
X113263548Y-62620480D01*
X113291789Y-62591004D01*
X113325292Y-62549933D01*
X113341781Y-62514618D01*
X113346937Y-62471107D01*
X113347124Y-62455172D01*
X113343252Y-62402295D01*
X113327773Y-62362957D01*
X113300985Y-62328040D01*
X113246541Y-62274666D01*
X113185830Y-62233962D01*
X113114342Y-62204600D01*
X113027564Y-62185253D01*
X112920986Y-62174594D01*
X112790097Y-62171295D01*
X112768485Y-62171351D01*
X112681202Y-62173160D01*
X112594641Y-62177271D01*
X112518238Y-62183094D01*
X112461430Y-62190039D01*
X112456836Y-62190836D01*
X112400355Y-62204216D01*
X112352448Y-62221118D01*
X112325327Y-62236569D01*
X112300089Y-62277334D01*
X112298331Y-62324802D01*
X112320088Y-62367105D01*
X112324956Y-62371888D01*
X112345078Y-62386101D01*
X112370242Y-62392224D01*
X112409187Y-62391182D01*
X112456465Y-62385766D01*
X112509295Y-62380927D01*
X112583352Y-62376845D01*
X112669809Y-62373882D01*
X112759837Y-62372403D01*
X112783515Y-62372306D01*
X112873878Y-62372670D01*
X112940011Y-62374424D01*
X112987733Y-62378177D01*
X113022862Y-62384537D01*
X113051218Y-62394113D01*
X113068259Y-62402089D01*
X113105704Y-62424235D01*
X113129579Y-62444292D01*
X113133068Y-62449977D01*
X113125707Y-62473455D01*
X113090713Y-62496183D01*
X113030512Y-62517130D01*
X112947529Y-62535264D01*
X112923080Y-62539303D01*
X112795378Y-62559361D01*
X112693460Y-62576126D01*
X112613394Y-62590817D01*
X112551246Y-62604652D01*
X112503082Y-62618849D01*
X112464968Y-62634627D01*
X112432970Y-62653204D01*
X112403156Y-62675798D01*
X112371590Y-62703627D01*
X112360968Y-62713384D01*
X112323727Y-62749798D01*
X112304013Y-62778648D01*
X112296301Y-62811662D01*
X112295053Y-62853265D01*
X112308785Y-62934849D01*
X112349822Y-63004166D01*
X112417930Y-63060992D01*
X112512873Y-63105103D01*
X112580616Y-63124888D01*
X112654241Y-63137667D01*
X112742439Y-63144896D01*
X112839824Y-63146985D01*
X112941012Y-63144343D01*
X112941012Y-63144343D01*
G37*
X112941012Y-63144343D02*
X113040617Y-63137380D01*
X113133256Y-63126505D01*
X113213542Y-63112126D01*
X113276092Y-63094654D01*
X113315519Y-63074498D01*
X113321571Y-63068565D01*
X113342616Y-63022525D01*
X113336234Y-62975260D01*
X113303593Y-62934822D01*
X113302036Y-62933663D01*
X113282837Y-62921203D01*
X113262795Y-62914651D01*
X113234840Y-62913856D01*
X113191901Y-62918664D01*
X113126909Y-62928925D01*
X113121681Y-62929789D01*
X113024839Y-62941686D01*
X112920356Y-62947555D01*
X112815565Y-62947612D01*
X112717798Y-62942073D01*
X112634388Y-62931155D01*
X112572667Y-62915075D01*
X112568612Y-62913459D01*
X112523836Y-62888371D01*
X112508104Y-62862982D01*
X112520420Y-62838013D01*
X112559785Y-62814184D01*
X112625202Y-62792218D01*
X112715674Y-62772834D01*
X112776000Y-62763502D01*
X112901400Y-62745551D01*
X113001135Y-62729141D01*
X113079454Y-62712852D01*
X113140607Y-62695262D01*
X113188841Y-62674951D01*
X113228405Y-62650497D01*
X113263548Y-62620480D01*
X113291789Y-62591004D01*
X113325292Y-62549933D01*
X113341781Y-62514618D01*
X113346937Y-62471107D01*
X113347124Y-62455172D01*
X113343252Y-62402295D01*
X113327773Y-62362957D01*
X113300985Y-62328040D01*
X113246541Y-62274666D01*
X113185830Y-62233962D01*
X113114342Y-62204600D01*
X113027564Y-62185253D01*
X112920986Y-62174594D01*
X112790097Y-62171295D01*
X112768485Y-62171351D01*
X112681202Y-62173160D01*
X112594641Y-62177271D01*
X112518238Y-62183094D01*
X112461430Y-62190039D01*
X112456836Y-62190836D01*
X112400355Y-62204216D01*
X112352448Y-62221118D01*
X112325327Y-62236569D01*
X112300089Y-62277334D01*
X112298331Y-62324802D01*
X112320088Y-62367105D01*
X112324956Y-62371888D01*
X112345078Y-62386101D01*
X112370242Y-62392224D01*
X112409187Y-62391182D01*
X112456465Y-62385766D01*
X112509295Y-62380927D01*
X112583352Y-62376845D01*
X112669809Y-62373882D01*
X112759837Y-62372403D01*
X112783515Y-62372306D01*
X112873878Y-62372670D01*
X112940011Y-62374424D01*
X112987733Y-62378177D01*
X113022862Y-62384537D01*
X113051218Y-62394113D01*
X113068259Y-62402089D01*
X113105704Y-62424235D01*
X113129579Y-62444292D01*
X113133068Y-62449977D01*
X113125707Y-62473455D01*
X113090713Y-62496183D01*
X113030512Y-62517130D01*
X112947529Y-62535264D01*
X112923080Y-62539303D01*
X112795378Y-62559361D01*
X112693460Y-62576126D01*
X112613394Y-62590817D01*
X112551246Y-62604652D01*
X112503082Y-62618849D01*
X112464968Y-62634627D01*
X112432970Y-62653204D01*
X112403156Y-62675798D01*
X112371590Y-62703627D01*
X112360968Y-62713384D01*
X112323727Y-62749798D01*
X112304013Y-62778648D01*
X112296301Y-62811662D01*
X112295053Y-62853265D01*
X112308785Y-62934849D01*
X112349822Y-63004166D01*
X112417930Y-63060992D01*
X112512873Y-63105103D01*
X112580616Y-63124888D01*
X112654241Y-63137667D01*
X112742439Y-63144896D01*
X112839824Y-63146985D01*
X112941012Y-63144343D01*
G36*
X111581570Y-63145948D02*
G01*
X111673978Y-63145452D01*
X111743727Y-63144299D01*
X111794517Y-63142220D01*
X111830049Y-63138949D01*
X111854022Y-63134217D01*
X111870136Y-63127757D01*
X111882091Y-63119301D01*
X111886421Y-63115409D01*
X111912749Y-63074060D01*
X111917489Y-63026548D01*
X111900170Y-62984369D01*
X111892161Y-62975844D01*
X111879208Y-62967579D01*
X111858352Y-62961203D01*
X111825724Y-62956405D01*
X111777458Y-62952876D01*
X111709686Y-62950306D01*
X111618540Y-62948383D01*
X111535209Y-62947213D01*
X111205408Y-62943154D01*
X111196394Y-62770314D01*
X111420258Y-62770314D01*
X111517446Y-62769475D01*
X111588597Y-62765968D01*
X111637709Y-62758305D01*
X111668783Y-62744997D01*
X111685816Y-62724559D01*
X111692808Y-62695501D01*
X111693870Y-62668533D01*
X111690570Y-62635443D01*
X111678117Y-62611060D01*
X111652680Y-62594111D01*
X111610429Y-62583321D01*
X111547534Y-62577416D01*
X111460165Y-62575123D01*
X111412479Y-62574929D01*
X111197894Y-62574929D01*
X111197894Y-62364515D01*
X111528545Y-62364515D01*
X111636930Y-62364364D01*
X111719303Y-62363686D01*
X111779711Y-62362144D01*
X111822201Y-62359401D01*
X111850819Y-62355119D01*
X111869612Y-62348961D01*
X111882626Y-62340591D01*
X111889255Y-62334456D01*
X111911993Y-62298651D01*
X111919314Y-62266823D01*
X111908861Y-62227946D01*
X111889255Y-62199190D01*
X111878795Y-62190137D01*
X111865292Y-62183107D01*
X111845114Y-62177846D01*
X111814629Y-62174099D01*
X111770205Y-62171610D01*
X111708209Y-62170125D01*
X111625009Y-62169389D01*
X111516973Y-62169146D01*
X111460911Y-62169130D01*
X111340856Y-62169237D01*
X111247226Y-62169725D01*
X111176391Y-62170851D01*
X111124719Y-62172869D01*
X111088577Y-62176034D01*
X111064332Y-62180601D01*
X111048353Y-62186824D01*
X111037007Y-62194960D01*
X111032568Y-62199190D01*
X111023783Y-62209304D01*
X111016896Y-62222352D01*
X111011679Y-62241830D01*
X111007901Y-62271236D01*
X111005330Y-62314066D01*
X111003736Y-62373816D01*
X111002889Y-62453983D01*
X111002558Y-62558063D01*
X111002509Y-62654972D01*
X111002554Y-62779077D01*
X111002866Y-62876634D01*
X111003712Y-62951154D01*
X111005358Y-63006149D01*
X111008071Y-63045130D01*
X111012117Y-63071607D01*
X111017763Y-63089094D01*
X111025274Y-63101100D01*
X111034918Y-63111137D01*
X111037294Y-63113374D01*
X111048825Y-63123281D01*
X111062222Y-63130952D01*
X111081204Y-63136674D01*
X111109485Y-63140732D01*
X111150782Y-63143412D01*
X111208812Y-63144998D01*
X111287291Y-63145776D01*
X111389934Y-63146032D01*
X111462804Y-63146054D01*
X111581570Y-63145948D01*
X111581570Y-63145948D01*
G37*
X111581570Y-63145948D02*
X111673978Y-63145452D01*
X111743727Y-63144299D01*
X111794517Y-63142220D01*
X111830049Y-63138949D01*
X111854022Y-63134217D01*
X111870136Y-63127757D01*
X111882091Y-63119301D01*
X111886421Y-63115409D01*
X111912749Y-63074060D01*
X111917489Y-63026548D01*
X111900170Y-62984369D01*
X111892161Y-62975844D01*
X111879208Y-62967579D01*
X111858352Y-62961203D01*
X111825724Y-62956405D01*
X111777458Y-62952876D01*
X111709686Y-62950306D01*
X111618540Y-62948383D01*
X111535209Y-62947213D01*
X111205408Y-62943154D01*
X111196394Y-62770314D01*
X111420258Y-62770314D01*
X111517446Y-62769475D01*
X111588597Y-62765968D01*
X111637709Y-62758305D01*
X111668783Y-62744997D01*
X111685816Y-62724559D01*
X111692808Y-62695501D01*
X111693870Y-62668533D01*
X111690570Y-62635443D01*
X111678117Y-62611060D01*
X111652680Y-62594111D01*
X111610429Y-62583321D01*
X111547534Y-62577416D01*
X111460165Y-62575123D01*
X111412479Y-62574929D01*
X111197894Y-62574929D01*
X111197894Y-62364515D01*
X111528545Y-62364515D01*
X111636930Y-62364364D01*
X111719303Y-62363686D01*
X111779711Y-62362144D01*
X111822201Y-62359401D01*
X111850819Y-62355119D01*
X111869612Y-62348961D01*
X111882626Y-62340591D01*
X111889255Y-62334456D01*
X111911993Y-62298651D01*
X111919314Y-62266823D01*
X111908861Y-62227946D01*
X111889255Y-62199190D01*
X111878795Y-62190137D01*
X111865292Y-62183107D01*
X111845114Y-62177846D01*
X111814629Y-62174099D01*
X111770205Y-62171610D01*
X111708209Y-62170125D01*
X111625009Y-62169389D01*
X111516973Y-62169146D01*
X111460911Y-62169130D01*
X111340856Y-62169237D01*
X111247226Y-62169725D01*
X111176391Y-62170851D01*
X111124719Y-62172869D01*
X111088577Y-62176034D01*
X111064332Y-62180601D01*
X111048353Y-62186824D01*
X111037007Y-62194960D01*
X111032568Y-62199190D01*
X111023783Y-62209304D01*
X111016896Y-62222352D01*
X111011679Y-62241830D01*
X111007901Y-62271236D01*
X111005330Y-62314066D01*
X111003736Y-62373816D01*
X111002889Y-62453983D01*
X111002558Y-62558063D01*
X111002509Y-62654972D01*
X111002554Y-62779077D01*
X111002866Y-62876634D01*
X111003712Y-62951154D01*
X111005358Y-63006149D01*
X111008071Y-63045130D01*
X111012117Y-63071607D01*
X111017763Y-63089094D01*
X111025274Y-63101100D01*
X111034918Y-63111137D01*
X111037294Y-63113374D01*
X111048825Y-63123281D01*
X111062222Y-63130952D01*
X111081204Y-63136674D01*
X111109485Y-63140732D01*
X111150782Y-63143412D01*
X111208812Y-63144998D01*
X111287291Y-63145776D01*
X111389934Y-63146032D01*
X111462804Y-63146054D01*
X111581570Y-63145948D01*
G36*
X109706246Y-63146055D02*
G01*
X109758811Y-63145520D01*
X109912835Y-63141804D01*
X110041829Y-63130765D01*
X110150191Y-63111218D01*
X110242316Y-63081981D01*
X110322601Y-63041867D01*
X110395442Y-62989695D01*
X110421459Y-62967031D01*
X110464617Y-62914002D01*
X110503533Y-62842043D01*
X110533527Y-62762280D01*
X110549919Y-62685839D01*
X110551622Y-62657592D01*
X110540949Y-62579290D01*
X110512347Y-62493759D01*
X110470943Y-62412801D01*
X110421859Y-62348218D01*
X110413887Y-62340426D01*
X110346354Y-62285656D01*
X110272402Y-62242901D01*
X110187766Y-62211041D01*
X110088183Y-62188956D01*
X109969388Y-62175526D01*
X109827120Y-62169630D01*
X109761954Y-62169130D01*
X109679099Y-62169529D01*
X109620831Y-62171198D01*
X109581684Y-62174842D01*
X109556191Y-62181171D01*
X109538886Y-62190890D01*
X109529610Y-62199190D01*
X109520848Y-62209272D01*
X109513975Y-62222279D01*
X109508762Y-62241695D01*
X109504981Y-62271004D01*
X109502403Y-62313691D01*
X109500800Y-62373239D01*
X109499943Y-62453134D01*
X109499603Y-62556859D01*
X109499551Y-62657592D01*
X109499220Y-62791945D01*
X109499292Y-62899272D01*
X109500570Y-62950669D01*
X109694935Y-62950669D01*
X109694935Y-62364515D01*
X109818929Y-62364629D01*
X109893539Y-62366768D01*
X109971682Y-62372281D01*
X110036880Y-62379992D01*
X110038864Y-62380309D01*
X110144237Y-62405786D01*
X110225968Y-62445464D01*
X110288138Y-62501926D01*
X110327640Y-62563058D01*
X110351980Y-62630871D01*
X110350093Y-62694545D01*
X110321845Y-62762799D01*
X110266592Y-62833408D01*
X110190027Y-62885729D01*
X110090505Y-62920701D01*
X110023993Y-62933078D01*
X109948493Y-62941770D01*
X109868475Y-62948060D01*
X109800416Y-62950676D01*
X109796385Y-62950688D01*
X109694935Y-62950669D01*
X109500570Y-62950669D01*
X109501364Y-62982583D01*
X109507039Y-63044885D01*
X109517913Y-63089189D01*
X109535586Y-63118504D01*
X109561657Y-63135839D01*
X109597725Y-63144203D01*
X109645388Y-63146605D01*
X109706246Y-63146055D01*
X109706246Y-63146055D01*
G37*
X109706246Y-63146055D02*
X109758811Y-63145520D01*
X109912835Y-63141804D01*
X110041829Y-63130765D01*
X110150191Y-63111218D01*
X110242316Y-63081981D01*
X110322601Y-63041867D01*
X110395442Y-62989695D01*
X110421459Y-62967031D01*
X110464617Y-62914002D01*
X110503533Y-62842043D01*
X110533527Y-62762280D01*
X110549919Y-62685839D01*
X110551622Y-62657592D01*
X110540949Y-62579290D01*
X110512347Y-62493759D01*
X110470943Y-62412801D01*
X110421859Y-62348218D01*
X110413887Y-62340426D01*
X110346354Y-62285656D01*
X110272402Y-62242901D01*
X110187766Y-62211041D01*
X110088183Y-62188956D01*
X109969388Y-62175526D01*
X109827120Y-62169630D01*
X109761954Y-62169130D01*
X109679099Y-62169529D01*
X109620831Y-62171198D01*
X109581684Y-62174842D01*
X109556191Y-62181171D01*
X109538886Y-62190890D01*
X109529610Y-62199190D01*
X109520848Y-62209272D01*
X109513975Y-62222279D01*
X109508762Y-62241695D01*
X109504981Y-62271004D01*
X109502403Y-62313691D01*
X109500800Y-62373239D01*
X109499943Y-62453134D01*
X109499603Y-62556859D01*
X109499551Y-62657592D01*
X109499220Y-62791945D01*
X109499292Y-62899272D01*
X109500570Y-62950669D01*
X109694935Y-62950669D01*
X109694935Y-62364515D01*
X109818929Y-62364629D01*
X109893539Y-62366768D01*
X109971682Y-62372281D01*
X110036880Y-62379992D01*
X110038864Y-62380309D01*
X110144237Y-62405786D01*
X110225968Y-62445464D01*
X110288138Y-62501926D01*
X110327640Y-62563058D01*
X110351980Y-62630871D01*
X110350093Y-62694545D01*
X110321845Y-62762799D01*
X110266592Y-62833408D01*
X110190027Y-62885729D01*
X110090505Y-62920701D01*
X110023993Y-62933078D01*
X109948493Y-62941770D01*
X109868475Y-62948060D01*
X109800416Y-62950676D01*
X109796385Y-62950688D01*
X109694935Y-62950669D01*
X109500570Y-62950669D01*
X109501364Y-62982583D01*
X109507039Y-63044885D01*
X109517913Y-63089189D01*
X109535586Y-63118504D01*
X109561657Y-63135839D01*
X109597725Y-63144203D01*
X109645388Y-63146605D01*
X109706246Y-63146055D01*
M02*
