G04 #@! TF.GenerationSoftware,KiCad,Pcbnew,5.0.2+dfsg1-1~bpo9+1*
G04 #@! TF.CreationDate,2019-09-13T19:08:42+10:00*
G04 #@! TF.ProjectId,interface,696e7465-7266-4616-9365-2e6b69636164,rev?*
G04 #@! TF.SameCoordinates,Original*
G04 #@! TF.FileFunction,Soldermask,Bot*
G04 #@! TF.FilePolarity,Negative*
%FSLAX46Y46*%
G04 Gerber Fmt 4.6, Leading zero omitted, Abs format (unit mm)*
G04 Created by KiCad (PCBNEW 5.0.2+dfsg1-1~bpo9+1) date Пт 13 сен 2019 19:08:42*
%MOMM*%
%LPD*%
G01*
G04 APERTURE LIST*
%ADD10C,0.100000*%
G04 APERTURE END LIST*
D10*
G36*
X125205443Y-98165519D02*
X125271627Y-98172037D01*
X125384853Y-98206384D01*
X125441467Y-98223557D01*
X125580087Y-98297652D01*
X125597991Y-98307222D01*
X125633729Y-98336552D01*
X125735186Y-98419814D01*
X125818448Y-98521271D01*
X125847778Y-98557009D01*
X125847779Y-98557011D01*
X125931443Y-98713533D01*
X125946562Y-98763375D01*
X125982963Y-98883373D01*
X126000359Y-99060000D01*
X125982963Y-99236627D01*
X125967844Y-99286467D01*
X125931443Y-99406467D01*
X125911921Y-99442989D01*
X125847778Y-99562991D01*
X125833667Y-99580185D01*
X125735186Y-99700186D01*
X125642265Y-99776443D01*
X125597991Y-99812778D01*
X125597989Y-99812779D01*
X125441467Y-99896443D01*
X125384853Y-99913616D01*
X125271627Y-99947963D01*
X125205443Y-99954481D01*
X125139260Y-99961000D01*
X125050740Y-99961000D01*
X124984557Y-99954481D01*
X124918373Y-99947963D01*
X124805147Y-99913616D01*
X124748533Y-99896443D01*
X124592011Y-99812779D01*
X124592009Y-99812778D01*
X124547735Y-99776443D01*
X124454814Y-99700186D01*
X124356333Y-99580185D01*
X124342222Y-99562991D01*
X124278079Y-99442989D01*
X124258557Y-99406467D01*
X124222156Y-99286467D01*
X124207037Y-99236627D01*
X124189641Y-99060000D01*
X124207037Y-98883373D01*
X124243438Y-98763375D01*
X124258557Y-98713533D01*
X124342221Y-98557011D01*
X124342222Y-98557009D01*
X124371552Y-98521271D01*
X124454814Y-98419814D01*
X124556271Y-98336552D01*
X124592009Y-98307222D01*
X124609913Y-98297652D01*
X124748533Y-98223557D01*
X124805147Y-98206384D01*
X124918373Y-98172037D01*
X124984557Y-98165519D01*
X125050740Y-98159000D01*
X125139260Y-98159000D01*
X125205443Y-98165519D01*
X125205443Y-98165519D01*
G37*
G36*
X127745443Y-98165519D02*
X127811627Y-98172037D01*
X127924853Y-98206384D01*
X127981467Y-98223557D01*
X128120087Y-98297652D01*
X128137991Y-98307222D01*
X128173729Y-98336552D01*
X128275186Y-98419814D01*
X128358448Y-98521271D01*
X128387778Y-98557009D01*
X128387779Y-98557011D01*
X128471443Y-98713533D01*
X128486562Y-98763375D01*
X128522963Y-98883373D01*
X128540359Y-99060000D01*
X128522963Y-99236627D01*
X128507844Y-99286467D01*
X128471443Y-99406467D01*
X128451921Y-99442989D01*
X128387778Y-99562991D01*
X128373667Y-99580185D01*
X128275186Y-99700186D01*
X128182265Y-99776443D01*
X128137991Y-99812778D01*
X128137989Y-99812779D01*
X127981467Y-99896443D01*
X127924853Y-99913616D01*
X127811627Y-99947963D01*
X127745443Y-99954481D01*
X127679260Y-99961000D01*
X127590740Y-99961000D01*
X127524557Y-99954481D01*
X127458373Y-99947963D01*
X127345147Y-99913616D01*
X127288533Y-99896443D01*
X127132011Y-99812779D01*
X127132009Y-99812778D01*
X127087735Y-99776443D01*
X126994814Y-99700186D01*
X126896333Y-99580185D01*
X126882222Y-99562991D01*
X126818079Y-99442989D01*
X126798557Y-99406467D01*
X126762156Y-99286467D01*
X126747037Y-99236627D01*
X126729641Y-99060000D01*
X126747037Y-98883373D01*
X126783438Y-98763375D01*
X126798557Y-98713533D01*
X126882221Y-98557011D01*
X126882222Y-98557009D01*
X126911552Y-98521271D01*
X126994814Y-98419814D01*
X127096271Y-98336552D01*
X127132009Y-98307222D01*
X127149913Y-98297652D01*
X127288533Y-98223557D01*
X127345147Y-98206384D01*
X127458373Y-98172037D01*
X127524557Y-98165519D01*
X127590740Y-98159000D01*
X127679260Y-98159000D01*
X127745443Y-98165519D01*
X127745443Y-98165519D01*
G37*
G36*
X101327443Y-98045519D02*
X101393627Y-98052037D01*
X101506853Y-98086384D01*
X101563467Y-98103557D01*
X101667192Y-98159000D01*
X101719991Y-98187222D01*
X101755729Y-98216552D01*
X101857186Y-98299814D01*
X101940448Y-98401271D01*
X101969778Y-98437009D01*
X101969779Y-98437011D01*
X102053443Y-98593533D01*
X102053443Y-98593534D01*
X102104963Y-98763373D01*
X102122359Y-98940000D01*
X102104963Y-99116627D01*
X102070616Y-99229853D01*
X102053443Y-99286467D01*
X101989301Y-99406466D01*
X101969778Y-99442991D01*
X101940448Y-99478729D01*
X101857186Y-99580186D01*
X101755729Y-99663448D01*
X101719991Y-99692778D01*
X101719989Y-99692779D01*
X101563467Y-99776443D01*
X101506853Y-99793616D01*
X101393627Y-99827963D01*
X101327443Y-99834481D01*
X101261260Y-99841000D01*
X100922740Y-99841000D01*
X100856557Y-99834481D01*
X100790373Y-99827963D01*
X100677147Y-99793616D01*
X100620533Y-99776443D01*
X100464011Y-99692779D01*
X100464009Y-99692778D01*
X100428271Y-99663448D01*
X100326814Y-99580186D01*
X100243552Y-99478729D01*
X100214222Y-99442991D01*
X100194699Y-99406466D01*
X100130557Y-99286467D01*
X100113384Y-99229853D01*
X100079037Y-99116627D01*
X100061641Y-98940000D01*
X100079037Y-98763373D01*
X100130557Y-98593534D01*
X100130557Y-98593533D01*
X100214221Y-98437011D01*
X100214222Y-98437009D01*
X100243552Y-98401271D01*
X100326814Y-98299814D01*
X100428271Y-98216552D01*
X100464009Y-98187222D01*
X100516808Y-98159000D01*
X100620533Y-98103557D01*
X100677147Y-98086384D01*
X100790373Y-98052037D01*
X100856557Y-98045519D01*
X100922740Y-98039000D01*
X101261260Y-98039000D01*
X101327443Y-98045519D01*
X101327443Y-98045519D01*
G37*
G36*
X127745442Y-95625518D02*
X127811627Y-95632037D01*
X127924853Y-95666384D01*
X127981467Y-95683557D01*
X128120087Y-95757652D01*
X128137991Y-95767222D01*
X128173729Y-95796552D01*
X128275186Y-95879814D01*
X128358448Y-95981271D01*
X128387778Y-96017009D01*
X128387779Y-96017011D01*
X128471443Y-96173533D01*
X128471443Y-96173534D01*
X128522963Y-96343373D01*
X128540359Y-96520000D01*
X128522963Y-96696627D01*
X128495711Y-96786466D01*
X128471443Y-96866467D01*
X128430539Y-96942991D01*
X128387778Y-97022991D01*
X128358448Y-97058729D01*
X128275186Y-97160186D01*
X128173729Y-97243448D01*
X128137991Y-97272778D01*
X128137989Y-97272779D01*
X127981467Y-97356443D01*
X127924853Y-97373616D01*
X127811627Y-97407963D01*
X127745442Y-97414482D01*
X127679260Y-97421000D01*
X127590740Y-97421000D01*
X127524558Y-97414482D01*
X127458373Y-97407963D01*
X127345147Y-97373616D01*
X127288533Y-97356443D01*
X127132011Y-97272779D01*
X127132009Y-97272778D01*
X127096271Y-97243448D01*
X126994814Y-97160186D01*
X126911552Y-97058729D01*
X126882222Y-97022991D01*
X126839461Y-96942991D01*
X126798557Y-96866467D01*
X126774289Y-96786466D01*
X126747037Y-96696627D01*
X126729641Y-96520000D01*
X126747037Y-96343373D01*
X126798557Y-96173534D01*
X126798557Y-96173533D01*
X126882221Y-96017011D01*
X126882222Y-96017009D01*
X126911552Y-95981271D01*
X126994814Y-95879814D01*
X127096271Y-95796552D01*
X127132009Y-95767222D01*
X127149913Y-95757652D01*
X127288533Y-95683557D01*
X127345147Y-95666384D01*
X127458373Y-95632037D01*
X127524558Y-95625518D01*
X127590740Y-95619000D01*
X127679260Y-95619000D01*
X127745442Y-95625518D01*
X127745442Y-95625518D01*
G37*
G36*
X125205442Y-95625518D02*
X125271627Y-95632037D01*
X125384853Y-95666384D01*
X125441467Y-95683557D01*
X125580087Y-95757652D01*
X125597991Y-95767222D01*
X125633729Y-95796552D01*
X125735186Y-95879814D01*
X125818448Y-95981271D01*
X125847778Y-96017009D01*
X125847779Y-96017011D01*
X125931443Y-96173533D01*
X125931443Y-96173534D01*
X125982963Y-96343373D01*
X126000359Y-96520000D01*
X125982963Y-96696627D01*
X125955711Y-96786466D01*
X125931443Y-96866467D01*
X125890539Y-96942991D01*
X125847778Y-97022991D01*
X125818448Y-97058729D01*
X125735186Y-97160186D01*
X125633729Y-97243448D01*
X125597991Y-97272778D01*
X125597989Y-97272779D01*
X125441467Y-97356443D01*
X125384853Y-97373616D01*
X125271627Y-97407963D01*
X125205442Y-97414482D01*
X125139260Y-97421000D01*
X125050740Y-97421000D01*
X124984558Y-97414482D01*
X124918373Y-97407963D01*
X124805147Y-97373616D01*
X124748533Y-97356443D01*
X124592011Y-97272779D01*
X124592009Y-97272778D01*
X124556271Y-97243448D01*
X124454814Y-97160186D01*
X124371552Y-97058729D01*
X124342222Y-97022991D01*
X124299461Y-96942991D01*
X124258557Y-96866467D01*
X124234289Y-96786466D01*
X124207037Y-96696627D01*
X124189641Y-96520000D01*
X124207037Y-96343373D01*
X124258557Y-96173534D01*
X124258557Y-96173533D01*
X124342221Y-96017011D01*
X124342222Y-96017009D01*
X124371552Y-95981271D01*
X124454814Y-95879814D01*
X124556271Y-95796552D01*
X124592009Y-95767222D01*
X124609913Y-95757652D01*
X124748533Y-95683557D01*
X124805147Y-95666384D01*
X124918373Y-95632037D01*
X124984558Y-95625518D01*
X125050740Y-95619000D01*
X125139260Y-95619000D01*
X125205442Y-95625518D01*
X125205442Y-95625518D01*
G37*
G36*
X101327442Y-95545518D02*
X101393627Y-95552037D01*
X101506853Y-95586384D01*
X101563467Y-95603557D01*
X101702087Y-95677652D01*
X101719991Y-95687222D01*
X101755729Y-95716552D01*
X101857186Y-95799814D01*
X101922839Y-95879814D01*
X101969778Y-95937009D01*
X101969779Y-95937011D01*
X102053443Y-96093533D01*
X102053443Y-96093534D01*
X102104963Y-96263373D01*
X102122359Y-96440000D01*
X102104963Y-96616627D01*
X102080696Y-96696625D01*
X102053443Y-96786467D01*
X102010682Y-96866466D01*
X101969778Y-96942991D01*
X101940448Y-96978729D01*
X101857186Y-97080186D01*
X101759705Y-97160185D01*
X101719991Y-97192778D01*
X101719989Y-97192779D01*
X101563467Y-97276443D01*
X101506853Y-97293616D01*
X101393627Y-97327963D01*
X101327443Y-97334481D01*
X101261260Y-97341000D01*
X100922740Y-97341000D01*
X100856557Y-97334481D01*
X100790373Y-97327963D01*
X100677147Y-97293616D01*
X100620533Y-97276443D01*
X100464011Y-97192779D01*
X100464009Y-97192778D01*
X100424295Y-97160185D01*
X100326814Y-97080186D01*
X100243552Y-96978729D01*
X100214222Y-96942991D01*
X100173318Y-96866466D01*
X100130557Y-96786467D01*
X100103304Y-96696625D01*
X100079037Y-96616627D01*
X100061641Y-96440000D01*
X100079037Y-96263373D01*
X100130557Y-96093534D01*
X100130557Y-96093533D01*
X100214221Y-95937011D01*
X100214222Y-95937009D01*
X100261161Y-95879814D01*
X100326814Y-95799814D01*
X100428271Y-95716552D01*
X100464009Y-95687222D01*
X100481913Y-95677652D01*
X100620533Y-95603557D01*
X100677147Y-95586384D01*
X100790373Y-95552037D01*
X100856558Y-95545518D01*
X100922740Y-95539000D01*
X101261260Y-95539000D01*
X101327442Y-95545518D01*
X101327442Y-95545518D01*
G37*
G36*
X127745443Y-93085519D02*
X127811627Y-93092037D01*
X127924853Y-93126384D01*
X127981467Y-93143557D01*
X128063155Y-93187221D01*
X128137991Y-93227222D01*
X128173729Y-93256552D01*
X128275186Y-93339814D01*
X128354951Y-93437009D01*
X128387778Y-93477009D01*
X128387779Y-93477011D01*
X128471443Y-93633533D01*
X128471443Y-93633534D01*
X128522963Y-93803373D01*
X128540359Y-93980000D01*
X128522963Y-94156627D01*
X128488616Y-94269853D01*
X128471443Y-94326467D01*
X128409160Y-94442989D01*
X128387778Y-94482991D01*
X128358448Y-94518729D01*
X128275186Y-94620186D01*
X128186731Y-94692778D01*
X128137991Y-94732778D01*
X128137989Y-94732779D01*
X127981467Y-94816443D01*
X127943490Y-94827963D01*
X127811627Y-94867963D01*
X127745443Y-94874481D01*
X127679260Y-94881000D01*
X127590740Y-94881000D01*
X127524557Y-94874481D01*
X127458373Y-94867963D01*
X127326510Y-94827963D01*
X127288533Y-94816443D01*
X127132011Y-94732779D01*
X127132009Y-94732778D01*
X127083269Y-94692778D01*
X126994814Y-94620186D01*
X126911552Y-94518729D01*
X126882222Y-94482991D01*
X126860840Y-94442989D01*
X126798557Y-94326467D01*
X126781384Y-94269853D01*
X126747037Y-94156627D01*
X126729641Y-93980000D01*
X126747037Y-93803373D01*
X126798557Y-93633534D01*
X126798557Y-93633533D01*
X126882221Y-93477011D01*
X126882222Y-93477009D01*
X126915049Y-93437009D01*
X126994814Y-93339814D01*
X127096271Y-93256552D01*
X127132009Y-93227222D01*
X127206845Y-93187221D01*
X127288533Y-93143557D01*
X127345147Y-93126384D01*
X127458373Y-93092037D01*
X127524557Y-93085519D01*
X127590740Y-93079000D01*
X127679260Y-93079000D01*
X127745443Y-93085519D01*
X127745443Y-93085519D01*
G37*
G36*
X125996000Y-94881000D02*
X124194000Y-94881000D01*
X124194000Y-93079000D01*
X125996000Y-93079000D01*
X125996000Y-94881000D01*
X125996000Y-94881000D01*
G37*
G36*
X101327442Y-93045518D02*
X101393627Y-93052037D01*
X101482512Y-93079000D01*
X101563467Y-93103557D01*
X101702087Y-93177652D01*
X101719991Y-93187222D01*
X101755729Y-93216552D01*
X101857186Y-93299814D01*
X101940448Y-93401271D01*
X101969778Y-93437009D01*
X101969779Y-93437011D01*
X102053443Y-93593533D01*
X102053443Y-93593534D01*
X102104963Y-93763373D01*
X102122359Y-93940000D01*
X102104963Y-94116627D01*
X102092829Y-94156627D01*
X102053443Y-94286467D01*
X102032062Y-94326467D01*
X101969778Y-94442991D01*
X101940448Y-94478729D01*
X101857186Y-94580186D01*
X101755729Y-94663448D01*
X101719991Y-94692778D01*
X101719989Y-94692779D01*
X101563467Y-94776443D01*
X101506853Y-94793616D01*
X101393627Y-94827963D01*
X101327443Y-94834481D01*
X101261260Y-94841000D01*
X100922740Y-94841000D01*
X100856557Y-94834481D01*
X100790373Y-94827963D01*
X100677147Y-94793616D01*
X100620533Y-94776443D01*
X100464011Y-94692779D01*
X100464009Y-94692778D01*
X100428271Y-94663448D01*
X100326814Y-94580186D01*
X100243552Y-94478729D01*
X100214222Y-94442991D01*
X100151938Y-94326467D01*
X100130557Y-94286467D01*
X100091171Y-94156627D01*
X100079037Y-94116627D01*
X100061641Y-93940000D01*
X100079037Y-93763373D01*
X100130557Y-93593534D01*
X100130557Y-93593533D01*
X100214221Y-93437011D01*
X100214222Y-93437009D01*
X100243552Y-93401271D01*
X100326814Y-93299814D01*
X100428271Y-93216552D01*
X100464009Y-93187222D01*
X100481913Y-93177652D01*
X100620533Y-93103557D01*
X100701488Y-93079000D01*
X100790373Y-93052037D01*
X100856558Y-93045518D01*
X100922740Y-93039000D01*
X101261260Y-93039000D01*
X101327442Y-93045518D01*
X101327442Y-93045518D01*
G37*
G36*
X101975600Y-90542989D02*
X102008649Y-90553014D01*
X102039106Y-90569294D01*
X102065799Y-90591201D01*
X102087706Y-90617894D01*
X102103986Y-90648351D01*
X102114011Y-90681400D01*
X102118000Y-90721904D01*
X102118000Y-92158096D01*
X102114011Y-92198600D01*
X102103986Y-92231649D01*
X102087706Y-92262106D01*
X102065799Y-92288799D01*
X102039106Y-92310706D01*
X102008649Y-92326986D01*
X101975600Y-92337011D01*
X101935096Y-92341000D01*
X100248904Y-92341000D01*
X100208400Y-92337011D01*
X100175351Y-92326986D01*
X100144894Y-92310706D01*
X100118201Y-92288799D01*
X100096294Y-92262106D01*
X100080014Y-92231649D01*
X100069989Y-92198600D01*
X100066000Y-92158096D01*
X100066000Y-90721904D01*
X100069989Y-90681400D01*
X100080014Y-90648351D01*
X100096294Y-90617894D01*
X100118201Y-90591201D01*
X100144894Y-90569294D01*
X100175351Y-90553014D01*
X100208400Y-90542989D01*
X100248904Y-90539000D01*
X101935096Y-90539000D01*
X101975600Y-90542989D01*
X101975600Y-90542989D01*
G37*
G36*
X101327442Y-84249518D02*
X101393627Y-84256037D01*
X101506853Y-84290384D01*
X101563467Y-84307557D01*
X101702087Y-84381652D01*
X101719991Y-84391222D01*
X101755729Y-84420552D01*
X101857186Y-84503814D01*
X101940448Y-84605271D01*
X101969778Y-84641009D01*
X101969779Y-84641011D01*
X102053443Y-84797533D01*
X102053443Y-84797534D01*
X102104963Y-84967373D01*
X102122359Y-85144000D01*
X102104963Y-85320627D01*
X102070616Y-85433853D01*
X102053443Y-85490467D01*
X101979348Y-85629087D01*
X101969778Y-85646991D01*
X101940448Y-85682729D01*
X101857186Y-85784186D01*
X101755729Y-85867448D01*
X101719991Y-85896778D01*
X101719989Y-85896779D01*
X101563467Y-85980443D01*
X101506853Y-85997616D01*
X101393627Y-86031963D01*
X101327442Y-86038482D01*
X101261260Y-86045000D01*
X100922740Y-86045000D01*
X100856558Y-86038482D01*
X100790373Y-86031963D01*
X100677147Y-85997616D01*
X100620533Y-85980443D01*
X100464011Y-85896779D01*
X100464009Y-85896778D01*
X100428271Y-85867448D01*
X100326814Y-85784186D01*
X100243552Y-85682729D01*
X100214222Y-85646991D01*
X100204652Y-85629087D01*
X100130557Y-85490467D01*
X100113384Y-85433853D01*
X100079037Y-85320627D01*
X100061641Y-85144000D01*
X100079037Y-84967373D01*
X100130557Y-84797534D01*
X100130557Y-84797533D01*
X100214221Y-84641011D01*
X100214222Y-84641009D01*
X100243552Y-84605271D01*
X100326814Y-84503814D01*
X100428271Y-84420552D01*
X100464009Y-84391222D01*
X100481913Y-84381652D01*
X100620533Y-84307557D01*
X100677147Y-84290384D01*
X100790373Y-84256037D01*
X100856558Y-84249518D01*
X100922740Y-84243000D01*
X101261260Y-84243000D01*
X101327442Y-84249518D01*
X101327442Y-84249518D01*
G37*
G36*
X101327443Y-81749519D02*
X101393627Y-81756037D01*
X101506853Y-81790384D01*
X101563467Y-81807557D01*
X101702087Y-81881652D01*
X101719991Y-81891222D01*
X101755729Y-81920552D01*
X101857186Y-82003814D01*
X101940448Y-82105271D01*
X101969778Y-82141009D01*
X101969779Y-82141011D01*
X102053443Y-82297533D01*
X102053443Y-82297534D01*
X102104963Y-82467373D01*
X102122359Y-82644000D01*
X102104963Y-82820627D01*
X102070616Y-82933853D01*
X102053443Y-82990467D01*
X101979348Y-83129087D01*
X101969778Y-83146991D01*
X101940448Y-83182729D01*
X101857186Y-83284186D01*
X101755729Y-83367448D01*
X101719991Y-83396778D01*
X101719989Y-83396779D01*
X101563467Y-83480443D01*
X101506853Y-83497616D01*
X101393627Y-83531963D01*
X101327442Y-83538482D01*
X101261260Y-83545000D01*
X100922740Y-83545000D01*
X100856558Y-83538482D01*
X100790373Y-83531963D01*
X100677147Y-83497616D01*
X100620533Y-83480443D01*
X100464011Y-83396779D01*
X100464009Y-83396778D01*
X100428271Y-83367448D01*
X100326814Y-83284186D01*
X100243552Y-83182729D01*
X100214222Y-83146991D01*
X100204652Y-83129087D01*
X100130557Y-82990467D01*
X100113384Y-82933853D01*
X100079037Y-82820627D01*
X100061641Y-82644000D01*
X100079037Y-82467373D01*
X100130557Y-82297534D01*
X100130557Y-82297533D01*
X100214221Y-82141011D01*
X100214222Y-82141009D01*
X100243552Y-82105271D01*
X100326814Y-82003814D01*
X100428271Y-81920552D01*
X100464009Y-81891222D01*
X100481913Y-81881652D01*
X100620533Y-81807557D01*
X100677147Y-81790384D01*
X100790373Y-81756037D01*
X100856557Y-81749519D01*
X100922740Y-81743000D01*
X101261260Y-81743000D01*
X101327443Y-81749519D01*
X101327443Y-81749519D01*
G37*
G36*
X101327442Y-79249518D02*
X101393627Y-79256037D01*
X101506853Y-79290384D01*
X101563467Y-79307557D01*
X101702087Y-79381652D01*
X101719991Y-79391222D01*
X101755729Y-79420552D01*
X101857186Y-79503814D01*
X101940448Y-79605271D01*
X101969778Y-79641009D01*
X101969779Y-79641011D01*
X102053443Y-79797533D01*
X102053443Y-79797534D01*
X102104963Y-79967373D01*
X102122359Y-80144000D01*
X102104963Y-80320627D01*
X102070616Y-80433853D01*
X102053443Y-80490467D01*
X101979348Y-80629087D01*
X101969778Y-80646991D01*
X101940448Y-80682729D01*
X101857186Y-80784186D01*
X101755729Y-80867448D01*
X101719991Y-80896778D01*
X101719989Y-80896779D01*
X101563467Y-80980443D01*
X101506853Y-80997616D01*
X101393627Y-81031963D01*
X101327443Y-81038481D01*
X101261260Y-81045000D01*
X100922740Y-81045000D01*
X100856557Y-81038481D01*
X100790373Y-81031963D01*
X100677147Y-80997616D01*
X100620533Y-80980443D01*
X100464011Y-80896779D01*
X100464009Y-80896778D01*
X100428271Y-80867448D01*
X100326814Y-80784186D01*
X100243552Y-80682729D01*
X100214222Y-80646991D01*
X100204652Y-80629087D01*
X100130557Y-80490467D01*
X100113384Y-80433853D01*
X100079037Y-80320627D01*
X100061641Y-80144000D01*
X100079037Y-79967373D01*
X100130557Y-79797534D01*
X100130557Y-79797533D01*
X100214221Y-79641011D01*
X100214222Y-79641009D01*
X100243552Y-79605271D01*
X100326814Y-79503814D01*
X100428271Y-79420552D01*
X100464009Y-79391222D01*
X100481913Y-79381652D01*
X100620533Y-79307557D01*
X100677147Y-79290384D01*
X100790373Y-79256037D01*
X100856558Y-79249518D01*
X100922740Y-79243000D01*
X101261260Y-79243000D01*
X101327442Y-79249518D01*
X101327442Y-79249518D01*
G37*
G36*
X101327442Y-76749518D02*
X101393627Y-76756037D01*
X101506853Y-76790384D01*
X101563467Y-76807557D01*
X101702087Y-76881652D01*
X101719991Y-76891222D01*
X101755729Y-76920552D01*
X101857186Y-77003814D01*
X101940448Y-77105271D01*
X101969778Y-77141009D01*
X101969779Y-77141011D01*
X102053443Y-77297533D01*
X102053443Y-77297534D01*
X102104963Y-77467373D01*
X102122359Y-77644000D01*
X102104963Y-77820627D01*
X102070616Y-77933853D01*
X102053443Y-77990467D01*
X101979348Y-78129087D01*
X101969778Y-78146991D01*
X101940448Y-78182729D01*
X101857186Y-78284186D01*
X101755729Y-78367448D01*
X101719991Y-78396778D01*
X101719989Y-78396779D01*
X101563467Y-78480443D01*
X101506853Y-78497616D01*
X101393627Y-78531963D01*
X101327442Y-78538482D01*
X101261260Y-78545000D01*
X100922740Y-78545000D01*
X100856558Y-78538482D01*
X100790373Y-78531963D01*
X100677147Y-78497616D01*
X100620533Y-78480443D01*
X100464011Y-78396779D01*
X100464009Y-78396778D01*
X100428271Y-78367448D01*
X100326814Y-78284186D01*
X100243552Y-78182729D01*
X100214222Y-78146991D01*
X100204652Y-78129087D01*
X100130557Y-77990467D01*
X100113384Y-77933853D01*
X100079037Y-77820627D01*
X100061641Y-77644000D01*
X100079037Y-77467373D01*
X100130557Y-77297534D01*
X100130557Y-77297533D01*
X100214221Y-77141011D01*
X100214222Y-77141009D01*
X100243552Y-77105271D01*
X100326814Y-77003814D01*
X100428271Y-76920552D01*
X100464009Y-76891222D01*
X100481913Y-76881652D01*
X100620533Y-76807557D01*
X100677147Y-76790384D01*
X100790373Y-76756037D01*
X100856558Y-76749518D01*
X100922740Y-76743000D01*
X101261260Y-76743000D01*
X101327442Y-76749518D01*
X101327442Y-76749518D01*
G37*
G36*
X101327443Y-74249519D02*
X101393627Y-74256037D01*
X101506853Y-74290384D01*
X101563467Y-74307557D01*
X101702087Y-74381652D01*
X101719991Y-74391222D01*
X101755729Y-74420552D01*
X101857186Y-74503814D01*
X101940448Y-74605271D01*
X101969778Y-74641009D01*
X101969779Y-74641011D01*
X102053443Y-74797533D01*
X102053443Y-74797534D01*
X102104963Y-74967373D01*
X102122359Y-75144000D01*
X102104963Y-75320627D01*
X102070616Y-75433853D01*
X102053443Y-75490467D01*
X101979348Y-75629087D01*
X101969778Y-75646991D01*
X101940448Y-75682729D01*
X101857186Y-75784186D01*
X101755729Y-75867448D01*
X101719991Y-75896778D01*
X101719989Y-75896779D01*
X101563467Y-75980443D01*
X101506853Y-75997616D01*
X101393627Y-76031963D01*
X101327443Y-76038481D01*
X101261260Y-76045000D01*
X100922740Y-76045000D01*
X100856557Y-76038481D01*
X100790373Y-76031963D01*
X100677147Y-75997616D01*
X100620533Y-75980443D01*
X100464011Y-75896779D01*
X100464009Y-75896778D01*
X100428271Y-75867448D01*
X100326814Y-75784186D01*
X100243552Y-75682729D01*
X100214222Y-75646991D01*
X100204652Y-75629087D01*
X100130557Y-75490467D01*
X100113384Y-75433853D01*
X100079037Y-75320627D01*
X100061641Y-75144000D01*
X100079037Y-74967373D01*
X100130557Y-74797534D01*
X100130557Y-74797533D01*
X100214221Y-74641011D01*
X100214222Y-74641009D01*
X100243552Y-74605271D01*
X100326814Y-74503814D01*
X100428271Y-74420552D01*
X100464009Y-74391222D01*
X100481913Y-74381652D01*
X100620533Y-74307557D01*
X100677147Y-74290384D01*
X100790373Y-74256037D01*
X100856557Y-74249519D01*
X100922740Y-74243000D01*
X101261260Y-74243000D01*
X101327443Y-74249519D01*
X101327443Y-74249519D01*
G37*
G36*
X101975600Y-71746989D02*
X102008649Y-71757014D01*
X102039106Y-71773294D01*
X102065799Y-71795201D01*
X102087706Y-71821894D01*
X102103986Y-71852351D01*
X102114011Y-71885400D01*
X102118000Y-71925904D01*
X102118000Y-73362096D01*
X102114011Y-73402600D01*
X102103986Y-73435649D01*
X102087706Y-73466106D01*
X102065799Y-73492799D01*
X102039106Y-73514706D01*
X102008649Y-73530986D01*
X101975600Y-73541011D01*
X101935096Y-73545000D01*
X100248904Y-73545000D01*
X100208400Y-73541011D01*
X100175351Y-73530986D01*
X100144894Y-73514706D01*
X100118201Y-73492799D01*
X100096294Y-73466106D01*
X100080014Y-73435649D01*
X100069989Y-73402600D01*
X100066000Y-73362096D01*
X100066000Y-71925904D01*
X100069989Y-71885400D01*
X100080014Y-71852351D01*
X100096294Y-71821894D01*
X100118201Y-71795201D01*
X100144894Y-71773294D01*
X100175351Y-71757014D01*
X100208400Y-71746989D01*
X100248904Y-71743000D01*
X101935096Y-71743000D01*
X101975600Y-71746989D01*
X101975600Y-71746989D01*
G37*
G36*
X95856527Y-65036736D02*
X95956410Y-65056604D01*
X96238674Y-65173521D01*
X96492705Y-65343259D01*
X96708741Y-65559295D01*
X96878479Y-65813326D01*
X96995396Y-66095590D01*
X97055000Y-66395240D01*
X97055000Y-66700760D01*
X96995396Y-67000410D01*
X96878479Y-67282674D01*
X96708741Y-67536705D01*
X96492705Y-67752741D01*
X96238674Y-67922479D01*
X95956410Y-68039396D01*
X95856527Y-68059264D01*
X95656762Y-68099000D01*
X95351238Y-68099000D01*
X95151473Y-68059264D01*
X95051590Y-68039396D01*
X94769326Y-67922479D01*
X94515295Y-67752741D01*
X94299259Y-67536705D01*
X94129521Y-67282674D01*
X94012604Y-67000410D01*
X93953000Y-66700760D01*
X93953000Y-66395240D01*
X94012604Y-66095590D01*
X94129521Y-65813326D01*
X94299259Y-65559295D01*
X94515295Y-65343259D01*
X94769326Y-65173521D01*
X95051590Y-65056604D01*
X95151473Y-65036736D01*
X95351238Y-64997000D01*
X95656762Y-64997000D01*
X95856527Y-65036736D01*
X95856527Y-65036736D01*
G37*
G36*
X97055000Y-63019000D02*
X93953000Y-63019000D01*
X93953000Y-59917000D01*
X97055000Y-59917000D01*
X97055000Y-63019000D01*
X97055000Y-63019000D01*
G37*
M02*
