G04 #@! TF.GenerationSoftware,KiCad,Pcbnew,5.0.2+dfsg1-1~bpo9+1*
G04 #@! TF.CreationDate,2019-09-13T19:08:42+10:00*
G04 #@! TF.ProjectId,interface,696e7465-7266-4616-9365-2e6b69636164,rev?*
G04 #@! TF.SameCoordinates,Original*
G04 #@! TF.FileFunction,Copper,L2,Bot*
G04 #@! TF.FilePolarity,Positive*
%FSLAX46Y46*%
G04 Gerber Fmt 4.6, Leading zero omitted, Abs format (unit mm)*
G04 Created by KiCad (PCBNEW 5.0.2+dfsg1-1~bpo9+1) date Пт 13 сен 2019 19:08:42*
%MOMM*%
%LPD*%
G01*
G04 APERTURE LIST*
G04 #@! TA.AperFunction,Conductor*
%ADD10C,0.100000*%
G04 #@! TD*
G04 #@! TA.AperFunction,ComponentPad*
%ADD11C,1.700000*%
G04 #@! TD*
G04 #@! TA.AperFunction,ComponentPad*
%ADD12O,1.950000X1.700000*%
G04 #@! TD*
G04 #@! TA.AperFunction,ComponentPad*
%ADD13R,1.700000X1.700000*%
G04 #@! TD*
G04 #@! TA.AperFunction,ComponentPad*
%ADD14O,1.700000X1.700000*%
G04 #@! TD*
G04 #@! TA.AperFunction,ComponentPad*
%ADD15R,3.000000X3.000000*%
G04 #@! TD*
G04 #@! TA.AperFunction,ComponentPad*
%ADD16C,3.000000*%
G04 #@! TD*
G04 #@! TA.AperFunction,ViaPad*
%ADD17C,0.800000*%
G04 #@! TD*
G04 #@! TA.AperFunction,Conductor*
%ADD18C,0.250000*%
G04 #@! TD*
G04 #@! TA.AperFunction,Conductor*
%ADD19C,0.500000*%
G04 #@! TD*
G04 APERTURE END LIST*
D10*
G04 #@! TO.N,+5V*
G04 #@! TO.C,P3*
G36*
X101841504Y-90591204D02*
X101865773Y-90594804D01*
X101889571Y-90600765D01*
X101912671Y-90609030D01*
X101934849Y-90619520D01*
X101955893Y-90632133D01*
X101975598Y-90646747D01*
X101993777Y-90663223D01*
X102010253Y-90681402D01*
X102024867Y-90701107D01*
X102037480Y-90722151D01*
X102047970Y-90744329D01*
X102056235Y-90767429D01*
X102062196Y-90791227D01*
X102065796Y-90815496D01*
X102067000Y-90840000D01*
X102067000Y-92040000D01*
X102065796Y-92064504D01*
X102062196Y-92088773D01*
X102056235Y-92112571D01*
X102047970Y-92135671D01*
X102037480Y-92157849D01*
X102024867Y-92178893D01*
X102010253Y-92198598D01*
X101993777Y-92216777D01*
X101975598Y-92233253D01*
X101955893Y-92247867D01*
X101934849Y-92260480D01*
X101912671Y-92270970D01*
X101889571Y-92279235D01*
X101865773Y-92285196D01*
X101841504Y-92288796D01*
X101817000Y-92290000D01*
X100367000Y-92290000D01*
X100342496Y-92288796D01*
X100318227Y-92285196D01*
X100294429Y-92279235D01*
X100271329Y-92270970D01*
X100249151Y-92260480D01*
X100228107Y-92247867D01*
X100208402Y-92233253D01*
X100190223Y-92216777D01*
X100173747Y-92198598D01*
X100159133Y-92178893D01*
X100146520Y-92157849D01*
X100136030Y-92135671D01*
X100127765Y-92112571D01*
X100121804Y-92088773D01*
X100118204Y-92064504D01*
X100117000Y-92040000D01*
X100117000Y-90840000D01*
X100118204Y-90815496D01*
X100121804Y-90791227D01*
X100127765Y-90767429D01*
X100136030Y-90744329D01*
X100146520Y-90722151D01*
X100159133Y-90701107D01*
X100173747Y-90681402D01*
X100190223Y-90663223D01*
X100208402Y-90646747D01*
X100228107Y-90632133D01*
X100249151Y-90619520D01*
X100271329Y-90609030D01*
X100294429Y-90600765D01*
X100318227Y-90594804D01*
X100342496Y-90591204D01*
X100367000Y-90590000D01*
X101817000Y-90590000D01*
X101841504Y-90591204D01*
X101841504Y-90591204D01*
G37*
D11*
G04 #@! TD*
G04 #@! TO.P,P3,1*
G04 #@! TO.N,+5V*
X101092000Y-91440000D03*
D12*
G04 #@! TO.P,P3,2*
G04 #@! TO.N,/RX*
X101092000Y-93940000D03*
G04 #@! TO.P,P3,3*
G04 #@! TO.N,/TX*
X101092000Y-96440000D03*
G04 #@! TO.P,P3,4*
G04 #@! TO.N,GND*
X101092000Y-98940000D03*
G04 #@! TD*
D10*
G04 #@! TO.N,Net-(P1-Pad1)*
G04 #@! TO.C,P1*
G36*
X101841504Y-71795204D02*
X101865773Y-71798804D01*
X101889571Y-71804765D01*
X101912671Y-71813030D01*
X101934849Y-71823520D01*
X101955893Y-71836133D01*
X101975598Y-71850747D01*
X101993777Y-71867223D01*
X102010253Y-71885402D01*
X102024867Y-71905107D01*
X102037480Y-71926151D01*
X102047970Y-71948329D01*
X102056235Y-71971429D01*
X102062196Y-71995227D01*
X102065796Y-72019496D01*
X102067000Y-72044000D01*
X102067000Y-73244000D01*
X102065796Y-73268504D01*
X102062196Y-73292773D01*
X102056235Y-73316571D01*
X102047970Y-73339671D01*
X102037480Y-73361849D01*
X102024867Y-73382893D01*
X102010253Y-73402598D01*
X101993777Y-73420777D01*
X101975598Y-73437253D01*
X101955893Y-73451867D01*
X101934849Y-73464480D01*
X101912671Y-73474970D01*
X101889571Y-73483235D01*
X101865773Y-73489196D01*
X101841504Y-73492796D01*
X101817000Y-73494000D01*
X100367000Y-73494000D01*
X100342496Y-73492796D01*
X100318227Y-73489196D01*
X100294429Y-73483235D01*
X100271329Y-73474970D01*
X100249151Y-73464480D01*
X100228107Y-73451867D01*
X100208402Y-73437253D01*
X100190223Y-73420777D01*
X100173747Y-73402598D01*
X100159133Y-73382893D01*
X100146520Y-73361849D01*
X100136030Y-73339671D01*
X100127765Y-73316571D01*
X100121804Y-73292773D01*
X100118204Y-73268504D01*
X100117000Y-73244000D01*
X100117000Y-72044000D01*
X100118204Y-72019496D01*
X100121804Y-71995227D01*
X100127765Y-71971429D01*
X100136030Y-71948329D01*
X100146520Y-71926151D01*
X100159133Y-71905107D01*
X100173747Y-71885402D01*
X100190223Y-71867223D01*
X100208402Y-71850747D01*
X100228107Y-71836133D01*
X100249151Y-71823520D01*
X100271329Y-71813030D01*
X100294429Y-71804765D01*
X100318227Y-71798804D01*
X100342496Y-71795204D01*
X100367000Y-71794000D01*
X101817000Y-71794000D01*
X101841504Y-71795204D01*
X101841504Y-71795204D01*
G37*
D11*
G04 #@! TD*
G04 #@! TO.P,P1,1*
G04 #@! TO.N,Net-(P1-Pad1)*
X101092000Y-72644000D03*
D12*
G04 #@! TO.P,P1,2*
G04 #@! TO.N,Net-(P1-Pad2)*
X101092000Y-75144000D03*
G04 #@! TO.P,P1,3*
G04 #@! TO.N,Net-(P1-Pad3)*
X101092000Y-77644000D03*
G04 #@! TO.P,P1,4*
G04 #@! TO.N,+5V*
X101092000Y-80144000D03*
G04 #@! TO.P,P1,5*
G04 #@! TO.N,+24V*
X101092000Y-82644000D03*
G04 #@! TO.P,P1,6*
G04 #@! TO.N,GND*
X101092000Y-85144000D03*
G04 #@! TD*
D13*
G04 #@! TO.P,P2,1*
G04 #@! TO.N,/MISO*
X125095000Y-93980000D03*
D14*
G04 #@! TO.P,P2,2*
G04 #@! TO.N,+5V*
X127635000Y-93980000D03*
G04 #@! TO.P,P2,3*
G04 #@! TO.N,/SCK*
X125095000Y-96520000D03*
G04 #@! TO.P,P2,4*
G04 #@! TO.N,/MOSI*
X127635000Y-96520000D03*
G04 #@! TO.P,P2,5*
G04 #@! TO.N,/RST*
X125095000Y-99060000D03*
G04 #@! TO.P,P2,6*
G04 #@! TO.N,GND*
X127635000Y-99060000D03*
G04 #@! TD*
D15*
G04 #@! TO.P,J1,1*
G04 #@! TO.N,+24V*
X95504000Y-61468000D03*
D16*
G04 #@! TO.P,J1,2*
G04 #@! TO.N,GND*
X95504000Y-66548000D03*
G04 #@! TD*
D17*
G04 #@! TO.N,/PHASEB*
X103231100Y-96014200D03*
X111044900Y-96808300D03*
G04 #@! TO.N,/PHASEA*
X107966000Y-95292900D03*
X119941800Y-83820000D03*
G04 #@! TO.N,+5V*
X122252500Y-87675100D03*
G04 #@! TO.N,/MISO*
X116217100Y-87761700D03*
G04 #@! TO.N,/SCK*
X121067400Y-96520000D03*
G04 #@! TO.N,/MOSI*
X112461600Y-78345900D03*
G04 #@! TO.N,/RX*
X121833500Y-81196700D03*
G04 #@! TO.N,/TX*
X120708000Y-82555000D03*
G04 #@! TD*
D18*
G04 #@! TO.N,/PHASEB*
X103231100Y-96014200D02*
X104025200Y-96808300D01*
X104025200Y-96808300D02*
X111044900Y-96808300D01*
G04 #@! TO.N,/PHASEA*
X107966000Y-94982300D02*
X107966000Y-95292900D01*
X108365999Y-94892901D02*
X107966000Y-95292900D01*
X108365999Y-94539799D02*
X108365999Y-94892901D01*
X116086099Y-86819699D02*
X108365999Y-94539799D01*
X116942101Y-86819699D02*
X116086099Y-86819699D01*
X119941800Y-83820000D02*
X116942101Y-86819699D01*
D19*
G04 #@! TO.N,+5V*
X101092000Y-80144000D02*
X122046000Y-80144000D01*
X122046000Y-80144000D02*
X122712900Y-80810900D01*
X122712900Y-80810900D02*
X122712900Y-87214700D01*
X122712900Y-87214700D02*
X122252500Y-87675100D01*
X122252500Y-88240785D02*
X126086715Y-92075000D01*
X122252500Y-87675100D02*
X122252500Y-88240785D01*
X126086715Y-92075000D02*
X127000000Y-92075000D01*
X127635000Y-92710000D02*
X127635000Y-93980000D01*
X127000000Y-92075000D02*
X127635000Y-92710000D01*
D18*
G04 #@! TO.N,/MISO*
X125095000Y-93980000D02*
X122435400Y-93980000D01*
X122435400Y-93980000D02*
X116217100Y-87761700D01*
G04 #@! TO.N,/SCK*
X123919700Y-96520000D02*
X121067400Y-96520000D01*
X125095000Y-96520000D02*
X123919700Y-96520000D01*
G04 #@! TO.N,/MOSI*
X128812700Y-95342300D02*
X127635000Y-96520000D01*
X128812700Y-86023800D02*
X128812700Y-95342300D01*
X121134800Y-78345900D02*
X128812700Y-86023800D01*
X112461600Y-78345900D02*
X121134800Y-78345900D01*
G04 #@! TO.N,/RX*
X102317000Y-93940000D02*
X101092000Y-93940000D01*
X121833500Y-81196700D02*
X114175900Y-81196700D01*
X114175900Y-81196700D02*
X102607900Y-92764700D01*
X102607900Y-92764700D02*
X102607900Y-93649100D01*
X102607900Y-93649100D02*
X102317000Y-93940000D01*
G04 #@! TO.N,/TX*
X104357600Y-95264700D02*
X104342900Y-95250000D01*
X102407000Y-95250000D02*
X101217000Y-96440000D01*
X101217000Y-96440000D02*
X101092000Y-96440000D01*
X104342900Y-95250000D02*
X102407000Y-95250000D01*
X117037900Y-82555000D02*
X104342900Y-95250000D01*
X120708000Y-82555000D02*
X117037900Y-82555000D01*
G04 #@! TD*
M02*
