M48
;DRILL file {KiCad 5.0.2+dfsg1-1~bpo9+1} date Пт 13 сен 2019 19:08:38
;FORMAT={-:-/ absolute / metric / decimal}
FMAT,2
METRIC,TZ
T1C0.400
T2C0.950
T3C1.000
T4C1.520
%
G90
G05
T1
X103.231Y-96.014
X107.966Y-95.293
X111.045Y-96.808
X112.462Y-78.346
X116.217Y-87.762
X119.942Y-83.82
X120.708Y-82.555
X121.067Y-96.52
X121.834Y-81.197
X122.252Y-87.675
T2
X101.092Y-72.644
X101.092Y-75.144
X101.092Y-77.644
X101.092Y-80.144
X101.092Y-82.644
X101.092Y-85.144
X101.092Y-91.44
X101.092Y-93.94
X101.092Y-96.44
X101.092Y-98.94
T3
X125.095Y-93.98
X125.095Y-96.52
X125.095Y-99.06
X127.635Y-93.98
X127.635Y-96.52
X127.635Y-99.06
T4
X95.504Y-61.468
X95.504Y-66.548
T0
M30
