G04 #@! TF.GenerationSoftware,KiCad,Pcbnew,5.0.2+dfsg1-1~bpo9+1*
G04 #@! TF.CreationDate,2019-09-13T19:08:42+10:00*
G04 #@! TF.ProjectId,interface,696e7465-7266-4616-9365-2e6b69636164,rev?*
G04 #@! TF.SameCoordinates,Original*
G04 #@! TF.FileFunction,Paste,Top*
G04 #@! TF.FilePolarity,Positive*
%FSLAX46Y46*%
G04 Gerber Fmt 4.6, Leading zero omitted, Abs format (unit mm)*
G04 Created by KiCad (PCBNEW 5.0.2+dfsg1-1~bpo9+1) date Пт 13 сен 2019 19:08:42*
%MOMM*%
%LPD*%
G01*
G04 APERTURE LIST*
%ADD10R,2.000000X4.500000*%
%ADD11R,1.950000X0.600000*%
%ADD12C,0.100000*%
%ADD13C,0.975000*%
%ADD14R,0.900000X0.800000*%
%ADD15C,1.600000*%
%ADD16R,2.200000X1.200000*%
%ADD17R,3.050000X2.750000*%
G04 APERTURE END LIST*
D10*
G04 #@! TO.C,Y1*
X129286000Y-82990000D03*
X129286000Y-74490000D03*
G04 #@! TD*
D11*
G04 #@! TO.C,IC1*
X123445000Y-81661000D03*
X123445000Y-80391000D03*
X123445000Y-79121000D03*
X123445000Y-77851000D03*
X123445000Y-76581000D03*
X123445000Y-75311000D03*
X123445000Y-74041000D03*
X123445000Y-72771000D03*
X123445000Y-71501000D03*
X123445000Y-70231000D03*
X114045000Y-70231000D03*
X114045000Y-71501000D03*
X114045000Y-72771000D03*
X114045000Y-74041000D03*
X114045000Y-75311000D03*
X114045000Y-76581000D03*
X114045000Y-77851000D03*
X114045000Y-79121000D03*
X114045000Y-80391000D03*
X114045000Y-81661000D03*
G04 #@! TD*
D12*
G04 #@! TO.C,R4*
G36*
X118590142Y-97303674D02*
X118613803Y-97307184D01*
X118637007Y-97312996D01*
X118659529Y-97321054D01*
X118681153Y-97331282D01*
X118701670Y-97343579D01*
X118720883Y-97357829D01*
X118738607Y-97373893D01*
X118754671Y-97391617D01*
X118768921Y-97410830D01*
X118781218Y-97431347D01*
X118791446Y-97452971D01*
X118799504Y-97475493D01*
X118805316Y-97498697D01*
X118808826Y-97522358D01*
X118810000Y-97546250D01*
X118810000Y-98033750D01*
X118808826Y-98057642D01*
X118805316Y-98081303D01*
X118799504Y-98104507D01*
X118791446Y-98127029D01*
X118781218Y-98148653D01*
X118768921Y-98169170D01*
X118754671Y-98188383D01*
X118738607Y-98206107D01*
X118720883Y-98222171D01*
X118701670Y-98236421D01*
X118681153Y-98248718D01*
X118659529Y-98258946D01*
X118637007Y-98267004D01*
X118613803Y-98272816D01*
X118590142Y-98276326D01*
X118566250Y-98277500D01*
X117653750Y-98277500D01*
X117629858Y-98276326D01*
X117606197Y-98272816D01*
X117582993Y-98267004D01*
X117560471Y-98258946D01*
X117538847Y-98248718D01*
X117518330Y-98236421D01*
X117499117Y-98222171D01*
X117481393Y-98206107D01*
X117465329Y-98188383D01*
X117451079Y-98169170D01*
X117438782Y-98148653D01*
X117428554Y-98127029D01*
X117420496Y-98104507D01*
X117414684Y-98081303D01*
X117411174Y-98057642D01*
X117410000Y-98033750D01*
X117410000Y-97546250D01*
X117411174Y-97522358D01*
X117414684Y-97498697D01*
X117420496Y-97475493D01*
X117428554Y-97452971D01*
X117438782Y-97431347D01*
X117451079Y-97410830D01*
X117465329Y-97391617D01*
X117481393Y-97373893D01*
X117499117Y-97357829D01*
X117518330Y-97343579D01*
X117538847Y-97331282D01*
X117560471Y-97321054D01*
X117582993Y-97312996D01*
X117606197Y-97307184D01*
X117629858Y-97303674D01*
X117653750Y-97302500D01*
X118566250Y-97302500D01*
X118590142Y-97303674D01*
X118590142Y-97303674D01*
G37*
D13*
X118110000Y-97790000D03*
D12*
G36*
X118590142Y-99178674D02*
X118613803Y-99182184D01*
X118637007Y-99187996D01*
X118659529Y-99196054D01*
X118681153Y-99206282D01*
X118701670Y-99218579D01*
X118720883Y-99232829D01*
X118738607Y-99248893D01*
X118754671Y-99266617D01*
X118768921Y-99285830D01*
X118781218Y-99306347D01*
X118791446Y-99327971D01*
X118799504Y-99350493D01*
X118805316Y-99373697D01*
X118808826Y-99397358D01*
X118810000Y-99421250D01*
X118810000Y-99908750D01*
X118808826Y-99932642D01*
X118805316Y-99956303D01*
X118799504Y-99979507D01*
X118791446Y-100002029D01*
X118781218Y-100023653D01*
X118768921Y-100044170D01*
X118754671Y-100063383D01*
X118738607Y-100081107D01*
X118720883Y-100097171D01*
X118701670Y-100111421D01*
X118681153Y-100123718D01*
X118659529Y-100133946D01*
X118637007Y-100142004D01*
X118613803Y-100147816D01*
X118590142Y-100151326D01*
X118566250Y-100152500D01*
X117653750Y-100152500D01*
X117629858Y-100151326D01*
X117606197Y-100147816D01*
X117582993Y-100142004D01*
X117560471Y-100133946D01*
X117538847Y-100123718D01*
X117518330Y-100111421D01*
X117499117Y-100097171D01*
X117481393Y-100081107D01*
X117465329Y-100063383D01*
X117451079Y-100044170D01*
X117438782Y-100023653D01*
X117428554Y-100002029D01*
X117420496Y-99979507D01*
X117414684Y-99956303D01*
X117411174Y-99932642D01*
X117410000Y-99908750D01*
X117410000Y-99421250D01*
X117411174Y-99397358D01*
X117414684Y-99373697D01*
X117420496Y-99350493D01*
X117428554Y-99327971D01*
X117438782Y-99306347D01*
X117451079Y-99285830D01*
X117465329Y-99266617D01*
X117481393Y-99248893D01*
X117499117Y-99232829D01*
X117518330Y-99218579D01*
X117538847Y-99206282D01*
X117560471Y-99196054D01*
X117582993Y-99187996D01*
X117606197Y-99182184D01*
X117629858Y-99178674D01*
X117653750Y-99177500D01*
X118566250Y-99177500D01*
X118590142Y-99178674D01*
X118590142Y-99178674D01*
G37*
D13*
X118110000Y-99665000D03*
G04 #@! TD*
D12*
G04 #@! TO.C,D1*
G36*
X112240142Y-86841174D02*
X112263803Y-86844684D01*
X112287007Y-86850496D01*
X112309529Y-86858554D01*
X112331153Y-86868782D01*
X112351670Y-86881079D01*
X112370883Y-86895329D01*
X112388607Y-86911393D01*
X112404671Y-86929117D01*
X112418921Y-86948330D01*
X112431218Y-86968847D01*
X112441446Y-86990471D01*
X112449504Y-87012993D01*
X112455316Y-87036197D01*
X112458826Y-87059858D01*
X112460000Y-87083750D01*
X112460000Y-87571250D01*
X112458826Y-87595142D01*
X112455316Y-87618803D01*
X112449504Y-87642007D01*
X112441446Y-87664529D01*
X112431218Y-87686153D01*
X112418921Y-87706670D01*
X112404671Y-87725883D01*
X112388607Y-87743607D01*
X112370883Y-87759671D01*
X112351670Y-87773921D01*
X112331153Y-87786218D01*
X112309529Y-87796446D01*
X112287007Y-87804504D01*
X112263803Y-87810316D01*
X112240142Y-87813826D01*
X112216250Y-87815000D01*
X111303750Y-87815000D01*
X111279858Y-87813826D01*
X111256197Y-87810316D01*
X111232993Y-87804504D01*
X111210471Y-87796446D01*
X111188847Y-87786218D01*
X111168330Y-87773921D01*
X111149117Y-87759671D01*
X111131393Y-87743607D01*
X111115329Y-87725883D01*
X111101079Y-87706670D01*
X111088782Y-87686153D01*
X111078554Y-87664529D01*
X111070496Y-87642007D01*
X111064684Y-87618803D01*
X111061174Y-87595142D01*
X111060000Y-87571250D01*
X111060000Y-87083750D01*
X111061174Y-87059858D01*
X111064684Y-87036197D01*
X111070496Y-87012993D01*
X111078554Y-86990471D01*
X111088782Y-86968847D01*
X111101079Y-86948330D01*
X111115329Y-86929117D01*
X111131393Y-86911393D01*
X111149117Y-86895329D01*
X111168330Y-86881079D01*
X111188847Y-86868782D01*
X111210471Y-86858554D01*
X111232993Y-86850496D01*
X111256197Y-86844684D01*
X111279858Y-86841174D01*
X111303750Y-86840000D01*
X112216250Y-86840000D01*
X112240142Y-86841174D01*
X112240142Y-86841174D01*
G37*
D13*
X111760000Y-87327500D03*
D12*
G36*
X112240142Y-88716174D02*
X112263803Y-88719684D01*
X112287007Y-88725496D01*
X112309529Y-88733554D01*
X112331153Y-88743782D01*
X112351670Y-88756079D01*
X112370883Y-88770329D01*
X112388607Y-88786393D01*
X112404671Y-88804117D01*
X112418921Y-88823330D01*
X112431218Y-88843847D01*
X112441446Y-88865471D01*
X112449504Y-88887993D01*
X112455316Y-88911197D01*
X112458826Y-88934858D01*
X112460000Y-88958750D01*
X112460000Y-89446250D01*
X112458826Y-89470142D01*
X112455316Y-89493803D01*
X112449504Y-89517007D01*
X112441446Y-89539529D01*
X112431218Y-89561153D01*
X112418921Y-89581670D01*
X112404671Y-89600883D01*
X112388607Y-89618607D01*
X112370883Y-89634671D01*
X112351670Y-89648921D01*
X112331153Y-89661218D01*
X112309529Y-89671446D01*
X112287007Y-89679504D01*
X112263803Y-89685316D01*
X112240142Y-89688826D01*
X112216250Y-89690000D01*
X111303750Y-89690000D01*
X111279858Y-89688826D01*
X111256197Y-89685316D01*
X111232993Y-89679504D01*
X111210471Y-89671446D01*
X111188847Y-89661218D01*
X111168330Y-89648921D01*
X111149117Y-89634671D01*
X111131393Y-89618607D01*
X111115329Y-89600883D01*
X111101079Y-89581670D01*
X111088782Y-89561153D01*
X111078554Y-89539529D01*
X111070496Y-89517007D01*
X111064684Y-89493803D01*
X111061174Y-89470142D01*
X111060000Y-89446250D01*
X111060000Y-88958750D01*
X111061174Y-88934858D01*
X111064684Y-88911197D01*
X111070496Y-88887993D01*
X111078554Y-88865471D01*
X111088782Y-88843847D01*
X111101079Y-88823330D01*
X111115329Y-88804117D01*
X111131393Y-88786393D01*
X111149117Y-88770329D01*
X111168330Y-88756079D01*
X111188847Y-88743782D01*
X111210471Y-88733554D01*
X111232993Y-88725496D01*
X111256197Y-88719684D01*
X111279858Y-88716174D01*
X111303750Y-88715000D01*
X112216250Y-88715000D01*
X112240142Y-88716174D01*
X112240142Y-88716174D01*
G37*
D13*
X111760000Y-89202500D03*
G04 #@! TD*
D12*
G04 #@! TO.C,D2*
G36*
X115288142Y-88716174D02*
X115311803Y-88719684D01*
X115335007Y-88725496D01*
X115357529Y-88733554D01*
X115379153Y-88743782D01*
X115399670Y-88756079D01*
X115418883Y-88770329D01*
X115436607Y-88786393D01*
X115452671Y-88804117D01*
X115466921Y-88823330D01*
X115479218Y-88843847D01*
X115489446Y-88865471D01*
X115497504Y-88887993D01*
X115503316Y-88911197D01*
X115506826Y-88934858D01*
X115508000Y-88958750D01*
X115508000Y-89446250D01*
X115506826Y-89470142D01*
X115503316Y-89493803D01*
X115497504Y-89517007D01*
X115489446Y-89539529D01*
X115479218Y-89561153D01*
X115466921Y-89581670D01*
X115452671Y-89600883D01*
X115436607Y-89618607D01*
X115418883Y-89634671D01*
X115399670Y-89648921D01*
X115379153Y-89661218D01*
X115357529Y-89671446D01*
X115335007Y-89679504D01*
X115311803Y-89685316D01*
X115288142Y-89688826D01*
X115264250Y-89690000D01*
X114351750Y-89690000D01*
X114327858Y-89688826D01*
X114304197Y-89685316D01*
X114280993Y-89679504D01*
X114258471Y-89671446D01*
X114236847Y-89661218D01*
X114216330Y-89648921D01*
X114197117Y-89634671D01*
X114179393Y-89618607D01*
X114163329Y-89600883D01*
X114149079Y-89581670D01*
X114136782Y-89561153D01*
X114126554Y-89539529D01*
X114118496Y-89517007D01*
X114112684Y-89493803D01*
X114109174Y-89470142D01*
X114108000Y-89446250D01*
X114108000Y-88958750D01*
X114109174Y-88934858D01*
X114112684Y-88911197D01*
X114118496Y-88887993D01*
X114126554Y-88865471D01*
X114136782Y-88843847D01*
X114149079Y-88823330D01*
X114163329Y-88804117D01*
X114179393Y-88786393D01*
X114197117Y-88770329D01*
X114216330Y-88756079D01*
X114236847Y-88743782D01*
X114258471Y-88733554D01*
X114280993Y-88725496D01*
X114304197Y-88719684D01*
X114327858Y-88716174D01*
X114351750Y-88715000D01*
X115264250Y-88715000D01*
X115288142Y-88716174D01*
X115288142Y-88716174D01*
G37*
D13*
X114808000Y-89202500D03*
D12*
G36*
X115288142Y-86841174D02*
X115311803Y-86844684D01*
X115335007Y-86850496D01*
X115357529Y-86858554D01*
X115379153Y-86868782D01*
X115399670Y-86881079D01*
X115418883Y-86895329D01*
X115436607Y-86911393D01*
X115452671Y-86929117D01*
X115466921Y-86948330D01*
X115479218Y-86968847D01*
X115489446Y-86990471D01*
X115497504Y-87012993D01*
X115503316Y-87036197D01*
X115506826Y-87059858D01*
X115508000Y-87083750D01*
X115508000Y-87571250D01*
X115506826Y-87595142D01*
X115503316Y-87618803D01*
X115497504Y-87642007D01*
X115489446Y-87664529D01*
X115479218Y-87686153D01*
X115466921Y-87706670D01*
X115452671Y-87725883D01*
X115436607Y-87743607D01*
X115418883Y-87759671D01*
X115399670Y-87773921D01*
X115379153Y-87786218D01*
X115357529Y-87796446D01*
X115335007Y-87804504D01*
X115311803Y-87810316D01*
X115288142Y-87813826D01*
X115264250Y-87815000D01*
X114351750Y-87815000D01*
X114327858Y-87813826D01*
X114304197Y-87810316D01*
X114280993Y-87804504D01*
X114258471Y-87796446D01*
X114236847Y-87786218D01*
X114216330Y-87773921D01*
X114197117Y-87759671D01*
X114179393Y-87743607D01*
X114163329Y-87725883D01*
X114149079Y-87706670D01*
X114136782Y-87686153D01*
X114126554Y-87664529D01*
X114118496Y-87642007D01*
X114112684Y-87618803D01*
X114109174Y-87595142D01*
X114108000Y-87571250D01*
X114108000Y-87083750D01*
X114109174Y-87059858D01*
X114112684Y-87036197D01*
X114118496Y-87012993D01*
X114126554Y-86990471D01*
X114136782Y-86968847D01*
X114149079Y-86948330D01*
X114163329Y-86929117D01*
X114179393Y-86911393D01*
X114197117Y-86895329D01*
X114216330Y-86881079D01*
X114236847Y-86868782D01*
X114258471Y-86858554D01*
X114280993Y-86850496D01*
X114304197Y-86844684D01*
X114327858Y-86841174D01*
X114351750Y-86840000D01*
X115264250Y-86840000D01*
X115288142Y-86841174D01*
X115288142Y-86841174D01*
G37*
D13*
X114808000Y-87327500D03*
G04 #@! TD*
D14*
G04 #@! TO.C,D3*
X120158000Y-97777500D03*
X120158000Y-99677500D03*
X122158000Y-98727500D03*
G04 #@! TD*
G04 #@! TO.C,D5*
X109966000Y-98727500D03*
X107966000Y-99677500D03*
X107966000Y-97777500D03*
G04 #@! TD*
G04 #@! TO.C,D4*
X114062000Y-97777500D03*
X114062000Y-99677500D03*
X116062000Y-98727500D03*
G04 #@! TD*
D12*
G04 #@! TO.C,C4*
G36*
X104714504Y-57681204D02*
X104738773Y-57684804D01*
X104762571Y-57690765D01*
X104785671Y-57699030D01*
X104807849Y-57709520D01*
X104828893Y-57722133D01*
X104848598Y-57736747D01*
X104866777Y-57753223D01*
X104883253Y-57771402D01*
X104897867Y-57791107D01*
X104910480Y-57812151D01*
X104920970Y-57834329D01*
X104929235Y-57857429D01*
X104935196Y-57881227D01*
X104938796Y-57905496D01*
X104940000Y-57930000D01*
X104940000Y-60930000D01*
X104938796Y-60954504D01*
X104935196Y-60978773D01*
X104929235Y-61002571D01*
X104920970Y-61025671D01*
X104910480Y-61047849D01*
X104897867Y-61068893D01*
X104883253Y-61088598D01*
X104866777Y-61106777D01*
X104848598Y-61123253D01*
X104828893Y-61137867D01*
X104807849Y-61150480D01*
X104785671Y-61160970D01*
X104762571Y-61169235D01*
X104738773Y-61175196D01*
X104714504Y-61178796D01*
X104690000Y-61180000D01*
X103590000Y-61180000D01*
X103565496Y-61178796D01*
X103541227Y-61175196D01*
X103517429Y-61169235D01*
X103494329Y-61160970D01*
X103472151Y-61150480D01*
X103451107Y-61137867D01*
X103431402Y-61123253D01*
X103413223Y-61106777D01*
X103396747Y-61088598D01*
X103382133Y-61068893D01*
X103369520Y-61047849D01*
X103359030Y-61025671D01*
X103350765Y-61002571D01*
X103344804Y-60978773D01*
X103341204Y-60954504D01*
X103340000Y-60930000D01*
X103340000Y-57930000D01*
X103341204Y-57905496D01*
X103344804Y-57881227D01*
X103350765Y-57857429D01*
X103359030Y-57834329D01*
X103369520Y-57812151D01*
X103382133Y-57791107D01*
X103396747Y-57771402D01*
X103413223Y-57753223D01*
X103431402Y-57736747D01*
X103451107Y-57722133D01*
X103472151Y-57709520D01*
X103494329Y-57699030D01*
X103517429Y-57690765D01*
X103541227Y-57684804D01*
X103565496Y-57681204D01*
X103590000Y-57680000D01*
X104690000Y-57680000D01*
X104714504Y-57681204D01*
X104714504Y-57681204D01*
G37*
D15*
X104140000Y-59430000D03*
D12*
G36*
X104714504Y-63281204D02*
X104738773Y-63284804D01*
X104762571Y-63290765D01*
X104785671Y-63299030D01*
X104807849Y-63309520D01*
X104828893Y-63322133D01*
X104848598Y-63336747D01*
X104866777Y-63353223D01*
X104883253Y-63371402D01*
X104897867Y-63391107D01*
X104910480Y-63412151D01*
X104920970Y-63434329D01*
X104929235Y-63457429D01*
X104935196Y-63481227D01*
X104938796Y-63505496D01*
X104940000Y-63530000D01*
X104940000Y-66530000D01*
X104938796Y-66554504D01*
X104935196Y-66578773D01*
X104929235Y-66602571D01*
X104920970Y-66625671D01*
X104910480Y-66647849D01*
X104897867Y-66668893D01*
X104883253Y-66688598D01*
X104866777Y-66706777D01*
X104848598Y-66723253D01*
X104828893Y-66737867D01*
X104807849Y-66750480D01*
X104785671Y-66760970D01*
X104762571Y-66769235D01*
X104738773Y-66775196D01*
X104714504Y-66778796D01*
X104690000Y-66780000D01*
X103590000Y-66780000D01*
X103565496Y-66778796D01*
X103541227Y-66775196D01*
X103517429Y-66769235D01*
X103494329Y-66760970D01*
X103472151Y-66750480D01*
X103451107Y-66737867D01*
X103431402Y-66723253D01*
X103413223Y-66706777D01*
X103396747Y-66688598D01*
X103382133Y-66668893D01*
X103369520Y-66647849D01*
X103359030Y-66625671D01*
X103350765Y-66602571D01*
X103344804Y-66578773D01*
X103341204Y-66554504D01*
X103340000Y-66530000D01*
X103340000Y-63530000D01*
X103341204Y-63505496D01*
X103344804Y-63481227D01*
X103350765Y-63457429D01*
X103359030Y-63434329D01*
X103369520Y-63412151D01*
X103382133Y-63391107D01*
X103396747Y-63371402D01*
X103413223Y-63353223D01*
X103431402Y-63336747D01*
X103451107Y-63322133D01*
X103472151Y-63309520D01*
X103494329Y-63299030D01*
X103517429Y-63290765D01*
X103541227Y-63284804D01*
X103565496Y-63281204D01*
X103590000Y-63280000D01*
X104690000Y-63280000D01*
X104714504Y-63281204D01*
X104714504Y-63281204D01*
G37*
D15*
X104140000Y-65030000D03*
G04 #@! TD*
D12*
G04 #@! TO.C,C2*
G36*
X129766142Y-70125674D02*
X129789803Y-70129184D01*
X129813007Y-70134996D01*
X129835529Y-70143054D01*
X129857153Y-70153282D01*
X129877670Y-70165579D01*
X129896883Y-70179829D01*
X129914607Y-70195893D01*
X129930671Y-70213617D01*
X129944921Y-70232830D01*
X129957218Y-70253347D01*
X129967446Y-70274971D01*
X129975504Y-70297493D01*
X129981316Y-70320697D01*
X129984826Y-70344358D01*
X129986000Y-70368250D01*
X129986000Y-70855750D01*
X129984826Y-70879642D01*
X129981316Y-70903303D01*
X129975504Y-70926507D01*
X129967446Y-70949029D01*
X129957218Y-70970653D01*
X129944921Y-70991170D01*
X129930671Y-71010383D01*
X129914607Y-71028107D01*
X129896883Y-71044171D01*
X129877670Y-71058421D01*
X129857153Y-71070718D01*
X129835529Y-71080946D01*
X129813007Y-71089004D01*
X129789803Y-71094816D01*
X129766142Y-71098326D01*
X129742250Y-71099500D01*
X128829750Y-71099500D01*
X128805858Y-71098326D01*
X128782197Y-71094816D01*
X128758993Y-71089004D01*
X128736471Y-71080946D01*
X128714847Y-71070718D01*
X128694330Y-71058421D01*
X128675117Y-71044171D01*
X128657393Y-71028107D01*
X128641329Y-71010383D01*
X128627079Y-70991170D01*
X128614782Y-70970653D01*
X128604554Y-70949029D01*
X128596496Y-70926507D01*
X128590684Y-70903303D01*
X128587174Y-70879642D01*
X128586000Y-70855750D01*
X128586000Y-70368250D01*
X128587174Y-70344358D01*
X128590684Y-70320697D01*
X128596496Y-70297493D01*
X128604554Y-70274971D01*
X128614782Y-70253347D01*
X128627079Y-70232830D01*
X128641329Y-70213617D01*
X128657393Y-70195893D01*
X128675117Y-70179829D01*
X128694330Y-70165579D01*
X128714847Y-70153282D01*
X128736471Y-70143054D01*
X128758993Y-70134996D01*
X128782197Y-70129184D01*
X128805858Y-70125674D01*
X128829750Y-70124500D01*
X129742250Y-70124500D01*
X129766142Y-70125674D01*
X129766142Y-70125674D01*
G37*
D13*
X129286000Y-70612000D03*
D12*
G36*
X129766142Y-68250674D02*
X129789803Y-68254184D01*
X129813007Y-68259996D01*
X129835529Y-68268054D01*
X129857153Y-68278282D01*
X129877670Y-68290579D01*
X129896883Y-68304829D01*
X129914607Y-68320893D01*
X129930671Y-68338617D01*
X129944921Y-68357830D01*
X129957218Y-68378347D01*
X129967446Y-68399971D01*
X129975504Y-68422493D01*
X129981316Y-68445697D01*
X129984826Y-68469358D01*
X129986000Y-68493250D01*
X129986000Y-68980750D01*
X129984826Y-69004642D01*
X129981316Y-69028303D01*
X129975504Y-69051507D01*
X129967446Y-69074029D01*
X129957218Y-69095653D01*
X129944921Y-69116170D01*
X129930671Y-69135383D01*
X129914607Y-69153107D01*
X129896883Y-69169171D01*
X129877670Y-69183421D01*
X129857153Y-69195718D01*
X129835529Y-69205946D01*
X129813007Y-69214004D01*
X129789803Y-69219816D01*
X129766142Y-69223326D01*
X129742250Y-69224500D01*
X128829750Y-69224500D01*
X128805858Y-69223326D01*
X128782197Y-69219816D01*
X128758993Y-69214004D01*
X128736471Y-69205946D01*
X128714847Y-69195718D01*
X128694330Y-69183421D01*
X128675117Y-69169171D01*
X128657393Y-69153107D01*
X128641329Y-69135383D01*
X128627079Y-69116170D01*
X128614782Y-69095653D01*
X128604554Y-69074029D01*
X128596496Y-69051507D01*
X128590684Y-69028303D01*
X128587174Y-69004642D01*
X128586000Y-68980750D01*
X128586000Y-68493250D01*
X128587174Y-68469358D01*
X128590684Y-68445697D01*
X128596496Y-68422493D01*
X128604554Y-68399971D01*
X128614782Y-68378347D01*
X128627079Y-68357830D01*
X128641329Y-68338617D01*
X128657393Y-68320893D01*
X128675117Y-68304829D01*
X128694330Y-68290579D01*
X128714847Y-68278282D01*
X128736471Y-68268054D01*
X128758993Y-68259996D01*
X128782197Y-68254184D01*
X128805858Y-68250674D01*
X128829750Y-68249500D01*
X129742250Y-68249500D01*
X129766142Y-68250674D01*
X129766142Y-68250674D01*
G37*
D13*
X129286000Y-68737000D03*
G04 #@! TD*
D12*
G04 #@! TO.C,C3*
G36*
X110335142Y-62046174D02*
X110358803Y-62049684D01*
X110382007Y-62055496D01*
X110404529Y-62063554D01*
X110426153Y-62073782D01*
X110446670Y-62086079D01*
X110465883Y-62100329D01*
X110483607Y-62116393D01*
X110499671Y-62134117D01*
X110513921Y-62153330D01*
X110526218Y-62173847D01*
X110536446Y-62195471D01*
X110544504Y-62217993D01*
X110550316Y-62241197D01*
X110553826Y-62264858D01*
X110555000Y-62288750D01*
X110555000Y-62776250D01*
X110553826Y-62800142D01*
X110550316Y-62823803D01*
X110544504Y-62847007D01*
X110536446Y-62869529D01*
X110526218Y-62891153D01*
X110513921Y-62911670D01*
X110499671Y-62930883D01*
X110483607Y-62948607D01*
X110465883Y-62964671D01*
X110446670Y-62978921D01*
X110426153Y-62991218D01*
X110404529Y-63001446D01*
X110382007Y-63009504D01*
X110358803Y-63015316D01*
X110335142Y-63018826D01*
X110311250Y-63020000D01*
X109398750Y-63020000D01*
X109374858Y-63018826D01*
X109351197Y-63015316D01*
X109327993Y-63009504D01*
X109305471Y-63001446D01*
X109283847Y-62991218D01*
X109263330Y-62978921D01*
X109244117Y-62964671D01*
X109226393Y-62948607D01*
X109210329Y-62930883D01*
X109196079Y-62911670D01*
X109183782Y-62891153D01*
X109173554Y-62869529D01*
X109165496Y-62847007D01*
X109159684Y-62823803D01*
X109156174Y-62800142D01*
X109155000Y-62776250D01*
X109155000Y-62288750D01*
X109156174Y-62264858D01*
X109159684Y-62241197D01*
X109165496Y-62217993D01*
X109173554Y-62195471D01*
X109183782Y-62173847D01*
X109196079Y-62153330D01*
X109210329Y-62134117D01*
X109226393Y-62116393D01*
X109244117Y-62100329D01*
X109263330Y-62086079D01*
X109283847Y-62073782D01*
X109305471Y-62063554D01*
X109327993Y-62055496D01*
X109351197Y-62049684D01*
X109374858Y-62046174D01*
X109398750Y-62045000D01*
X110311250Y-62045000D01*
X110335142Y-62046174D01*
X110335142Y-62046174D01*
G37*
D13*
X109855000Y-62532500D03*
D12*
G36*
X110335142Y-60171174D02*
X110358803Y-60174684D01*
X110382007Y-60180496D01*
X110404529Y-60188554D01*
X110426153Y-60198782D01*
X110446670Y-60211079D01*
X110465883Y-60225329D01*
X110483607Y-60241393D01*
X110499671Y-60259117D01*
X110513921Y-60278330D01*
X110526218Y-60298847D01*
X110536446Y-60320471D01*
X110544504Y-60342993D01*
X110550316Y-60366197D01*
X110553826Y-60389858D01*
X110555000Y-60413750D01*
X110555000Y-60901250D01*
X110553826Y-60925142D01*
X110550316Y-60948803D01*
X110544504Y-60972007D01*
X110536446Y-60994529D01*
X110526218Y-61016153D01*
X110513921Y-61036670D01*
X110499671Y-61055883D01*
X110483607Y-61073607D01*
X110465883Y-61089671D01*
X110446670Y-61103921D01*
X110426153Y-61116218D01*
X110404529Y-61126446D01*
X110382007Y-61134504D01*
X110358803Y-61140316D01*
X110335142Y-61143826D01*
X110311250Y-61145000D01*
X109398750Y-61145000D01*
X109374858Y-61143826D01*
X109351197Y-61140316D01*
X109327993Y-61134504D01*
X109305471Y-61126446D01*
X109283847Y-61116218D01*
X109263330Y-61103921D01*
X109244117Y-61089671D01*
X109226393Y-61073607D01*
X109210329Y-61055883D01*
X109196079Y-61036670D01*
X109183782Y-61016153D01*
X109173554Y-60994529D01*
X109165496Y-60972007D01*
X109159684Y-60948803D01*
X109156174Y-60925142D01*
X109155000Y-60901250D01*
X109155000Y-60413750D01*
X109156174Y-60389858D01*
X109159684Y-60366197D01*
X109165496Y-60342993D01*
X109173554Y-60320471D01*
X109183782Y-60298847D01*
X109196079Y-60278330D01*
X109210329Y-60259117D01*
X109226393Y-60241393D01*
X109244117Y-60225329D01*
X109263330Y-60211079D01*
X109283847Y-60198782D01*
X109305471Y-60188554D01*
X109327993Y-60180496D01*
X109351197Y-60174684D01*
X109374858Y-60171174D01*
X109398750Y-60170000D01*
X110311250Y-60170000D01*
X110335142Y-60171174D01*
X110335142Y-60171174D01*
G37*
D13*
X109855000Y-60657500D03*
G04 #@! TD*
D12*
G04 #@! TO.C,C1*
G36*
X129766142Y-86460174D02*
X129789803Y-86463684D01*
X129813007Y-86469496D01*
X129835529Y-86477554D01*
X129857153Y-86487782D01*
X129877670Y-86500079D01*
X129896883Y-86514329D01*
X129914607Y-86530393D01*
X129930671Y-86548117D01*
X129944921Y-86567330D01*
X129957218Y-86587847D01*
X129967446Y-86609471D01*
X129975504Y-86631993D01*
X129981316Y-86655197D01*
X129984826Y-86678858D01*
X129986000Y-86702750D01*
X129986000Y-87190250D01*
X129984826Y-87214142D01*
X129981316Y-87237803D01*
X129975504Y-87261007D01*
X129967446Y-87283529D01*
X129957218Y-87305153D01*
X129944921Y-87325670D01*
X129930671Y-87344883D01*
X129914607Y-87362607D01*
X129896883Y-87378671D01*
X129877670Y-87392921D01*
X129857153Y-87405218D01*
X129835529Y-87415446D01*
X129813007Y-87423504D01*
X129789803Y-87429316D01*
X129766142Y-87432826D01*
X129742250Y-87434000D01*
X128829750Y-87434000D01*
X128805858Y-87432826D01*
X128782197Y-87429316D01*
X128758993Y-87423504D01*
X128736471Y-87415446D01*
X128714847Y-87405218D01*
X128694330Y-87392921D01*
X128675117Y-87378671D01*
X128657393Y-87362607D01*
X128641329Y-87344883D01*
X128627079Y-87325670D01*
X128614782Y-87305153D01*
X128604554Y-87283529D01*
X128596496Y-87261007D01*
X128590684Y-87237803D01*
X128587174Y-87214142D01*
X128586000Y-87190250D01*
X128586000Y-86702750D01*
X128587174Y-86678858D01*
X128590684Y-86655197D01*
X128596496Y-86631993D01*
X128604554Y-86609471D01*
X128614782Y-86587847D01*
X128627079Y-86567330D01*
X128641329Y-86548117D01*
X128657393Y-86530393D01*
X128675117Y-86514329D01*
X128694330Y-86500079D01*
X128714847Y-86487782D01*
X128736471Y-86477554D01*
X128758993Y-86469496D01*
X128782197Y-86463684D01*
X128805858Y-86460174D01*
X128829750Y-86459000D01*
X129742250Y-86459000D01*
X129766142Y-86460174D01*
X129766142Y-86460174D01*
G37*
D13*
X129286000Y-86946500D03*
D12*
G36*
X129766142Y-88335174D02*
X129789803Y-88338684D01*
X129813007Y-88344496D01*
X129835529Y-88352554D01*
X129857153Y-88362782D01*
X129877670Y-88375079D01*
X129896883Y-88389329D01*
X129914607Y-88405393D01*
X129930671Y-88423117D01*
X129944921Y-88442330D01*
X129957218Y-88462847D01*
X129967446Y-88484471D01*
X129975504Y-88506993D01*
X129981316Y-88530197D01*
X129984826Y-88553858D01*
X129986000Y-88577750D01*
X129986000Y-89065250D01*
X129984826Y-89089142D01*
X129981316Y-89112803D01*
X129975504Y-89136007D01*
X129967446Y-89158529D01*
X129957218Y-89180153D01*
X129944921Y-89200670D01*
X129930671Y-89219883D01*
X129914607Y-89237607D01*
X129896883Y-89253671D01*
X129877670Y-89267921D01*
X129857153Y-89280218D01*
X129835529Y-89290446D01*
X129813007Y-89298504D01*
X129789803Y-89304316D01*
X129766142Y-89307826D01*
X129742250Y-89309000D01*
X128829750Y-89309000D01*
X128805858Y-89307826D01*
X128782197Y-89304316D01*
X128758993Y-89298504D01*
X128736471Y-89290446D01*
X128714847Y-89280218D01*
X128694330Y-89267921D01*
X128675117Y-89253671D01*
X128657393Y-89237607D01*
X128641329Y-89219883D01*
X128627079Y-89200670D01*
X128614782Y-89180153D01*
X128604554Y-89158529D01*
X128596496Y-89136007D01*
X128590684Y-89112803D01*
X128587174Y-89089142D01*
X128586000Y-89065250D01*
X128586000Y-88577750D01*
X128587174Y-88553858D01*
X128590684Y-88530197D01*
X128596496Y-88506993D01*
X128604554Y-88484471D01*
X128614782Y-88462847D01*
X128627079Y-88442330D01*
X128641329Y-88423117D01*
X128657393Y-88405393D01*
X128675117Y-88389329D01*
X128694330Y-88375079D01*
X128714847Y-88362782D01*
X128736471Y-88352554D01*
X128758993Y-88344496D01*
X128782197Y-88338684D01*
X128805858Y-88335174D01*
X128829750Y-88334000D01*
X129742250Y-88334000D01*
X129766142Y-88335174D01*
X129766142Y-88335174D01*
G37*
D13*
X129286000Y-88821500D03*
G04 #@! TD*
D16*
G04 #@! TO.C,U1*
X115815000Y-58680000D03*
X115815000Y-63240000D03*
D17*
X123790000Y-62485000D03*
X120440000Y-59435000D03*
X123790000Y-59435000D03*
X120440000Y-62485000D03*
G04 #@! TD*
D12*
G04 #@! TO.C,R3*
G36*
X115288142Y-92780174D02*
X115311803Y-92783684D01*
X115335007Y-92789496D01*
X115357529Y-92797554D01*
X115379153Y-92807782D01*
X115399670Y-92820079D01*
X115418883Y-92834329D01*
X115436607Y-92850393D01*
X115452671Y-92868117D01*
X115466921Y-92887330D01*
X115479218Y-92907847D01*
X115489446Y-92929471D01*
X115497504Y-92951993D01*
X115503316Y-92975197D01*
X115506826Y-92998858D01*
X115508000Y-93022750D01*
X115508000Y-93510250D01*
X115506826Y-93534142D01*
X115503316Y-93557803D01*
X115497504Y-93581007D01*
X115489446Y-93603529D01*
X115479218Y-93625153D01*
X115466921Y-93645670D01*
X115452671Y-93664883D01*
X115436607Y-93682607D01*
X115418883Y-93698671D01*
X115399670Y-93712921D01*
X115379153Y-93725218D01*
X115357529Y-93735446D01*
X115335007Y-93743504D01*
X115311803Y-93749316D01*
X115288142Y-93752826D01*
X115264250Y-93754000D01*
X114351750Y-93754000D01*
X114327858Y-93752826D01*
X114304197Y-93749316D01*
X114280993Y-93743504D01*
X114258471Y-93735446D01*
X114236847Y-93725218D01*
X114216330Y-93712921D01*
X114197117Y-93698671D01*
X114179393Y-93682607D01*
X114163329Y-93664883D01*
X114149079Y-93645670D01*
X114136782Y-93625153D01*
X114126554Y-93603529D01*
X114118496Y-93581007D01*
X114112684Y-93557803D01*
X114109174Y-93534142D01*
X114108000Y-93510250D01*
X114108000Y-93022750D01*
X114109174Y-92998858D01*
X114112684Y-92975197D01*
X114118496Y-92951993D01*
X114126554Y-92929471D01*
X114136782Y-92907847D01*
X114149079Y-92887330D01*
X114163329Y-92868117D01*
X114179393Y-92850393D01*
X114197117Y-92834329D01*
X114216330Y-92820079D01*
X114236847Y-92807782D01*
X114258471Y-92797554D01*
X114280993Y-92789496D01*
X114304197Y-92783684D01*
X114327858Y-92780174D01*
X114351750Y-92779000D01*
X115264250Y-92779000D01*
X115288142Y-92780174D01*
X115288142Y-92780174D01*
G37*
D13*
X114808000Y-93266500D03*
D12*
G36*
X115288142Y-90905174D02*
X115311803Y-90908684D01*
X115335007Y-90914496D01*
X115357529Y-90922554D01*
X115379153Y-90932782D01*
X115399670Y-90945079D01*
X115418883Y-90959329D01*
X115436607Y-90975393D01*
X115452671Y-90993117D01*
X115466921Y-91012330D01*
X115479218Y-91032847D01*
X115489446Y-91054471D01*
X115497504Y-91076993D01*
X115503316Y-91100197D01*
X115506826Y-91123858D01*
X115508000Y-91147750D01*
X115508000Y-91635250D01*
X115506826Y-91659142D01*
X115503316Y-91682803D01*
X115497504Y-91706007D01*
X115489446Y-91728529D01*
X115479218Y-91750153D01*
X115466921Y-91770670D01*
X115452671Y-91789883D01*
X115436607Y-91807607D01*
X115418883Y-91823671D01*
X115399670Y-91837921D01*
X115379153Y-91850218D01*
X115357529Y-91860446D01*
X115335007Y-91868504D01*
X115311803Y-91874316D01*
X115288142Y-91877826D01*
X115264250Y-91879000D01*
X114351750Y-91879000D01*
X114327858Y-91877826D01*
X114304197Y-91874316D01*
X114280993Y-91868504D01*
X114258471Y-91860446D01*
X114236847Y-91850218D01*
X114216330Y-91837921D01*
X114197117Y-91823671D01*
X114179393Y-91807607D01*
X114163329Y-91789883D01*
X114149079Y-91770670D01*
X114136782Y-91750153D01*
X114126554Y-91728529D01*
X114118496Y-91706007D01*
X114112684Y-91682803D01*
X114109174Y-91659142D01*
X114108000Y-91635250D01*
X114108000Y-91147750D01*
X114109174Y-91123858D01*
X114112684Y-91100197D01*
X114118496Y-91076993D01*
X114126554Y-91054471D01*
X114136782Y-91032847D01*
X114149079Y-91012330D01*
X114163329Y-90993117D01*
X114179393Y-90975393D01*
X114197117Y-90959329D01*
X114216330Y-90945079D01*
X114236847Y-90932782D01*
X114258471Y-90922554D01*
X114280993Y-90914496D01*
X114304197Y-90908684D01*
X114327858Y-90905174D01*
X114351750Y-90904000D01*
X115264250Y-90904000D01*
X115288142Y-90905174D01*
X115288142Y-90905174D01*
G37*
D13*
X114808000Y-91391500D03*
G04 #@! TD*
D12*
G04 #@! TO.C,R2*
G36*
X112240142Y-90905174D02*
X112263803Y-90908684D01*
X112287007Y-90914496D01*
X112309529Y-90922554D01*
X112331153Y-90932782D01*
X112351670Y-90945079D01*
X112370883Y-90959329D01*
X112388607Y-90975393D01*
X112404671Y-90993117D01*
X112418921Y-91012330D01*
X112431218Y-91032847D01*
X112441446Y-91054471D01*
X112449504Y-91076993D01*
X112455316Y-91100197D01*
X112458826Y-91123858D01*
X112460000Y-91147750D01*
X112460000Y-91635250D01*
X112458826Y-91659142D01*
X112455316Y-91682803D01*
X112449504Y-91706007D01*
X112441446Y-91728529D01*
X112431218Y-91750153D01*
X112418921Y-91770670D01*
X112404671Y-91789883D01*
X112388607Y-91807607D01*
X112370883Y-91823671D01*
X112351670Y-91837921D01*
X112331153Y-91850218D01*
X112309529Y-91860446D01*
X112287007Y-91868504D01*
X112263803Y-91874316D01*
X112240142Y-91877826D01*
X112216250Y-91879000D01*
X111303750Y-91879000D01*
X111279858Y-91877826D01*
X111256197Y-91874316D01*
X111232993Y-91868504D01*
X111210471Y-91860446D01*
X111188847Y-91850218D01*
X111168330Y-91837921D01*
X111149117Y-91823671D01*
X111131393Y-91807607D01*
X111115329Y-91789883D01*
X111101079Y-91770670D01*
X111088782Y-91750153D01*
X111078554Y-91728529D01*
X111070496Y-91706007D01*
X111064684Y-91682803D01*
X111061174Y-91659142D01*
X111060000Y-91635250D01*
X111060000Y-91147750D01*
X111061174Y-91123858D01*
X111064684Y-91100197D01*
X111070496Y-91076993D01*
X111078554Y-91054471D01*
X111088782Y-91032847D01*
X111101079Y-91012330D01*
X111115329Y-90993117D01*
X111131393Y-90975393D01*
X111149117Y-90959329D01*
X111168330Y-90945079D01*
X111188847Y-90932782D01*
X111210471Y-90922554D01*
X111232993Y-90914496D01*
X111256197Y-90908684D01*
X111279858Y-90905174D01*
X111303750Y-90904000D01*
X112216250Y-90904000D01*
X112240142Y-90905174D01*
X112240142Y-90905174D01*
G37*
D13*
X111760000Y-91391500D03*
D12*
G36*
X112240142Y-92780174D02*
X112263803Y-92783684D01*
X112287007Y-92789496D01*
X112309529Y-92797554D01*
X112331153Y-92807782D01*
X112351670Y-92820079D01*
X112370883Y-92834329D01*
X112388607Y-92850393D01*
X112404671Y-92868117D01*
X112418921Y-92887330D01*
X112431218Y-92907847D01*
X112441446Y-92929471D01*
X112449504Y-92951993D01*
X112455316Y-92975197D01*
X112458826Y-92998858D01*
X112460000Y-93022750D01*
X112460000Y-93510250D01*
X112458826Y-93534142D01*
X112455316Y-93557803D01*
X112449504Y-93581007D01*
X112441446Y-93603529D01*
X112431218Y-93625153D01*
X112418921Y-93645670D01*
X112404671Y-93664883D01*
X112388607Y-93682607D01*
X112370883Y-93698671D01*
X112351670Y-93712921D01*
X112331153Y-93725218D01*
X112309529Y-93735446D01*
X112287007Y-93743504D01*
X112263803Y-93749316D01*
X112240142Y-93752826D01*
X112216250Y-93754000D01*
X111303750Y-93754000D01*
X111279858Y-93752826D01*
X111256197Y-93749316D01*
X111232993Y-93743504D01*
X111210471Y-93735446D01*
X111188847Y-93725218D01*
X111168330Y-93712921D01*
X111149117Y-93698671D01*
X111131393Y-93682607D01*
X111115329Y-93664883D01*
X111101079Y-93645670D01*
X111088782Y-93625153D01*
X111078554Y-93603529D01*
X111070496Y-93581007D01*
X111064684Y-93557803D01*
X111061174Y-93534142D01*
X111060000Y-93510250D01*
X111060000Y-93022750D01*
X111061174Y-92998858D01*
X111064684Y-92975197D01*
X111070496Y-92951993D01*
X111078554Y-92929471D01*
X111088782Y-92907847D01*
X111101079Y-92887330D01*
X111115329Y-92868117D01*
X111131393Y-92850393D01*
X111149117Y-92834329D01*
X111168330Y-92820079D01*
X111188847Y-92807782D01*
X111210471Y-92797554D01*
X111232993Y-92789496D01*
X111256197Y-92783684D01*
X111279858Y-92780174D01*
X111303750Y-92779000D01*
X112216250Y-92779000D01*
X112240142Y-92780174D01*
X112240142Y-92780174D01*
G37*
D13*
X111760000Y-93266500D03*
G04 #@! TD*
D12*
G04 #@! TO.C,R1*
G36*
X124395142Y-85661174D02*
X124418803Y-85664684D01*
X124442007Y-85670496D01*
X124464529Y-85678554D01*
X124486153Y-85688782D01*
X124506670Y-85701079D01*
X124525883Y-85715329D01*
X124543607Y-85731393D01*
X124559671Y-85749117D01*
X124573921Y-85768330D01*
X124586218Y-85788847D01*
X124596446Y-85810471D01*
X124604504Y-85832993D01*
X124610316Y-85856197D01*
X124613826Y-85879858D01*
X124615000Y-85903750D01*
X124615000Y-86816250D01*
X124613826Y-86840142D01*
X124610316Y-86863803D01*
X124604504Y-86887007D01*
X124596446Y-86909529D01*
X124586218Y-86931153D01*
X124573921Y-86951670D01*
X124559671Y-86970883D01*
X124543607Y-86988607D01*
X124525883Y-87004671D01*
X124506670Y-87018921D01*
X124486153Y-87031218D01*
X124464529Y-87041446D01*
X124442007Y-87049504D01*
X124418803Y-87055316D01*
X124395142Y-87058826D01*
X124371250Y-87060000D01*
X123883750Y-87060000D01*
X123859858Y-87058826D01*
X123836197Y-87055316D01*
X123812993Y-87049504D01*
X123790471Y-87041446D01*
X123768847Y-87031218D01*
X123748330Y-87018921D01*
X123729117Y-87004671D01*
X123711393Y-86988607D01*
X123695329Y-86970883D01*
X123681079Y-86951670D01*
X123668782Y-86931153D01*
X123658554Y-86909529D01*
X123650496Y-86887007D01*
X123644684Y-86863803D01*
X123641174Y-86840142D01*
X123640000Y-86816250D01*
X123640000Y-85903750D01*
X123641174Y-85879858D01*
X123644684Y-85856197D01*
X123650496Y-85832993D01*
X123658554Y-85810471D01*
X123668782Y-85788847D01*
X123681079Y-85768330D01*
X123695329Y-85749117D01*
X123711393Y-85731393D01*
X123729117Y-85715329D01*
X123748330Y-85701079D01*
X123768847Y-85688782D01*
X123790471Y-85678554D01*
X123812993Y-85670496D01*
X123836197Y-85664684D01*
X123859858Y-85661174D01*
X123883750Y-85660000D01*
X124371250Y-85660000D01*
X124395142Y-85661174D01*
X124395142Y-85661174D01*
G37*
D13*
X124127500Y-86360000D03*
D12*
G36*
X122520142Y-85661174D02*
X122543803Y-85664684D01*
X122567007Y-85670496D01*
X122589529Y-85678554D01*
X122611153Y-85688782D01*
X122631670Y-85701079D01*
X122650883Y-85715329D01*
X122668607Y-85731393D01*
X122684671Y-85749117D01*
X122698921Y-85768330D01*
X122711218Y-85788847D01*
X122721446Y-85810471D01*
X122729504Y-85832993D01*
X122735316Y-85856197D01*
X122738826Y-85879858D01*
X122740000Y-85903750D01*
X122740000Y-86816250D01*
X122738826Y-86840142D01*
X122735316Y-86863803D01*
X122729504Y-86887007D01*
X122721446Y-86909529D01*
X122711218Y-86931153D01*
X122698921Y-86951670D01*
X122684671Y-86970883D01*
X122668607Y-86988607D01*
X122650883Y-87004671D01*
X122631670Y-87018921D01*
X122611153Y-87031218D01*
X122589529Y-87041446D01*
X122567007Y-87049504D01*
X122543803Y-87055316D01*
X122520142Y-87058826D01*
X122496250Y-87060000D01*
X122008750Y-87060000D01*
X121984858Y-87058826D01*
X121961197Y-87055316D01*
X121937993Y-87049504D01*
X121915471Y-87041446D01*
X121893847Y-87031218D01*
X121873330Y-87018921D01*
X121854117Y-87004671D01*
X121836393Y-86988607D01*
X121820329Y-86970883D01*
X121806079Y-86951670D01*
X121793782Y-86931153D01*
X121783554Y-86909529D01*
X121775496Y-86887007D01*
X121769684Y-86863803D01*
X121766174Y-86840142D01*
X121765000Y-86816250D01*
X121765000Y-85903750D01*
X121766174Y-85879858D01*
X121769684Y-85856197D01*
X121775496Y-85832993D01*
X121783554Y-85810471D01*
X121793782Y-85788847D01*
X121806079Y-85768330D01*
X121820329Y-85749117D01*
X121836393Y-85731393D01*
X121854117Y-85715329D01*
X121873330Y-85701079D01*
X121893847Y-85688782D01*
X121915471Y-85678554D01*
X121937993Y-85670496D01*
X121961197Y-85664684D01*
X121984858Y-85661174D01*
X122008750Y-85660000D01*
X122496250Y-85660000D01*
X122520142Y-85661174D01*
X122520142Y-85661174D01*
G37*
D13*
X122252500Y-86360000D03*
G04 #@! TD*
D12*
G04 #@! TO.C,R6*
G36*
X106398142Y-97303674D02*
X106421803Y-97307184D01*
X106445007Y-97312996D01*
X106467529Y-97321054D01*
X106489153Y-97331282D01*
X106509670Y-97343579D01*
X106528883Y-97357829D01*
X106546607Y-97373893D01*
X106562671Y-97391617D01*
X106576921Y-97410830D01*
X106589218Y-97431347D01*
X106599446Y-97452971D01*
X106607504Y-97475493D01*
X106613316Y-97498697D01*
X106616826Y-97522358D01*
X106618000Y-97546250D01*
X106618000Y-98033750D01*
X106616826Y-98057642D01*
X106613316Y-98081303D01*
X106607504Y-98104507D01*
X106599446Y-98127029D01*
X106589218Y-98148653D01*
X106576921Y-98169170D01*
X106562671Y-98188383D01*
X106546607Y-98206107D01*
X106528883Y-98222171D01*
X106509670Y-98236421D01*
X106489153Y-98248718D01*
X106467529Y-98258946D01*
X106445007Y-98267004D01*
X106421803Y-98272816D01*
X106398142Y-98276326D01*
X106374250Y-98277500D01*
X105461750Y-98277500D01*
X105437858Y-98276326D01*
X105414197Y-98272816D01*
X105390993Y-98267004D01*
X105368471Y-98258946D01*
X105346847Y-98248718D01*
X105326330Y-98236421D01*
X105307117Y-98222171D01*
X105289393Y-98206107D01*
X105273329Y-98188383D01*
X105259079Y-98169170D01*
X105246782Y-98148653D01*
X105236554Y-98127029D01*
X105228496Y-98104507D01*
X105222684Y-98081303D01*
X105219174Y-98057642D01*
X105218000Y-98033750D01*
X105218000Y-97546250D01*
X105219174Y-97522358D01*
X105222684Y-97498697D01*
X105228496Y-97475493D01*
X105236554Y-97452971D01*
X105246782Y-97431347D01*
X105259079Y-97410830D01*
X105273329Y-97391617D01*
X105289393Y-97373893D01*
X105307117Y-97357829D01*
X105326330Y-97343579D01*
X105346847Y-97331282D01*
X105368471Y-97321054D01*
X105390993Y-97312996D01*
X105414197Y-97307184D01*
X105437858Y-97303674D01*
X105461750Y-97302500D01*
X106374250Y-97302500D01*
X106398142Y-97303674D01*
X106398142Y-97303674D01*
G37*
D13*
X105918000Y-97790000D03*
D12*
G36*
X106398142Y-99178674D02*
X106421803Y-99182184D01*
X106445007Y-99187996D01*
X106467529Y-99196054D01*
X106489153Y-99206282D01*
X106509670Y-99218579D01*
X106528883Y-99232829D01*
X106546607Y-99248893D01*
X106562671Y-99266617D01*
X106576921Y-99285830D01*
X106589218Y-99306347D01*
X106599446Y-99327971D01*
X106607504Y-99350493D01*
X106613316Y-99373697D01*
X106616826Y-99397358D01*
X106618000Y-99421250D01*
X106618000Y-99908750D01*
X106616826Y-99932642D01*
X106613316Y-99956303D01*
X106607504Y-99979507D01*
X106599446Y-100002029D01*
X106589218Y-100023653D01*
X106576921Y-100044170D01*
X106562671Y-100063383D01*
X106546607Y-100081107D01*
X106528883Y-100097171D01*
X106509670Y-100111421D01*
X106489153Y-100123718D01*
X106467529Y-100133946D01*
X106445007Y-100142004D01*
X106421803Y-100147816D01*
X106398142Y-100151326D01*
X106374250Y-100152500D01*
X105461750Y-100152500D01*
X105437858Y-100151326D01*
X105414197Y-100147816D01*
X105390993Y-100142004D01*
X105368471Y-100133946D01*
X105346847Y-100123718D01*
X105326330Y-100111421D01*
X105307117Y-100097171D01*
X105289393Y-100081107D01*
X105273329Y-100063383D01*
X105259079Y-100044170D01*
X105246782Y-100023653D01*
X105236554Y-100002029D01*
X105228496Y-99979507D01*
X105222684Y-99956303D01*
X105219174Y-99932642D01*
X105218000Y-99908750D01*
X105218000Y-99421250D01*
X105219174Y-99397358D01*
X105222684Y-99373697D01*
X105228496Y-99350493D01*
X105236554Y-99327971D01*
X105246782Y-99306347D01*
X105259079Y-99285830D01*
X105273329Y-99266617D01*
X105289393Y-99248893D01*
X105307117Y-99232829D01*
X105326330Y-99218579D01*
X105346847Y-99206282D01*
X105368471Y-99196054D01*
X105390993Y-99187996D01*
X105414197Y-99182184D01*
X105437858Y-99178674D01*
X105461750Y-99177500D01*
X106374250Y-99177500D01*
X106398142Y-99178674D01*
X106398142Y-99178674D01*
G37*
D13*
X105918000Y-99665000D03*
G04 #@! TD*
D12*
G04 #@! TO.C,R7*
G36*
X109155142Y-71945174D02*
X109178803Y-71948684D01*
X109202007Y-71954496D01*
X109224529Y-71962554D01*
X109246153Y-71972782D01*
X109266670Y-71985079D01*
X109285883Y-71999329D01*
X109303607Y-72015393D01*
X109319671Y-72033117D01*
X109333921Y-72052330D01*
X109346218Y-72072847D01*
X109356446Y-72094471D01*
X109364504Y-72116993D01*
X109370316Y-72140197D01*
X109373826Y-72163858D01*
X109375000Y-72187750D01*
X109375000Y-73100250D01*
X109373826Y-73124142D01*
X109370316Y-73147803D01*
X109364504Y-73171007D01*
X109356446Y-73193529D01*
X109346218Y-73215153D01*
X109333921Y-73235670D01*
X109319671Y-73254883D01*
X109303607Y-73272607D01*
X109285883Y-73288671D01*
X109266670Y-73302921D01*
X109246153Y-73315218D01*
X109224529Y-73325446D01*
X109202007Y-73333504D01*
X109178803Y-73339316D01*
X109155142Y-73342826D01*
X109131250Y-73344000D01*
X108643750Y-73344000D01*
X108619858Y-73342826D01*
X108596197Y-73339316D01*
X108572993Y-73333504D01*
X108550471Y-73325446D01*
X108528847Y-73315218D01*
X108508330Y-73302921D01*
X108489117Y-73288671D01*
X108471393Y-73272607D01*
X108455329Y-73254883D01*
X108441079Y-73235670D01*
X108428782Y-73215153D01*
X108418554Y-73193529D01*
X108410496Y-73171007D01*
X108404684Y-73147803D01*
X108401174Y-73124142D01*
X108400000Y-73100250D01*
X108400000Y-72187750D01*
X108401174Y-72163858D01*
X108404684Y-72140197D01*
X108410496Y-72116993D01*
X108418554Y-72094471D01*
X108428782Y-72072847D01*
X108441079Y-72052330D01*
X108455329Y-72033117D01*
X108471393Y-72015393D01*
X108489117Y-71999329D01*
X108508330Y-71985079D01*
X108528847Y-71972782D01*
X108550471Y-71962554D01*
X108572993Y-71954496D01*
X108596197Y-71948684D01*
X108619858Y-71945174D01*
X108643750Y-71944000D01*
X109131250Y-71944000D01*
X109155142Y-71945174D01*
X109155142Y-71945174D01*
G37*
D13*
X108887500Y-72644000D03*
D12*
G36*
X107280142Y-71945174D02*
X107303803Y-71948684D01*
X107327007Y-71954496D01*
X107349529Y-71962554D01*
X107371153Y-71972782D01*
X107391670Y-71985079D01*
X107410883Y-71999329D01*
X107428607Y-72015393D01*
X107444671Y-72033117D01*
X107458921Y-72052330D01*
X107471218Y-72072847D01*
X107481446Y-72094471D01*
X107489504Y-72116993D01*
X107495316Y-72140197D01*
X107498826Y-72163858D01*
X107500000Y-72187750D01*
X107500000Y-73100250D01*
X107498826Y-73124142D01*
X107495316Y-73147803D01*
X107489504Y-73171007D01*
X107481446Y-73193529D01*
X107471218Y-73215153D01*
X107458921Y-73235670D01*
X107444671Y-73254883D01*
X107428607Y-73272607D01*
X107410883Y-73288671D01*
X107391670Y-73302921D01*
X107371153Y-73315218D01*
X107349529Y-73325446D01*
X107327007Y-73333504D01*
X107303803Y-73339316D01*
X107280142Y-73342826D01*
X107256250Y-73344000D01*
X106768750Y-73344000D01*
X106744858Y-73342826D01*
X106721197Y-73339316D01*
X106697993Y-73333504D01*
X106675471Y-73325446D01*
X106653847Y-73315218D01*
X106633330Y-73302921D01*
X106614117Y-73288671D01*
X106596393Y-73272607D01*
X106580329Y-73254883D01*
X106566079Y-73235670D01*
X106553782Y-73215153D01*
X106543554Y-73193529D01*
X106535496Y-73171007D01*
X106529684Y-73147803D01*
X106526174Y-73124142D01*
X106525000Y-73100250D01*
X106525000Y-72187750D01*
X106526174Y-72163858D01*
X106529684Y-72140197D01*
X106535496Y-72116993D01*
X106543554Y-72094471D01*
X106553782Y-72072847D01*
X106566079Y-72052330D01*
X106580329Y-72033117D01*
X106596393Y-72015393D01*
X106614117Y-71999329D01*
X106633330Y-71985079D01*
X106653847Y-71972782D01*
X106675471Y-71962554D01*
X106697993Y-71954496D01*
X106721197Y-71948684D01*
X106744858Y-71945174D01*
X106768750Y-71944000D01*
X107256250Y-71944000D01*
X107280142Y-71945174D01*
X107280142Y-71945174D01*
G37*
D13*
X107012500Y-72644000D03*
G04 #@! TD*
D12*
G04 #@! TO.C,R8*
G36*
X107280142Y-74485174D02*
X107303803Y-74488684D01*
X107327007Y-74494496D01*
X107349529Y-74502554D01*
X107371153Y-74512782D01*
X107391670Y-74525079D01*
X107410883Y-74539329D01*
X107428607Y-74555393D01*
X107444671Y-74573117D01*
X107458921Y-74592330D01*
X107471218Y-74612847D01*
X107481446Y-74634471D01*
X107489504Y-74656993D01*
X107495316Y-74680197D01*
X107498826Y-74703858D01*
X107500000Y-74727750D01*
X107500000Y-75640250D01*
X107498826Y-75664142D01*
X107495316Y-75687803D01*
X107489504Y-75711007D01*
X107481446Y-75733529D01*
X107471218Y-75755153D01*
X107458921Y-75775670D01*
X107444671Y-75794883D01*
X107428607Y-75812607D01*
X107410883Y-75828671D01*
X107391670Y-75842921D01*
X107371153Y-75855218D01*
X107349529Y-75865446D01*
X107327007Y-75873504D01*
X107303803Y-75879316D01*
X107280142Y-75882826D01*
X107256250Y-75884000D01*
X106768750Y-75884000D01*
X106744858Y-75882826D01*
X106721197Y-75879316D01*
X106697993Y-75873504D01*
X106675471Y-75865446D01*
X106653847Y-75855218D01*
X106633330Y-75842921D01*
X106614117Y-75828671D01*
X106596393Y-75812607D01*
X106580329Y-75794883D01*
X106566079Y-75775670D01*
X106553782Y-75755153D01*
X106543554Y-75733529D01*
X106535496Y-75711007D01*
X106529684Y-75687803D01*
X106526174Y-75664142D01*
X106525000Y-75640250D01*
X106525000Y-74727750D01*
X106526174Y-74703858D01*
X106529684Y-74680197D01*
X106535496Y-74656993D01*
X106543554Y-74634471D01*
X106553782Y-74612847D01*
X106566079Y-74592330D01*
X106580329Y-74573117D01*
X106596393Y-74555393D01*
X106614117Y-74539329D01*
X106633330Y-74525079D01*
X106653847Y-74512782D01*
X106675471Y-74502554D01*
X106697993Y-74494496D01*
X106721197Y-74488684D01*
X106744858Y-74485174D01*
X106768750Y-74484000D01*
X107256250Y-74484000D01*
X107280142Y-74485174D01*
X107280142Y-74485174D01*
G37*
D13*
X107012500Y-75184000D03*
D12*
G36*
X109155142Y-74485174D02*
X109178803Y-74488684D01*
X109202007Y-74494496D01*
X109224529Y-74502554D01*
X109246153Y-74512782D01*
X109266670Y-74525079D01*
X109285883Y-74539329D01*
X109303607Y-74555393D01*
X109319671Y-74573117D01*
X109333921Y-74592330D01*
X109346218Y-74612847D01*
X109356446Y-74634471D01*
X109364504Y-74656993D01*
X109370316Y-74680197D01*
X109373826Y-74703858D01*
X109375000Y-74727750D01*
X109375000Y-75640250D01*
X109373826Y-75664142D01*
X109370316Y-75687803D01*
X109364504Y-75711007D01*
X109356446Y-75733529D01*
X109346218Y-75755153D01*
X109333921Y-75775670D01*
X109319671Y-75794883D01*
X109303607Y-75812607D01*
X109285883Y-75828671D01*
X109266670Y-75842921D01*
X109246153Y-75855218D01*
X109224529Y-75865446D01*
X109202007Y-75873504D01*
X109178803Y-75879316D01*
X109155142Y-75882826D01*
X109131250Y-75884000D01*
X108643750Y-75884000D01*
X108619858Y-75882826D01*
X108596197Y-75879316D01*
X108572993Y-75873504D01*
X108550471Y-75865446D01*
X108528847Y-75855218D01*
X108508330Y-75842921D01*
X108489117Y-75828671D01*
X108471393Y-75812607D01*
X108455329Y-75794883D01*
X108441079Y-75775670D01*
X108428782Y-75755153D01*
X108418554Y-75733529D01*
X108410496Y-75711007D01*
X108404684Y-75687803D01*
X108401174Y-75664142D01*
X108400000Y-75640250D01*
X108400000Y-74727750D01*
X108401174Y-74703858D01*
X108404684Y-74680197D01*
X108410496Y-74656993D01*
X108418554Y-74634471D01*
X108428782Y-74612847D01*
X108441079Y-74592330D01*
X108455329Y-74573117D01*
X108471393Y-74555393D01*
X108489117Y-74539329D01*
X108508330Y-74525079D01*
X108528847Y-74512782D01*
X108550471Y-74502554D01*
X108572993Y-74494496D01*
X108596197Y-74488684D01*
X108619858Y-74485174D01*
X108643750Y-74484000D01*
X109131250Y-74484000D01*
X109155142Y-74485174D01*
X109155142Y-74485174D01*
G37*
D13*
X108887500Y-75184000D03*
G04 #@! TD*
D12*
G04 #@! TO.C,R9*
G36*
X109155142Y-77025174D02*
X109178803Y-77028684D01*
X109202007Y-77034496D01*
X109224529Y-77042554D01*
X109246153Y-77052782D01*
X109266670Y-77065079D01*
X109285883Y-77079329D01*
X109303607Y-77095393D01*
X109319671Y-77113117D01*
X109333921Y-77132330D01*
X109346218Y-77152847D01*
X109356446Y-77174471D01*
X109364504Y-77196993D01*
X109370316Y-77220197D01*
X109373826Y-77243858D01*
X109375000Y-77267750D01*
X109375000Y-78180250D01*
X109373826Y-78204142D01*
X109370316Y-78227803D01*
X109364504Y-78251007D01*
X109356446Y-78273529D01*
X109346218Y-78295153D01*
X109333921Y-78315670D01*
X109319671Y-78334883D01*
X109303607Y-78352607D01*
X109285883Y-78368671D01*
X109266670Y-78382921D01*
X109246153Y-78395218D01*
X109224529Y-78405446D01*
X109202007Y-78413504D01*
X109178803Y-78419316D01*
X109155142Y-78422826D01*
X109131250Y-78424000D01*
X108643750Y-78424000D01*
X108619858Y-78422826D01*
X108596197Y-78419316D01*
X108572993Y-78413504D01*
X108550471Y-78405446D01*
X108528847Y-78395218D01*
X108508330Y-78382921D01*
X108489117Y-78368671D01*
X108471393Y-78352607D01*
X108455329Y-78334883D01*
X108441079Y-78315670D01*
X108428782Y-78295153D01*
X108418554Y-78273529D01*
X108410496Y-78251007D01*
X108404684Y-78227803D01*
X108401174Y-78204142D01*
X108400000Y-78180250D01*
X108400000Y-77267750D01*
X108401174Y-77243858D01*
X108404684Y-77220197D01*
X108410496Y-77196993D01*
X108418554Y-77174471D01*
X108428782Y-77152847D01*
X108441079Y-77132330D01*
X108455329Y-77113117D01*
X108471393Y-77095393D01*
X108489117Y-77079329D01*
X108508330Y-77065079D01*
X108528847Y-77052782D01*
X108550471Y-77042554D01*
X108572993Y-77034496D01*
X108596197Y-77028684D01*
X108619858Y-77025174D01*
X108643750Y-77024000D01*
X109131250Y-77024000D01*
X109155142Y-77025174D01*
X109155142Y-77025174D01*
G37*
D13*
X108887500Y-77724000D03*
D12*
G36*
X107280142Y-77025174D02*
X107303803Y-77028684D01*
X107327007Y-77034496D01*
X107349529Y-77042554D01*
X107371153Y-77052782D01*
X107391670Y-77065079D01*
X107410883Y-77079329D01*
X107428607Y-77095393D01*
X107444671Y-77113117D01*
X107458921Y-77132330D01*
X107471218Y-77152847D01*
X107481446Y-77174471D01*
X107489504Y-77196993D01*
X107495316Y-77220197D01*
X107498826Y-77243858D01*
X107500000Y-77267750D01*
X107500000Y-78180250D01*
X107498826Y-78204142D01*
X107495316Y-78227803D01*
X107489504Y-78251007D01*
X107481446Y-78273529D01*
X107471218Y-78295153D01*
X107458921Y-78315670D01*
X107444671Y-78334883D01*
X107428607Y-78352607D01*
X107410883Y-78368671D01*
X107391670Y-78382921D01*
X107371153Y-78395218D01*
X107349529Y-78405446D01*
X107327007Y-78413504D01*
X107303803Y-78419316D01*
X107280142Y-78422826D01*
X107256250Y-78424000D01*
X106768750Y-78424000D01*
X106744858Y-78422826D01*
X106721197Y-78419316D01*
X106697993Y-78413504D01*
X106675471Y-78405446D01*
X106653847Y-78395218D01*
X106633330Y-78382921D01*
X106614117Y-78368671D01*
X106596393Y-78352607D01*
X106580329Y-78334883D01*
X106566079Y-78315670D01*
X106553782Y-78295153D01*
X106543554Y-78273529D01*
X106535496Y-78251007D01*
X106529684Y-78227803D01*
X106526174Y-78204142D01*
X106525000Y-78180250D01*
X106525000Y-77267750D01*
X106526174Y-77243858D01*
X106529684Y-77220197D01*
X106535496Y-77196993D01*
X106543554Y-77174471D01*
X106553782Y-77152847D01*
X106566079Y-77132330D01*
X106580329Y-77113117D01*
X106596393Y-77095393D01*
X106614117Y-77079329D01*
X106633330Y-77065079D01*
X106653847Y-77052782D01*
X106675471Y-77042554D01*
X106697993Y-77034496D01*
X106721197Y-77028684D01*
X106744858Y-77025174D01*
X106768750Y-77024000D01*
X107256250Y-77024000D01*
X107280142Y-77025174D01*
X107280142Y-77025174D01*
G37*
D13*
X107012500Y-77724000D03*
G04 #@! TD*
D12*
G04 #@! TO.C,R5*
G36*
X112494142Y-97303674D02*
X112517803Y-97307184D01*
X112541007Y-97312996D01*
X112563529Y-97321054D01*
X112585153Y-97331282D01*
X112605670Y-97343579D01*
X112624883Y-97357829D01*
X112642607Y-97373893D01*
X112658671Y-97391617D01*
X112672921Y-97410830D01*
X112685218Y-97431347D01*
X112695446Y-97452971D01*
X112703504Y-97475493D01*
X112709316Y-97498697D01*
X112712826Y-97522358D01*
X112714000Y-97546250D01*
X112714000Y-98033750D01*
X112712826Y-98057642D01*
X112709316Y-98081303D01*
X112703504Y-98104507D01*
X112695446Y-98127029D01*
X112685218Y-98148653D01*
X112672921Y-98169170D01*
X112658671Y-98188383D01*
X112642607Y-98206107D01*
X112624883Y-98222171D01*
X112605670Y-98236421D01*
X112585153Y-98248718D01*
X112563529Y-98258946D01*
X112541007Y-98267004D01*
X112517803Y-98272816D01*
X112494142Y-98276326D01*
X112470250Y-98277500D01*
X111557750Y-98277500D01*
X111533858Y-98276326D01*
X111510197Y-98272816D01*
X111486993Y-98267004D01*
X111464471Y-98258946D01*
X111442847Y-98248718D01*
X111422330Y-98236421D01*
X111403117Y-98222171D01*
X111385393Y-98206107D01*
X111369329Y-98188383D01*
X111355079Y-98169170D01*
X111342782Y-98148653D01*
X111332554Y-98127029D01*
X111324496Y-98104507D01*
X111318684Y-98081303D01*
X111315174Y-98057642D01*
X111314000Y-98033750D01*
X111314000Y-97546250D01*
X111315174Y-97522358D01*
X111318684Y-97498697D01*
X111324496Y-97475493D01*
X111332554Y-97452971D01*
X111342782Y-97431347D01*
X111355079Y-97410830D01*
X111369329Y-97391617D01*
X111385393Y-97373893D01*
X111403117Y-97357829D01*
X111422330Y-97343579D01*
X111442847Y-97331282D01*
X111464471Y-97321054D01*
X111486993Y-97312996D01*
X111510197Y-97307184D01*
X111533858Y-97303674D01*
X111557750Y-97302500D01*
X112470250Y-97302500D01*
X112494142Y-97303674D01*
X112494142Y-97303674D01*
G37*
D13*
X112014000Y-97790000D03*
D12*
G36*
X112494142Y-99178674D02*
X112517803Y-99182184D01*
X112541007Y-99187996D01*
X112563529Y-99196054D01*
X112585153Y-99206282D01*
X112605670Y-99218579D01*
X112624883Y-99232829D01*
X112642607Y-99248893D01*
X112658671Y-99266617D01*
X112672921Y-99285830D01*
X112685218Y-99306347D01*
X112695446Y-99327971D01*
X112703504Y-99350493D01*
X112709316Y-99373697D01*
X112712826Y-99397358D01*
X112714000Y-99421250D01*
X112714000Y-99908750D01*
X112712826Y-99932642D01*
X112709316Y-99956303D01*
X112703504Y-99979507D01*
X112695446Y-100002029D01*
X112685218Y-100023653D01*
X112672921Y-100044170D01*
X112658671Y-100063383D01*
X112642607Y-100081107D01*
X112624883Y-100097171D01*
X112605670Y-100111421D01*
X112585153Y-100123718D01*
X112563529Y-100133946D01*
X112541007Y-100142004D01*
X112517803Y-100147816D01*
X112494142Y-100151326D01*
X112470250Y-100152500D01*
X111557750Y-100152500D01*
X111533858Y-100151326D01*
X111510197Y-100147816D01*
X111486993Y-100142004D01*
X111464471Y-100133946D01*
X111442847Y-100123718D01*
X111422330Y-100111421D01*
X111403117Y-100097171D01*
X111385393Y-100081107D01*
X111369329Y-100063383D01*
X111355079Y-100044170D01*
X111342782Y-100023653D01*
X111332554Y-100002029D01*
X111324496Y-99979507D01*
X111318684Y-99956303D01*
X111315174Y-99932642D01*
X111314000Y-99908750D01*
X111314000Y-99421250D01*
X111315174Y-99397358D01*
X111318684Y-99373697D01*
X111324496Y-99350493D01*
X111332554Y-99327971D01*
X111342782Y-99306347D01*
X111355079Y-99285830D01*
X111369329Y-99266617D01*
X111385393Y-99248893D01*
X111403117Y-99232829D01*
X111422330Y-99218579D01*
X111442847Y-99206282D01*
X111464471Y-99196054D01*
X111486993Y-99187996D01*
X111510197Y-99182184D01*
X111533858Y-99178674D01*
X111557750Y-99177500D01*
X112470250Y-99177500D01*
X112494142Y-99178674D01*
X112494142Y-99178674D01*
G37*
D13*
X112014000Y-99665000D03*
G04 #@! TD*
M02*
